{"glyphs":{"0":{"ha":733,"x_min":81,"x_max":651,"o":"m 318 118 l 417 118 q 517 221 517 118 l 517 672 q 417 775 517 775 l 318 775 q 218 672 218 775 l 218 221 q 318 118 218 118 m 436 0 l 297 0 q 138 57 194 0 q 81 215 81 114 l 81 678 q 138 837 81 781 q 297 893 194 893 l 436 893 q 594 837 538 893 q 651 678 651 781 l 651 215 q 594 57 651 114 q 436 0 538 0 z "},"1":{"ha":454,"x_min":39,"x_max":354,"o":"m 39 675 l 39 757 q 58 790 39 779 l 203 878 q 247 893 229 893 l 331 893 q 354 869 354 893 l 354 24 q 332 0 354 0 l 242 0 q 218 24 218 0 l 218 749 l 67 661 q 39 675 39 649 z "},"2":{"ha":676,"x_min":67,"x_max":610,"o":"m 72 24 l 72 151 q 146 296 72 238 l 408 510 q 475 632 475 563 l 475 678 q 371 778 475 778 l 303 778 q 226 754 250 778 q 203 678 203 731 l 203 626 q 179 601 203 601 l 90 601 q 67 626 67 601 l 67 681 q 124 838 67 782 q 283 893 181 893 l 392 893 q 550 838 493 893 q 607 681 607 782 l 607 624 q 522 446 607 515 l 256 228 q 224 165 224 201 l 224 121 l 585 121 q 610 97 610 121 l 610 24 q 585 0 610 0 l 97 0 q 72 24 72 0 z "},"3":{"ha":700,"x_min":65,"x_max":619,"o":"m 307 504 l 383 504 q 486 606 486 504 l 486 678 q 383 778 486 778 l 301 778 q 226 754 250 778 q 201 678 201 731 l 201 638 q 178 614 201 614 l 89 614 q 65 638 65 614 l 65 681 q 122 838 65 782 q 282 893 179 893 l 403 893 q 563 838 506 893 q 619 681 619 782 l 619 604 q 508 449 619 482 q 619 293 619 422 l 619 213 q 563 56 619 111 q 403 0 506 0 l 282 0 q 122 56 179 0 q 65 213 65 111 l 65 261 q 89 286 65 286 l 178 286 q 201 261 201 286 l 201 215 q 226 140 201 164 q 301 115 250 115 l 383 115 q 486 215 486 115 l 486 292 q 383 393 486 393 l 307 393 q 283 417 283 393 l 283 479 q 307 504 283 504 z "},"4":{"ha":740,"x_min":53,"x_max":713,"o":"m 460 289 l 460 781 l 186 289 l 460 289 m 565 0 l 483 0 q 460 24 460 0 l 460 169 l 93 169 q 53 210 53 169 l 53 253 q 65 307 53 283 l 375 858 q 396 886 386 879 q 425 893 406 893 l 547 893 q 588 853 588 893 l 588 289 l 689 289 q 713 265 713 289 l 713 196 q 689 169 713 169 l 588 169 l 588 24 q 565 0 588 0 z "},"5":{"ha":690,"x_min":74,"x_max":622,"o":"m 383 472 l 297 472 q 253 463 271 472 q 231 442 236 453 q 193 410 215 410 l 106 410 q 82 433 82 410 l 82 869 q 106 893 82 893 l 576 893 q 601 869 601 893 l 601 790 q 576 767 601 767 l 218 767 l 218 514 q 335 582 242 582 l 417 582 q 569 530 517 582 q 622 376 622 478 l 622 215 q 565 57 622 114 q 407 0 508 0 l 289 0 q 130 57 186 0 q 74 215 74 114 l 74 251 q 97 276 74 276 l 185 276 q 208 251 208 276 l 208 217 q 308 115 208 115 l 388 115 q 490 217 490 115 l 490 357 q 466 446 490 419 q 383 472 442 472 z "},"6":{"ha":715,"x_min":75,"x_max":642,"o":"m 311 118 l 406 118 q 506 221 506 118 l 506 332 q 406 435 506 435 l 211 435 l 211 221 q 311 118 211 118 m 425 0 l 292 0 q 132 57 189 0 q 75 215 75 114 l 75 678 q 132 837 75 781 q 292 893 189 893 l 568 893 q 592 869 592 893 l 592 797 q 568 775 592 775 l 311 775 q 211 672 211 775 l 211 553 l 425 553 q 585 497 528 553 q 642 338 642 440 l 642 215 q 585 57 642 114 q 425 0 528 0 z "},"7":{"ha":572,"x_min":25,"x_max":544,"o":"m 210 0 l 114 0 q 101 26 88 0 l 399 768 l 49 768 q 25 793 25 768 l 25 869 q 49 893 25 893 l 519 893 q 544 869 544 893 l 544 783 q 529 725 544 761 l 249 22 q 210 0 240 0 z "},"8":{"ha":740,"x_min":81,"x_max":660,"o":"m 315 118 l 425 118 q 501 142 476 118 q 525 217 525 165 l 525 292 q 425 396 525 396 l 315 396 q 215 292 215 396 l 215 217 q 240 142 215 165 q 315 118 264 118 m 315 504 l 425 504 q 525 608 525 504 l 525 676 q 501 751 525 728 q 425 775 476 775 l 315 775 q 240 751 264 775 q 215 676 215 728 l 215 608 q 315 504 215 504 m 444 0 l 297 0 q 138 53 194 0 q 81 207 81 106 l 81 282 q 176 449 81 410 q 81 617 81 488 l 81 688 q 138 840 81 788 q 297 893 194 893 l 444 893 q 603 840 547 893 q 660 688 660 788 l 660 617 q 634 508 660 553 q 565 449 608 464 q 660 281 660 411 l 660 207 q 603 53 660 106 q 444 0 547 0 z "},"9":{"ha":715,"x_min":67,"x_max":633,"o":"m 304 453 l 499 453 l 499 672 q 397 775 499 775 l 304 775 q 204 672 204 775 l 204 554 q 304 453 204 453 m 417 0 l 135 0 q 108 24 108 0 l 108 96 q 135 118 108 118 l 397 118 q 497 221 497 118 l 497 333 l 283 333 q 124 390 181 333 q 67 547 67 446 l 67 678 q 124 837 67 781 q 283 893 181 893 l 417 893 q 576 837 519 893 q 633 678 633 781 l 633 215 q 576 57 633 114 q 417 0 519 0 z "},"\u0000":{"ha":0,"x_min":0,"x_max":0,"o":""},"\r":{"ha":0,"x_min":0,"x_max":0,"o":""}," ":{"ha":331,"x_min":0,"x_max":0,"o":""},"!":{"ha":331,"x_min":90,"x_max":239,"o":"m 90 683 l 90 869 q 114 893 90 893 l 215 893 q 239 869 239 893 l 239 683 q 218 332 239 519 q 193 307 214 307 l 136 307 q 111 332 115 307 q 90 683 90 519 m 235 193 l 235 24 q 213 0 235 0 l 119 0 q 97 25 97 0 l 97 193 q 119 215 97 215 l 213 215 q 235 193 235 215 z "},"\"":{"ha":478,"x_min":65,"x_max":413,"o":"m 135 586 l 118 586 q 94 613 97 586 l 65 871 q 86 893 64 893 l 168 893 q 189 871 190 893 l 161 611 q 135 586 154 586 m 358 586 l 343 586 q 319 613 319 586 l 290 871 q 311 893 286 893 l 393 893 q 413 871 417 893 l 385 611 q 358 586 381 586 z "},"#":{"ha":933,"x_min":60,"x_max":875,"o":"m 851 685 q 875 661 875 685 l 875 599 q 851 574 875 574 l 714 574 l 649 319 l 774 319 q 797 294 797 319 l 797 232 q 774 208 797 208 l 619 208 l 572 25 q 546 0 567 0 l 481 0 q 461 28 456 0 l 508 208 l 311 208 l 264 25 q 233 0 256 0 l 171 0 q 153 28 144 0 l 200 208 l 83 208 q 60 232 60 208 l 60 294 q 83 319 60 319 l 228 319 l 293 574 l 161 574 q 136 599 136 574 l 136 661 q 161 685 136 685 l 322 685 l 369 868 q 396 893 374 893 l 460 893 q 479 865 488 893 l 433 685 l 631 685 l 678 868 q 708 893 683 893 l 768 893 q 789 865 794 893 l 742 685 l 851 685 m 536 319 l 601 574 l 404 574 l 339 319 l 536 319 z "},"$":{"ha":719,"x_min":76,"x_max":644,"o":"m 400 -136 l 336 -136 q 313 -112 313 -136 l 313 0 l 289 0 q 133 58 190 0 q 76 217 76 115 l 76 249 q 101 274 76 274 l 189 274 q 213 249 213 274 l 213 228 q 239 144 213 169 q 325 118 265 118 l 397 118 q 482 145 456 118 q 508 233 508 172 l 508 278 q 472 358 508 336 q 364 383 436 379 q 221 399 261 388 q 147 433 181 410 q 76 613 76 482 l 76 678 q 133 837 76 779 q 289 894 189 894 l 313 894 l 313 1008 q 336 1032 313 1032 l 400 1032 q 424 1008 424 1032 l 424 894 l 431 894 q 580 836 525 894 q 635 678 635 778 l 635 647 q 611 622 635 622 l 524 622 q 499 647 499 622 l 499 665 q 473 749 499 724 q 388 775 447 775 l 324 775 q 238 748 263 775 q 213 656 213 721 l 213 608 q 248 535 213 556 q 357 510 283 514 l 428 507 q 585 452 525 501 q 644 283 644 403 l 644 217 q 587 58 644 115 q 431 0 529 0 l 424 0 l 424 -112 q 400 -136 424 -136 z "},"%":{"ha":1017,"x_min":69,"x_max":946,"o":"m 778 339 l 750 339 q 692 322 707 339 q 676 263 676 306 l 676 158 q 692 98 676 115 q 750 81 707 81 l 778 81 q 835 98 819 81 q 851 158 851 115 l 851 263 q 835 322 851 306 q 778 339 819 339 m 731 419 l 794 419 q 946 267 946 419 l 946 153 q 794 0 946 0 l 731 0 q 579 153 579 0 l 579 267 q 731 419 579 419 m 268 815 l 239 815 q 181 799 197 815 q 165 739 165 782 l 165 633 q 181 574 165 590 q 239 557 197 557 l 268 557 q 325 574 310 557 q 340 633 340 592 l 340 739 q 325 798 340 781 q 268 815 310 815 m 221 896 l 285 896 q 436 743 436 896 l 436 629 q 285 476 436 476 l 221 476 q 69 629 69 476 l 69 743 q 221 896 69 896 m 354 0 l 300 0 q 283 25 275 0 q 457 450 315 108 q 629 868 599 792 q 660 893 640 893 l 715 893 q 732 867 742 893 l 386 25 q 354 0 378 0 z "},"&":{"ha":847,"x_min":71,"x_max":782,"o":"m 306 119 l 382 119 q 469 190 460 119 l 282 408 q 201 300 201 404 l 201 221 q 306 119 201 119 m 382 0 l 286 0 q 128 56 185 0 q 71 213 71 111 l 71 308 q 107 431 71 378 q 213 489 143 483 q 156 651 156 563 l 156 681 q 216 837 156 781 q 379 893 276 893 l 421 893 q 579 838 522 893 q 636 681 636 782 l 636 626 q 613 601 636 601 l 525 601 q 501 626 501 601 l 501 678 q 408 778 501 778 l 392 778 q 294 678 294 778 l 294 649 q 356 518 294 586 l 429 433 l 747 433 q 771 408 771 433 l 771 338 q 747 314 771 314 l 529 314 l 778 19 q 781 7 783 14 q 771 0 779 0 l 660 0 q 619 17 632 0 l 551 97 q 382 0 519 0 z "},"'":{"ha":260,"x_min":69,"x_max":190,"o":"m 139 621 l 121 621 q 96 643 97 621 l 69 840 q 90 860 65 860 l 169 860 q 187 855 182 860 q 190 840 192 850 l 164 642 q 139 621 160 621 z "},"(":{"ha":413,"x_min":67,"x_max":332,"o":"m 310 794 l 304 794 q 179 636 179 794 l 179 115 q 307 -43 179 -43 l 310 -43 q 332 -64 332 -43 l 332 -124 q 328 -138 332 -135 q 310 -142 324 -142 l 304 -142 q 130 -74 193 -142 q 67 131 67 -7 l 67 622 q 131 826 67 758 q 306 893 194 893 l 310 893 q 328 890 324 893 q 332 875 332 886 l 332 815 q 310 794 332 794 z "},")":{"ha":413,"x_min":67,"x_max":332,"o":"m 67 -124 l 67 -64 q 89 -43 67 -43 l 92 -43 q 186 -3 153 -43 q 219 115 219 36 l 219 636 q 186 755 219 715 q 92 794 153 794 l 89 794 q 67 815 67 794 l 67 875 q 89 893 67 893 l 92 893 q 267 826 203 893 q 332 622 332 758 l 332 131 q 267 -74 332 -7 q 92 -142 203 -142 l 89 -142 q 67 -124 67 -142 z "},"*":{"ha":557,"x_min":71,"x_max":488,"o":"m 226 856 l 226 871 q 250 893 226 893 l 304 893 q 326 871 326 893 l 326 856 q 279 683 326 778 q 289 693 281 683 q 310 715 297 703 q 339 740 322 726 q 426 786 379 772 l 443 792 q 471 776 464 797 l 488 725 q 472 696 494 701 q 279 683 393 667 q 319 664 283 683 q 432 561 397 618 q 428 531 447 543 l 383 499 q 351 504 363 488 q 279 683 299 565 q 221 513 264 572 l 211 499 q 179 496 199 482 l 136 528 q 131 560 114 540 q 279 683 179 632 q 100 685 163 663 l 83 690 q 71 719 63 699 l 88 772 q 117 785 94 794 q 279 683 196 767 q 226 856 226 789 z "},"+":{"ha":763,"x_min":97,"x_max":665,"o":"m 440 503 l 639 503 q 665 475 665 503 l 665 417 q 639 390 665 390 l 440 390 l 440 189 q 413 161 440 161 l 350 161 q 324 189 324 161 l 324 390 l 124 390 q 97 417 97 390 l 97 475 q 124 503 97 503 l 324 503 l 324 703 q 350 731 324 731 l 413 731 q 440 703 440 731 l 440 503 z "},",":{"ha":276,"x_min":68,"x_max":208,"o":"m 208 193 l 208 85 q 182 1 208 51 l 108 -133 q 88 -146 103 -146 q 68 -124 68 -146 l 68 193 q 92 215 68 215 l 186 215 q 208 193 208 215 z "},"-":{"ha":433,"x_min":56,"x_max":378,"o":"m 354 388 l 79 388 q 56 413 56 388 l 56 474 q 79 499 56 499 l 354 499 q 378 474 378 499 l 378 413 q 354 388 378 388 z "},".":{"ha":276,"x_min":68,"x_max":208,"o":"m 208 193 l 208 24 q 186 0 208 0 l 92 0 q 68 24 68 0 l 68 193 q 92 215 68 215 l 186 215 q 208 193 208 215 z "},"/":{"ha":561,"x_min":60,"x_max":503,"o":"m 158 0 l 79 0 q 60 25 50 0 q 215 444 90 103 q 372 868 340 786 q 404 893 383 893 l 485 893 q 503 867 511 893 l 190 25 q 158 0 182 0 z "},":":{"ha":276,"x_min":68,"x_max":208,"o":"m 208 686 l 208 517 q 186 493 208 493 l 92 493 q 68 519 68 493 l 68 685 q 92 708 68 708 l 186 708 q 208 686 208 708 m 208 193 l 208 24 q 186 0 208 0 l 92 0 q 68 25 68 0 l 68 193 q 92 215 68 215 l 186 215 q 208 193 208 215 z "},";":{"ha":276,"x_min":68,"x_max":208,"o":"m 208 193 l 208 85 q 182 1 208 51 l 108 -133 q 88 -146 103 -146 q 68 -124 68 -146 l 68 193 q 92 215 68 215 l 186 215 q 208 193 208 215 m 208 686 l 208 517 q 186 493 208 493 l 92 493 q 68 519 68 493 l 68 685 q 92 708 68 708 l 186 708 q 208 686 208 708 z "},"<":{"ha":756,"x_min":94,"x_max":663,"o":"m 663 685 l 663 615 q 640 583 663 589 l 207 451 l 640 321 q 663 289 663 315 l 663 219 q 635 203 663 192 l 124 378 q 94 421 94 388 l 94 482 q 124 525 94 515 l 635 701 q 663 685 663 713 z "},"=":{"ha":769,"x_min":100,"x_max":668,"o":"m 126 633 l 643 633 q 668 607 668 633 l 668 550 q 643 524 668 524 l 126 524 q 106 529 111 524 q 100 550 100 535 l 100 607 q 106 628 100 622 q 126 633 111 633 m 126 369 l 643 369 q 668 343 668 369 l 668 286 q 643 258 668 258 l 126 258 q 100 286 100 258 l 100 343 q 126 369 100 369 z "},">":{"ha":769,"x_min":100,"x_max":668,"o":"m 100 615 l 100 685 q 128 701 100 713 l 639 525 q 668 482 668 515 l 668 421 q 639 378 668 388 l 128 203 q 100 219 100 192 l 100 289 q 122 321 100 315 l 554 451 l 122 583 q 100 615 100 589 z "},"?":{"ha":651,"x_min":71,"x_max":579,"o":"m 392 193 l 392 24 q 369 0 392 0 l 275 0 q 251 25 251 0 l 251 193 q 275 215 251 215 l 369 215 q 392 193 392 215 m 390 372 l 390 331 q 365 307 390 307 l 283 307 q 260 331 260 307 l 260 371 q 275 451 260 422 q 331 514 290 481 l 399 571 q 447 657 447 610 l 447 676 q 343 776 447 776 l 306 776 q 231 752 254 776 q 207 676 207 728 l 207 636 q 182 611 207 611 l 94 611 q 71 636 71 611 l 71 679 q 128 836 71 781 q 286 892 185 892 l 364 892 q 522 836 465 892 q 579 679 579 781 l 579 650 q 517 525 579 581 l 433 458 q 398 417 406 435 q 390 372 390 400 z "},"@":{"ha":1040,"x_min":93,"x_max":956,"o":"m 694 -81 l 444 -81 q 194 11 296 -81 q 93 256 93 103 l 93 496 q 190 741 93 644 q 428 838 286 838 l 707 838 q 886 772 817 838 q 956 604 956 707 l 956 300 q 903 167 956 218 q 769 115 851 115 l 704 115 q 650 131 672 115 q 628 176 628 147 l 628 192 l 622 192 q 481 117 589 117 q 344 171 396 117 q 292 324 292 225 l 292 424 q 346 582 292 525 q 490 639 400 639 l 715 639 q 739 615 739 639 l 739 214 q 763 199 739 199 l 764 199 q 872 310 872 199 l 872 597 q 824 714 872 672 q 699 756 775 756 l 435 756 q 247 684 318 756 q 175 489 175 613 l 175 268 q 250 73 175 144 q 443 1 325 1 l 694 1 q 718 -22 718 1 l 718 -57 q 694 -81 718 -81 m 628 336 l 628 519 q 613 535 628 535 l 511 535 q 411 432 411 535 l 411 321 q 511 219 411 219 l 514 219 q 628 336 628 219 z "},"A":{"ha":761,"x_min":36,"x_max":725,"o":"m 150 0 l 50 0 q 36 24 31 0 l 278 869 q 311 893 285 893 l 450 893 q 483 869 478 893 l 725 24 q 710 0 731 0 l 611 0 q 594 5 599 0 q 586 24 589 10 l 533 204 l 228 204 l 175 24 q 150 0 169 0 m 378 760 l 256 315 l 507 315 l 383 760 l 378 760 z "},"B":{"ha":767,"x_min":101,"x_max":682,"o":"m 251 115 l 446 115 q 550 215 550 115 l 550 301 q 440 401 550 401 l 251 401 q 236 388 236 401 l 236 129 q 251 115 236 115 m 251 513 l 432 513 q 538 614 538 513 l 538 678 q 435 778 538 778 l 251 778 q 236 764 236 778 l 236 526 q 251 513 236 513 m 101 24 l 101 869 q 125 893 101 893 l 454 893 q 614 838 557 893 q 671 681 671 782 l 671 613 q 557 457 671 492 q 647 410 611 450 q 682 301 682 369 l 682 213 q 625 56 682 111 q 467 0 568 0 l 125 0 q 101 24 101 0 z "},"C":{"ha":750,"x_min":88,"x_max":679,"o":"m 464 0 l 303 0 q 144 57 200 0 q 88 215 88 114 l 88 678 q 144 837 88 781 q 303 893 200 893 l 464 893 q 622 837 565 893 q 679 678 679 781 l 679 611 q 654 586 679 586 l 567 586 q 543 611 543 586 l 543 672 q 443 775 543 775 l 322 775 q 222 672 222 775 l 222 221 q 322 118 222 118 l 443 118 q 543 221 543 118 l 543 282 q 567 307 543 307 l 654 307 q 679 282 679 307 l 679 215 q 622 57 679 114 q 464 0 565 0 z "},"D":{"ha":771,"x_min":101,"x_max":683,"o":"m 251 118 l 447 118 q 547 221 547 118 l 547 672 q 447 775 547 775 l 251 775 q 236 761 236 775 l 236 133 q 251 118 236 118 m 101 24 l 101 869 q 125 893 101 893 l 467 893 q 626 837 568 893 q 683 678 683 781 l 683 215 q 626 57 683 114 q 467 0 568 0 l 125 0 q 101 24 101 0 z "},"E":{"ha":667,"x_min":101,"x_max":592,"o":"m 569 0 l 125 0 q 101 24 101 0 l 101 869 q 125 893 101 893 l 569 893 q 592 869 592 893 l 592 799 q 569 775 592 775 l 253 775 q 236 761 236 775 l 236 526 q 253 513 236 513 l 521 513 q 546 489 546 513 l 546 418 q 521 394 546 394 l 253 394 q 236 381 236 394 l 236 133 q 253 118 236 118 l 569 118 q 592 94 592 118 l 592 24 q 569 0 592 0 z "},"F":{"ha":631,"x_min":101,"x_max":585,"o":"m 213 0 l 125 0 q 101 24 101 0 l 101 869 q 125 893 101 893 l 561 893 q 585 869 585 893 l 585 799 q 561 775 585 775 l 253 775 q 236 761 236 775 l 236 499 q 253 483 236 483 l 521 483 q 546 460 546 483 l 546 390 q 521 365 546 365 l 253 365 q 236 351 236 365 l 236 24 q 213 0 236 0 z "},"G":{"ha":754,"x_min":88,"x_max":667,"o":"m 451 0 l 303 0 q 144 57 200 0 q 88 215 88 114 l 88 678 q 144 837 88 781 q 303 893 200 893 l 451 893 q 610 837 554 893 q 667 678 667 781 l 667 628 q 643 603 667 603 l 556 603 q 532 628 532 603 l 532 672 q 432 775 532 775 l 322 775 q 222 672 222 775 l 222 221 q 322 118 222 118 l 432 118 q 532 221 532 118 l 532 346 q 517 360 532 360 l 404 360 q 381 383 381 360 l 381 454 q 404 478 381 478 l 638 478 q 667 449 667 478 l 667 215 q 610 57 667 114 q 451 0 553 0 z "},"H":{"ha":797,"x_min":101,"x_max":696,"o":"m 213 0 l 125 0 q 101 24 101 0 l 101 869 q 125 893 101 893 l 213 893 q 236 869 236 893 l 236 522 q 253 508 236 508 l 546 508 q 560 522 560 508 l 560 869 q 583 893 560 893 l 672 893 q 696 869 696 893 l 696 24 q 672 0 696 0 l 583 0 q 560 24 560 0 l 560 375 q 546 389 560 389 l 253 389 q 236 375 236 389 l 236 24 q 213 0 236 0 z "},"I":{"ha":351,"x_min":108,"x_max":243,"o":"m 243 869 l 243 24 q 219 0 243 0 l 132 0 q 108 24 108 0 l 108 869 q 132 893 108 893 l 219 893 q 243 869 243 893 z "},"J":{"ha":713,"x_min":47,"x_max":618,"o":"m 507 893 l 594 893 q 618 871 618 893 l 618 215 q 561 57 618 114 q 403 0 504 0 l 264 0 q 104 57 161 0 q 47 215 47 114 l 47 340 q 72 364 47 364 l 160 364 q 183 340 183 364 l 183 221 q 283 118 183 118 l 382 118 q 482 221 482 118 l 482 869 q 507 893 482 893 z "},"K":{"ha":761,"x_min":101,"x_max":733,"o":"m 213 0 l 125 0 q 101 24 101 0 l 101 869 q 125 893 101 893 l 213 893 q 236 869 236 893 l 236 429 l 240 429 q 276 499 254 467 l 542 869 q 586 893 557 893 l 689 893 q 699 867 718 893 l 428 499 l 733 28 q 717 0 750 0 l 639 0 q 586 24 601 0 l 346 400 l 236 271 l 236 24 q 213 0 236 0 z "},"L":{"ha":625,"x_min":101,"x_max":599,"o":"m 575 0 l 125 0 q 101 24 101 0 l 101 869 q 125 893 101 893 l 213 893 q 236 869 236 893 l 236 135 q 253 121 236 121 l 575 121 q 599 96 599 121 l 599 24 q 575 0 599 0 z "},"M":{"ha":993,"x_min":101,"x_max":892,"o":"m 713 893 l 868 893 q 892 869 892 893 l 892 24 q 868 0 892 0 l 782 0 q 758 24 758 0 l 758 725 l 753 725 l 572 217 q 542 194 564 194 l 453 194 q 424 217 432 194 l 239 726 l 233 726 l 233 24 q 228 5 233 10 q 210 0 224 0 l 125 0 q 101 24 101 0 l 101 869 q 125 893 101 893 l 281 893 q 303 878 296 893 l 493 342 l 500 342 l 692 878 q 713 893 694 893 z "},"N":{"ha":810,"x_min":101,"x_max":708,"o":"m 211 0 l 125 0 q 101 24 101 0 l 101 869 q 125 893 101 893 l 203 893 q 233 878 225 893 l 569 274 l 575 274 l 575 869 q 599 893 575 893 l 685 893 q 708 869 708 893 l 708 24 q 685 0 708 0 l 610 0 q 574 22 588 0 l 240 619 l 235 619 l 235 24 q 211 0 235 0 z "},"O":{"ha":767,"x_min":88,"x_max":681,"o":"m 322 118 l 443 118 q 544 221 544 118 l 544 672 q 443 775 544 775 l 322 775 q 222 672 222 775 l 222 221 q 322 118 222 118 m 464 0 l 303 0 q 144 57 200 0 q 88 215 88 114 l 88 678 q 144 837 88 781 q 303 893 200 893 l 464 893 q 624 837 567 893 q 681 678 681 781 l 681 215 q 624 57 681 114 q 464 0 567 0 z "},"P":{"ha":733,"x_min":101,"x_max":671,"o":"m 213 0 l 125 0 q 101 24 101 0 l 101 869 q 125 893 101 893 l 456 893 q 614 837 557 893 q 671 678 671 781 l 671 533 q 614 375 671 432 q 456 318 557 318 l 253 318 q 236 304 236 318 l 236 24 q 213 0 236 0 m 251 438 l 436 438 q 535 540 535 438 l 535 672 q 436 775 535 775 l 251 775 q 236 761 236 775 l 236 451 q 251 438 236 438 z "},"Q":{"ha":783,"x_min":94,"x_max":688,"o":"m 332 118 l 453 118 q 553 221 553 118 l 553 672 q 453 775 553 775 l 332 775 q 232 672 232 775 l 232 221 q 332 118 232 118 m 592 -185 l 514 -185 q 469 -161 483 -185 l 375 0 l 311 0 q 151 57 208 0 q 94 215 94 114 l 94 678 q 151 837 94 781 q 311 893 208 893 l 472 893 q 631 837 575 893 q 688 678 688 781 l 688 215 q 642 70 688 125 q 515 4 597 15 l 608 -156 q 610 -177 615 -169 q 592 -185 604 -185 z "},"R":{"ha":753,"x_min":101,"x_max":689,"o":"m 213 0 l 125 0 q 101 24 101 0 l 101 869 q 125 893 101 893 l 450 893 q 609 835 551 893 q 667 676 667 778 l 667 560 q 535 358 667 400 l 535 353 l 689 28 q 671 0 704 0 l 585 0 q 542 24 551 0 l 393 343 l 253 343 q 236 329 236 343 l 236 24 q 213 0 236 0 m 251 454 l 428 454 q 531 556 531 454 l 531 672 q 428 775 531 775 l 251 775 q 236 761 236 775 l 236 468 q 251 454 236 454 z "},"S":{"ha":761,"x_min":85,"x_max":675,"o":"m 85 217 l 85 253 q 108 276 85 276 l 197 276 q 221 253 221 276 l 221 228 q 247 144 221 169 q 332 118 272 118 l 428 118 q 514 145 488 118 q 540 233 540 172 l 540 265 q 506 335 540 310 q 422 369 472 361 q 313 390 372 376 q 203 422 253 404 q 119 490 153 440 q 85 618 85 540 l 85 676 q 142 835 85 778 q 301 893 200 893 l 449 893 q 609 835 551 893 q 667 676 667 778 l 667 646 q 643 622 667 622 l 554 622 q 531 646 531 622 l 531 664 q 505 749 531 724 q 419 775 479 775 l 332 775 q 247 748 272 775 q 221 656 221 721 l 221 613 q 311 528 221 550 q 399 511 351 518 q 496 490 447 504 q 585 453 544 476 q 650 384 625 431 q 675 271 675 338 l 675 217 q 617 58 675 115 q 458 0 560 0 l 303 0 q 143 58 201 0 q 85 217 85 115 z "},"T":{"ha":603,"x_min":19,"x_max":585,"o":"m 346 0 l 258 0 q 233 24 233 0 l 233 761 q 219 775 233 775 l 44 775 q 19 799 19 775 l 19 869 q 44 893 19 893 l 560 893 q 585 869 585 893 l 585 799 q 560 775 585 775 l 385 775 q 369 761 369 775 l 369 24 q 346 0 369 0 z "},"U":{"ha":774,"x_min":94,"x_max":681,"o":"m 568 893 l 656 893 q 681 871 681 893 l 681 215 q 623 57 681 114 q 464 0 565 0 l 310 0 q 151 57 208 0 q 94 215 94 114 l 94 869 q 118 893 94 893 l 206 893 q 229 869 229 893 l 229 221 q 329 118 229 118 l 443 118 q 544 221 544 118 l 544 869 q 568 893 544 893 z "},"V":{"ha":713,"x_min":29,"x_max":685,"o":"m 426 0 l 289 0 q 260 24 265 0 l 29 867 q 50 893 21 893 l 149 893 q 175 869 171 893 l 354 144 l 360 144 l 538 869 q 565 893 543 893 l 663 893 q 685 867 692 893 l 453 24 q 426 0 447 0 z "},"W":{"ha":1114,"x_min":29,"x_max":1085,"o":"m 371 0 l 224 0 q 194 24 199 0 l 29 869 q 53 893 26 893 l 160 893 q 188 869 186 893 l 300 142 l 308 142 l 472 872 q 497 893 475 893 l 614 893 q 640 872 636 893 l 806 142 l 814 142 l 926 868 q 954 893 928 893 l 1061 893 q 1085 868 1089 893 l 919 24 q 892 0 915 0 l 744 0 q 717 24 721 0 l 560 726 l 554 726 l 397 24 q 371 0 393 0 z "},"X":{"ha":731,"x_min":39,"x_max":692,"o":"m 158 0 l 56 0 q 40 7 44 0 q 40 25 35 14 l 269 463 l 50 868 q 49 885 44 878 q 65 893 54 893 l 164 893 q 203 869 192 893 l 363 547 l 368 547 l 528 869 q 564 893 540 893 l 667 893 q 683 885 678 893 q 683 867 688 876 l 461 463 l 690 26 q 692 8 696 15 q 675 0 688 0 l 571 0 q 539 22 549 0 l 368 361 l 363 361 l 192 22 q 158 0 182 0 z "},"Y":{"ha":706,"x_min":25,"x_max":682,"o":"m 397 0 l 308 0 q 285 24 285 0 l 285 331 l 25 868 q 25 886 19 879 q 40 893 31 893 l 151 893 q 179 869 169 893 l 350 488 l 358 488 l 526 869 q 554 893 535 893 l 665 893 q 681 886 676 893 q 681 868 686 879 l 421 331 l 421 24 q 397 0 421 0 z "},"Z":{"ha":703,"x_min":64,"x_max":639,"o":"m 64 24 l 64 89 q 76 140 64 125 l 478 761 l 478 767 l 110 767 q 85 790 85 767 l 85 869 q 110 893 85 893 l 601 893 q 625 869 625 893 l 625 778 q 610 724 625 747 l 224 132 l 224 126 l 615 126 q 639 104 639 126 l 639 26 q 615 0 639 0 l 88 0 q 64 24 64 0 z "},"[":{"ha":429,"x_min":100,"x_max":340,"o":"m 317 -137 l 122 -137 q 100 -112 100 -137 l 100 869 q 122 893 100 893 l 317 893 q 340 869 340 893 l 340 822 q 317 799 340 799 l 226 799 q 211 783 211 799 l 211 -29 q 226 -43 211 -43 l 317 -43 q 340 -67 340 -43 l 340 -114 q 317 -137 340 -137 z "},"\\":{"ha":561,"x_min":60,"x_max":503,"o":"m 76 893 l 158 893 q 190 868 181 893 q 347 444 222 786 q 503 25 472 103 q 483 0 513 0 l 404 0 q 372 25 381 0 l 60 867 q 76 893 50 893 z "},"]":{"ha":429,"x_min":83,"x_max":324,"o":"m 83 -114 l 83 -67 q 107 -43 83 -43 l 197 -43 q 213 -29 213 -43 l 213 783 q 197 799 213 799 l 107 799 q 83 822 83 799 l 83 869 q 107 893 83 893 l 301 893 q 324 869 324 893 l 324 -112 q 301 -137 324 -137 l 107 -137 q 83 -114 83 -137 z "},"^":{"ha":686,"x_min":71,"x_max":614,"o":"m 167 504 l 88 504 q 71 529 57 504 l 243 858 q 264 886 254 879 q 294 893 274 893 l 390 893 q 421 886 411 893 q 442 858 431 879 l 614 529 q 597 504 628 504 l 518 504 q 486 528 497 504 l 342 807 l 199 528 q 167 504 186 504 z "},"_":{"ha":517,"x_min":0,"x_max":517,"o":"m 493 -149 l 24 -149 q 0 -124 0 -149 l 0 -94 q 24 -71 0 -71 l 493 -71 q 517 -94 517 -71 l 517 -124 q 493 -149 517 -149 z "},"`":{"ha":399,"x_min":82,"x_max":313,"o":"m 303 797 l 236 797 q 204 814 217 797 l 86 953 q 83 970 79 964 q 97 976 86 976 l 207 976 q 242 954 231 976 l 313 821 q 303 797 326 797 z "},"a":{"ha":711,"x_min":74,"x_max":625,"o":"m 343 0 l 289 0 q 130 57 186 0 q 74 215 74 114 l 74 493 q 130 652 74 596 q 289 708 186 708 l 600 708 q 625 685 625 708 l 625 24 q 600 0 625 0 l 513 0 q 489 24 489 0 l 489 74 l 483 74 q 343 0 450 0 m 489 236 l 489 576 q 474 590 489 590 l 308 590 q 208 488 208 590 l 208 221 q 308 118 208 118 l 375 118 q 489 236 489 118 z "},"b":{"ha":719,"x_min":88,"x_max":646,"o":"m 238 118 l 410 118 q 510 221 510 118 l 510 493 q 410 596 510 596 l 336 596 q 222 479 222 596 l 222 133 q 238 118 222 118 m 88 24 l 88 953 q 111 976 88 976 l 199 976 q 222 953 222 976 l 222 639 l 228 639 q 368 714 263 714 l 429 714 q 589 658 532 714 q 646 500 646 601 l 646 215 q 589 57 646 114 q 429 0 532 0 l 111 0 q 88 24 88 0 z "},"c":{"ha":563,"x_min":74,"x_max":518,"o":"m 518 94 l 518 22 q 493 0 518 0 l 289 0 q 130 57 186 0 q 74 215 74 114 l 74 493 q 130 652 74 596 q 289 708 186 708 l 493 708 q 518 685 518 708 l 518 613 q 493 590 518 590 l 308 590 q 208 488 208 590 l 208 221 q 308 118 208 118 l 493 118 q 518 94 518 118 z "},"d":{"ha":719,"x_min":74,"x_max":632,"o":"m 351 0 l 281 0 q 127 56 181 0 q 74 215 74 113 l 74 493 q 127 653 74 597 q 281 708 181 708 l 351 708 q 490 635 458 708 l 496 635 l 496 953 q 519 976 496 976 l 608 976 q 632 953 632 976 l 632 24 q 608 0 632 0 l 519 0 q 496 24 496 0 l 496 74 l 490 74 q 351 0 458 0 m 496 236 l 496 472 q 382 590 496 590 l 308 590 q 208 488 208 590 l 208 221 q 308 118 208 118 l 382 118 q 496 236 496 118 z "},"e":{"ha":685,"x_min":74,"x_max":619,"o":"m 589 0 l 289 0 q 130 57 186 0 q 74 215 74 114 l 74 493 q 130 652 74 596 q 289 708 186 708 l 403 708 q 563 652 506 708 q 619 493 619 596 l 619 317 q 594 292 619 292 l 222 292 q 207 278 207 292 l 207 218 q 308 117 207 117 l 589 117 q 614 92 614 117 l 614 22 q 589 0 614 0 m 222 386 l 471 386 q 485 400 485 386 l 485 489 q 461 566 485 542 q 385 590 438 590 l 308 590 q 232 566 256 590 q 208 489 208 542 l 208 400 q 222 386 208 386 z "},"f":{"ha":465,"x_min":39,"x_max":443,"o":"m 301 708 l 418 708 q 443 686 443 708 l 443 614 q 418 590 443 590 l 301 590 q 288 576 288 590 l 288 24 q 263 0 288 0 l 175 0 q 151 24 151 0 l 151 576 q 136 590 151 590 l 63 590 q 39 614 39 590 l 39 686 q 44 703 39 699 q 63 708 49 708 l 136 708 q 151 722 151 708 l 151 763 q 204 921 151 865 q 358 976 257 976 l 419 976 q 443 954 443 976 l 443 882 q 419 858 443 858 l 378 858 q 308 834 328 858 q 288 756 288 810 l 288 722 q 301 708 288 708 z "},"g":{"ha":714,"x_min":76,"x_max":628,"o":"m 346 35 l 283 35 q 130 91 183 35 q 76 250 76 147 l 76 493 q 133 652 76 596 q 292 708 190 708 l 603 708 q 628 685 628 708 l 628 -3 q 570 -160 628 -104 q 411 -217 513 -217 l 150 -217 q 126 -194 126 -217 l 126 -122 q 150 -99 126 -99 l 390 -99 q 492 4 492 -99 l 492 110 l 486 110 q 346 35 451 35 m 492 271 l 492 576 q 476 590 492 590 l 311 590 q 213 488 213 590 l 213 257 q 311 154 213 154 l 378 154 q 492 271 492 154 z "},"h":{"ha":718,"x_min":88,"x_max":639,"o":"m 199 0 l 111 0 q 88 24 88 0 l 88 953 q 111 976 88 976 l 199 976 q 222 953 222 976 l 222 635 l 228 635 q 368 708 261 708 l 429 708 q 585 653 531 708 q 639 493 639 597 l 639 24 q 614 0 639 0 l 526 0 q 503 24 503 0 l 503 488 q 401 590 503 590 l 336 590 q 222 472 222 590 l 222 24 q 199 0 222 0 z "},"i":{"ha":324,"x_min":94,"x_max":229,"o":"m 94 826 l 94 953 q 117 975 94 975 l 207 975 q 229 953 229 975 l 229 826 q 207 803 229 803 l 117 803 q 94 826 94 803 m 94 24 l 94 685 q 117 708 94 708 l 206 708 q 229 685 229 708 l 229 24 q 224 5 229 10 q 207 0 219 0 l 118 0 q 94 24 94 0 z "},"j":{"ha":324,"x_min":-85,"x_max":229,"o":"m 94 826 l 94 953 q 117 975 94 975 l 207 975 q 229 953 229 975 l 229 826 q 207 803 229 803 l 117 803 q 94 826 94 803 m 13 -217 l -61 -217 q -85 -193 -85 -217 l -85 -122 q -61 -99 -85 -99 l -25 -99 q 67 -71 40 -99 q 94 22 94 -43 l 94 685 q 118 708 94 708 l 206 708 q 229 685 229 708 l 229 -1 q 172 -160 229 -103 q 13 -217 114 -217 z "},"k":{"ha":633,"x_min":88,"x_max":622,"o":"m 490 708 l 590 708 q 608 701 603 708 q 604 681 613 693 l 408 369 l 408 364 l 619 28 q 622 8 626 17 q 601 0 617 0 l 511 0 q 464 24 479 0 l 268 344 q 268 382 258 363 l 450 686 q 490 708 463 708 m 199 0 l 111 0 q 88 24 88 0 l 88 953 q 111 976 88 976 l 199 976 q 222 953 222 976 l 222 24 q 199 0 222 0 z "},"l":{"ha":324,"x_min":94,"x_max":229,"o":"m 206 0 l 118 0 q 94 24 94 0 l 94 953 q 118 976 94 976 l 206 976 q 229 953 229 976 l 229 24 q 206 0 229 0 z "},"m":{"ha":1093,"x_min":88,"x_max":1013,"o":"m 199 0 l 111 0 q 88 24 88 0 l 88 685 q 111 708 88 708 l 199 708 q 222 685 222 708 l 222 635 l 228 635 q 375 708 268 708 l 421 708 q 593 617 542 708 q 661 685 615 661 q 760 708 707 708 l 804 708 q 959 652 906 708 q 1013 493 1013 596 l 1013 24 q 989 0 1013 0 l 900 0 q 876 24 876 0 l 876 488 q 776 590 876 590 l 736 590 q 621 469 621 590 l 621 24 q 596 0 621 0 l 508 0 q 485 24 485 0 l 485 488 q 385 590 485 590 l 336 590 q 222 472 222 590 l 222 24 q 199 0 222 0 z "},"n":{"ha":718,"x_min":88,"x_max":639,"o":"m 199 0 l 111 0 q 88 24 88 0 l 88 685 q 111 708 88 708 l 199 708 q 222 685 222 708 l 222 635 l 228 635 q 368 708 261 708 l 429 708 q 585 653 531 708 q 639 493 639 597 l 639 24 q 614 0 639 0 l 526 0 q 503 24 503 0 l 503 488 q 401 590 503 590 l 336 590 q 222 472 222 590 l 222 24 q 199 0 222 0 z "},"o":{"ha":700,"x_min":74,"x_max":628,"o":"m 411 0 l 289 0 q 130 57 186 0 q 74 215 74 114 l 74 493 q 130 652 74 596 q 289 708 186 708 l 411 708 q 570 652 513 708 q 628 493 628 596 l 628 215 q 570 57 628 114 q 411 0 513 0 m 308 118 l 393 118 q 493 219 493 118 l 493 489 q 393 590 493 590 l 308 590 q 232 566 256 590 q 208 489 208 542 l 208 219 q 232 142 208 167 q 308 118 256 118 z "},"p":{"ha":719,"x_min":88,"x_max":646,"o":"m 199 -196 l 111 -196 q 88 -172 88 -196 l 88 685 q 111 708 88 708 l 199 708 q 222 685 222 708 l 222 635 l 228 635 q 368 708 261 708 l 439 708 q 592 653 539 708 q 646 493 646 597 l 646 215 q 592 56 646 113 q 439 0 539 0 l 368 0 q 228 74 261 0 l 222 74 l 222 -172 q 199 -196 222 -196 m 336 118 l 410 118 q 510 221 510 118 l 510 488 q 410 590 510 590 l 336 590 q 222 472 222 590 l 222 236 q 336 118 222 118 z "},"q":{"ha":711,"x_min":74,"x_max":625,"o":"m 489 239 l 489 576 q 474 590 489 590 l 308 590 q 208 488 208 590 l 208 221 q 308 118 208 118 l 372 118 q 489 239 489 118 m 340 0 l 289 0 q 130 57 186 0 q 74 215 74 114 l 74 493 q 130 652 74 596 q 289 708 186 708 l 600 708 q 625 685 625 708 l 625 -172 q 600 -196 625 -196 l 513 -196 q 489 -172 489 -196 l 489 76 l 483 76 q 340 0 446 0 z "},"r":{"ha":465,"x_min":88,"x_max":444,"o":"m 199 0 l 111 0 q 88 24 88 0 l 88 685 q 111 708 88 708 l 199 708 q 222 685 222 708 l 222 632 l 228 632 q 281 688 242 667 q 369 708 321 708 l 421 708 q 444 685 444 708 l 444 613 q 421 590 444 586 l 338 590 q 222 464 222 590 l 222 24 q 199 0 222 0 z "},"s":{"ha":604,"x_min":57,"x_max":547,"o":"m 340 0 l 85 0 q 61 24 61 0 l 61 92 q 85 114 61 114 l 318 114 q 408 176 408 114 l 408 193 q 343 278 408 249 l 192 350 q 89 424 121 383 q 57 529 57 464 q 256 708 57 708 l 486 708 q 508 685 508 708 l 508 617 q 486 593 508 593 l 283 593 q 219 578 242 593 q 197 540 197 564 l 197 525 q 268 447 197 481 l 421 369 q 520 294 493 338 q 547 181 547 250 q 340 0 547 0 z "},"t":{"ha":488,"x_min":18,"x_max":442,"o":"m 108 590 l 42 590 q 23 595 28 590 q 18 613 18 600 l 18 685 q 42 708 18 708 l 108 708 q 122 722 122 708 l 122 847 q 147 871 122 871 l 235 871 q 258 847 258 871 l 258 722 q 274 708 258 708 l 403 708 q 428 685 428 708 l 428 613 q 403 590 428 590 l 274 590 q 258 576 258 590 l 258 219 q 363 118 258 118 l 417 118 q 442 94 442 118 l 442 22 q 417 0 442 0 l 342 0 q 181 56 239 0 q 122 213 122 111 l 122 576 q 108 590 122 590 z "},"u":{"ha":718,"x_min":81,"x_max":632,"o":"m 350 0 l 288 0 q 134 56 188 0 q 81 215 81 113 l 81 685 q 104 708 81 708 l 192 708 q 215 685 215 708 l 215 221 q 315 118 215 118 l 382 118 q 496 236 496 118 l 496 685 q 519 708 496 708 l 607 708 q 632 685 632 708 l 632 24 q 607 0 632 0 l 519 0 q 496 24 496 0 l 496 74 l 490 74 q 350 0 457 0 z "},"v":{"ha":622,"x_min":26,"x_max":596,"o":"m 43 708 l 136 708 q 163 685 158 708 l 307 126 l 317 126 l 458 685 q 488 708 464 708 l 579 708 q 596 685 604 708 l 408 25 q 378 0 403 0 l 244 0 q 214 25 219 0 l 26 685 q 43 708 21 708 z "},"w":{"ha":960,"x_min":29,"x_max":929,"o":"m 336 0 l 217 0 q 189 24 196 0 l 29 685 q 46 708 24 708 l 146 708 q 174 685 171 708 l 275 160 l 285 160 l 407 685 q 433 708 411 708 l 525 708 q 554 685 549 708 l 674 160 l 683 160 l 785 685 q 813 708 789 708 l 913 708 q 929 685 936 708 l 769 24 q 742 0 765 0 l 622 0 q 594 24 600 0 l 483 539 l 474 539 l 364 24 q 336 0 360 0 z "},"x":{"ha":615,"x_min":33,"x_max":585,"o":"m 154 0 l 49 0 q 33 24 18 0 l 218 361 l 38 685 q 50 708 22 708 l 157 708 q 193 685 183 708 l 306 446 l 311 446 l 417 685 q 451 708 426 708 l 557 708 q 571 685 586 708 l 396 363 l 585 24 q 572 0 599 0 l 463 0 q 429 24 439 0 l 311 269 l 306 269 l 189 24 q 154 0 179 0 z "},"y":{"ha":649,"x_min":32,"x_max":618,"o":"m 171 -225 l 97 -225 q 74 -201 74 -225 l 74 -131 q 97 -106 74 -106 l 129 -106 q 247 -72 214 -106 q 301 38 279 -39 l 246 38 q 217 61 225 38 l 32 685 q 50 708 26 708 l 143 708 q 171 685 165 708 l 322 140 l 328 140 l 479 685 q 507 708 483 708 l 596 708 q 618 683 622 708 l 428 15 q 338 -163 396 -101 q 171 -225 279 -225 z "},"z":{"ha":600,"x_min":44,"x_max":557,"o":"m 44 24 l 44 60 q 64 119 44 94 l 385 585 l 385 590 l 81 590 q 56 615 56 590 l 56 685 q 81 708 56 708 l 519 708 q 543 685 543 708 l 543 621 q 526 568 543 588 l 222 124 l 222 118 l 532 118 q 557 93 557 118 l 557 24 q 532 0 557 0 l 69 0 q 44 24 44 0 z "},"{":{"ha":428,"x_min":39,"x_max":353,"o":"m 321 893 l 329 893 q 353 869 353 893 l 353 818 q 329 794 353 794 l 325 794 q 260 770 279 794 q 242 692 242 746 l 242 511 q 160 375 242 401 q 242 240 242 351 l 242 60 q 260 -19 242 6 q 325 -43 279 -43 l 329 -43 q 353 -67 353 -43 l 353 -118 q 329 -142 353 -142 l 321 -142 q 132 74 132 -142 l 132 231 q 64 315 132 315 q 39 340 39 315 l 39 411 q 64 435 39 435 q 132 521 132 435 l 132 678 q 321 893 132 893 z "},"|":{"ha":308,"x_min":107,"x_max":203,"o":"m 203 869 l 203 24 q 178 0 203 0 l 131 0 q 107 24 107 0 l 107 869 q 131 893 107 893 l 178 893 q 203 869 203 893 z "},"}":{"ha":428,"x_min":39,"x_max":353,"o":"m 261 678 l 261 521 q 329 435 261 435 q 353 411 353 435 l 353 340 q 324 315 353 315 q 261 231 261 315 l 261 74 q 72 -142 261 -142 l 64 -142 q 39 -118 39 -142 l 39 -67 q 64 -43 39 -43 l 68 -43 q 132 -19 114 -43 q 150 60 150 6 l 150 240 q 232 375 150 351 q 150 511 150 403 l 150 692 q 132 770 150 746 q 68 794 114 794 l 64 794 q 39 818 39 794 l 39 869 q 64 893 39 893 l 72 893 q 261 678 261 893 z "},"~":{"ha":763,"x_min":97,"x_max":665,"o":"m 527 374 q 499 374 527 374 q 376 395 471 374 q 243 417 282 417 q 162 398 204 417 q 114 379 119 379 q 97 397 97 379 l 97 457 q 131 500 97 485 q 237 521 185 521 q 380 499 289 521 q 515 478 471 478 q 601 497 558 478 q 649 515 644 515 q 665 499 665 515 l 665 438 q 632 394 665 410 q 527 374 583 374 z "}," ":{"ha":331,"x_min":0,"x_max":0,"o":""},"¡":{"ha":331,"x_min":90,"x_max":239,"o":"m 213 678 l 119 678 q 97 701 97 678 l 97 868 q 119 893 97 893 l 213 893 q 235 869 235 893 l 235 700 q 213 678 235 678 m 136 588 l 193 588 q 218 563 214 588 q 239 210 239 354 l 239 24 q 215 0 239 0 l 114 0 q 90 24 90 0 l 90 210 q 111 563 90 354 q 136 588 115 588 z "},"¢":{"ha":589,"x_min":74,"x_max":536,"o":"m 390 -129 l 324 -129 q 300 -106 300 -129 l 300 0 l 276 0 q 127 58 181 0 q 74 215 74 115 l 74 493 q 127 651 74 593 q 276 708 181 708 l 300 708 l 300 822 q 324 846 300 846 l 390 846 q 413 824 413 846 l 413 708 l 496 708 q 523 702 510 708 q 536 685 536 696 l 536 613 q 511 590 536 590 l 308 590 q 208 488 208 590 l 208 221 q 308 118 208 118 l 511 118 q 536 96 536 118 l 536 24 q 511 0 536 0 l 413 0 l 413 -107 q 390 -129 413 -129 z "},"£":{"ha":758,"x_min":39,"x_max":668,"o":"m 214 113 l 644 113 q 668 88 668 113 l 668 24 q 644 0 668 0 l 64 0 q 39 24 39 0 l 39 88 q 64 113 39 113 l 75 113 q 119 138 101 113 q 136 204 136 163 l 136 358 l 64 358 q 39 383 39 358 l 39 447 q 64 471 39 471 l 136 471 l 136 681 q 194 838 136 782 q 353 893 251 893 l 443 893 q 601 838 544 893 q 658 681 658 782 l 658 644 q 635 619 658 619 l 547 619 q 522 644 522 619 l 522 678 q 499 754 522 731 q 422 778 475 778 l 372 778 q 269 678 269 778 l 269 471 l 450 471 q 474 447 474 471 l 474 383 q 450 358 474 358 l 269 358 l 269 221 q 252 147 269 175 q 214 118 235 118 l 214 113 z "},"¥":{"ha":731,"x_min":36,"x_max":694,"o":"m 410 0 l 321 0 q 297 24 297 0 l 297 222 l 85 222 q 58 247 58 222 l 58 289 q 85 317 58 317 l 293 317 l 293 340 l 251 426 l 85 426 q 58 451 58 426 l 58 493 q 85 521 58 521 l 207 521 l 36 869 q 51 893 26 893 l 164 893 q 179 889 175 893 q 363 474 182 885 l 368 474 l 542 869 q 552 888 547 883 q 568 893 557 893 l 679 893 q 694 869 704 893 l 525 521 l 644 521 q 671 493 671 521 l 671 451 q 665 432 671 438 q 644 426 660 426 l 479 426 l 438 340 l 438 317 l 644 317 q 671 289 671 317 l 671 247 q 665 228 671 233 q 644 222 660 222 l 433 222 l 433 24 q 410 0 433 0 z "},"¦":{"ha":304,"x_min":103,"x_max":201,"o":"m 201 869 l 201 542 q 176 518 201 518 l 128 518 q 103 542 103 518 l 103 869 q 128 893 103 893 l 176 893 q 201 869 201 893 m 201 351 l 201 24 q 176 0 201 0 l 128 0 q 103 24 103 0 l 103 351 q 128 376 103 376 l 176 376 q 201 351 201 376 z "},"§":{"ha":661,"x_min":83,"x_max":578,"o":"m 451 419 q 375 500 451 482 l 288 519 q 210 549 239 532 l 210 479 q 288 393 210 410 l 372 375 q 451 347 417 367 l 451 419 m 363 0 l 126 0 q 101 24 101 0 l 101 96 q 126 118 101 118 l 353 118 q 423 138 404 118 q 442 191 442 157 q 421 241 442 225 q 349 268 400 257 l 218 294 q 83 471 83 325 l 83 711 q 135 844 83 796 q 292 893 186 893 l 519 893 q 542 869 542 893 l 542 797 q 519 775 542 775 l 296 775 q 219 704 219 775 q 239 656 219 674 q 313 626 258 638 l 442 600 q 578 428 578 569 l 578 189 q 525 50 578 100 q 363 0 472 0 z "},"¨":{"ha":540,"x_min":81,"x_max":458,"o":"m 81 821 l 81 953 q 104 976 81 976 l 186 976 q 208 954 208 976 l 208 821 q 186 797 208 797 l 104 797 q 81 821 81 797 m 331 821 l 331 953 q 353 976 331 976 l 436 976 q 458 954 458 976 l 458 821 q 436 797 458 797 l 353 797 q 331 821 331 797 z "},"©":{"ha":988,"x_min":93,"x_max":896,"o":"m 683 560 l 683 525 q 667 508 683 508 l 610 508 q 593 525 593 508 l 593 546 q 575 615 593 599 q 501 631 557 631 l 488 631 q 415 615 432 631 q 399 546 399 599 l 399 347 q 415 276 399 292 q 488 260 432 260 l 501 260 q 576 276 558 260 q 593 347 593 292 l 593 369 q 610 388 593 388 l 667 388 q 683 369 683 388 l 683 332 q 525 181 683 181 l 465 181 q 348 219 389 181 q 307 332 307 257 l 307 560 q 465 711 307 711 l 525 711 q 683 560 683 711 m 296 83 l 692 83 q 804 193 804 83 l 804 700 q 692 810 804 810 l 296 810 q 183 700 183 810 l 183 193 q 296 83 183 83 m 271 893 l 717 893 q 848 846 800 893 q 896 715 896 799 l 896 178 q 848 47 896 94 q 717 0 800 0 l 271 0 q 141 47 189 0 q 93 178 93 94 l 93 715 q 141 846 93 799 q 271 893 189 893 z "},"«":{"ha":618,"x_min":74,"x_max":546,"o":"m 546 193 l 546 132 q 538 115 546 119 q 521 121 531 111 l 321 290 q 297 333 297 308 l 297 379 q 321 421 297 406 l 521 590 q 538 596 531 600 q 546 579 546 592 l 546 519 q 524 485 546 500 l 372 356 l 524 228 q 546 193 546 211 m 321 193 l 321 132 q 314 116 321 119 q 296 121 307 113 l 96 290 q 74 333 74 307 l 74 379 q 96 421 74 404 l 296 590 q 314 595 307 599 q 321 579 321 592 l 321 519 q 300 485 321 499 l 149 356 l 300 228 q 321 193 321 211 z "},"®":{"ha":642,"x_min":89,"x_max":551,"o":"m 339 847 l 290 847 l 290 771 l 339 771 q 358 790 358 771 l 358 829 q 339 847 358 847 m 238 653 l 238 874 q 242 891 238 886 q 260 896 246 896 l 343 896 q 413 832 413 896 l 413 786 q 382 729 413 742 l 414 660 q 400 632 428 632 l 386 632 q 364 647 371 632 l 328 726 l 290 726 l 290 653 q 286 636 290 640 q 269 632 282 632 l 260 632 q 242 636 246 632 q 238 653 238 640 m 240 585 l 400 585 q 492 676 492 585 l 492 850 q 400 942 492 942 l 240 942 q 150 850 150 942 l 150 676 q 240 585 150 585 m 413 528 l 229 528 q 127 565 165 528 q 89 664 89 601 l 89 863 q 126 961 89 925 q 229 997 164 997 l 413 997 q 514 961 476 997 q 551 863 551 925 l 551 664 q 514 565 551 601 q 413 528 476 528 z "},"¯":{"ha":486,"x_min":81,"x_max":406,"o":"m 382 840 l 106 840 q 81 864 81 840 l 81 911 q 106 935 81 935 l 382 935 q 406 911 406 935 l 406 864 q 382 840 406 840 z "},"°":{"ha":483,"x_min":135,"x_max":349,"o":"m 279 708 l 203 708 q 135 776 135 708 l 135 911 q 203 976 135 976 l 279 976 q 330 959 311 976 q 349 911 349 942 l 349 776 q 330 726 349 744 q 279 708 311 708 m 250 765 q 279 772 272 765 q 286 800 286 779 l 286 885 q 279 914 286 907 q 250 921 272 921 l 232 921 q 203 914 210 921 q 196 885 196 907 l 196 800 q 203 772 196 779 q 232 765 210 765 l 250 765 z "},"±":{"ha":763,"x_min":97,"x_max":665,"o":"m 440 588 l 639 588 q 665 561 665 588 l 665 504 q 639 478 665 478 l 440 478 l 440 360 q 413 333 440 333 l 350 333 q 324 360 324 333 l 324 478 l 124 478 q 97 504 97 478 l 97 561 q 124 588 97 588 l 324 588 l 324 703 q 350 731 324 731 l 413 731 q 440 703 440 731 l 440 588 m 124 271 l 639 271 q 665 246 665 271 l 665 188 q 639 161 665 161 l 124 161 q 97 188 97 161 l 97 246 q 124 271 97 271 z "},"´":{"ha":399,"x_min":86,"x_max":318,"o":"m 193 976 l 301 976 q 317 970 314 976 q 313 953 321 964 l 194 814 q 163 797 182 797 l 97 797 q 86 821 75 797 l 157 954 q 193 976 168 976 z "},"¶":{"ha":740,"x_min":69,"x_max":632,"o":"m 331 0 l 265 0 q 242 24 242 0 l 242 444 q 118 487 167 444 q 69 614 69 529 l 69 722 q 124 852 69 811 q 263 893 178 893 l 607 893 q 632 871 632 893 l 632 24 q 608 0 632 0 l 543 0 q 519 24 519 0 l 519 775 q 504 789 519 789 l 369 789 q 354 775 354 789 l 354 24 q 331 0 354 0 z "},"·":{"ha":288,"x_min":74,"x_max":214,"o":"m 214 526 l 214 358 q 192 333 214 333 l 96 333 q 74 358 74 333 l 74 526 q 96 549 74 549 l 192 549 q 214 526 214 549 z "},"¸":{"ha":364,"x_min":83,"x_max":283,"o":"m 178 -58 q 283 -156 283 -58 l 283 -176 q 158 -268 283 -268 l 107 -268 q 90 -264 93 -268 q 86 -247 86 -260 l 86 -224 q 90 -207 86 -211 q 107 -203 93 -203 l 146 -203 q 199 -194 185 -203 q 213 -165 213 -186 l 213 -162 q 199 -133 213 -140 q 146 -125 185 -125 l 118 -125 q 84 -101 93 -125 q 93 -57 75 -76 l 167 28 l 257 28 l 178 -53 l 178 -58 z "},"»":{"ha":618,"x_min":74,"x_max":546,"o":"m 297 519 l 297 579 q 304 595 297 592 q 321 590 311 599 l 522 421 q 546 379 546 404 l 546 333 q 522 290 546 308 l 321 121 q 304 116 311 113 q 297 132 297 119 l 297 193 q 318 228 297 211 l 469 356 l 318 485 q 297 519 297 499 m 74 519 l 74 579 q 80 595 74 592 q 97 590 86 599 l 299 421 q 321 379 321 404 l 321 333 q 299 290 321 307 l 97 121 q 80 116 86 113 q 74 132 74 119 l 74 193 q 93 228 74 211 l 246 356 l 93 485 q 74 519 74 499 z "},"¿":{"ha":651,"x_min":71,"x_max":579,"o":"m 260 699 l 260 868 q 282 892 260 892 l 378 892 q 399 867 399 892 l 399 700 q 378 676 399 676 l 282 676 q 260 699 260 676 m 261 519 l 261 561 q 285 586 261 586 l 367 586 q 390 561 390 586 l 390 521 q 375 441 390 471 q 319 378 360 411 l 251 321 q 203 235 203 282 l 203 215 q 306 115 203 115 l 343 115 q 444 215 444 115 l 444 256 q 468 281 444 281 l 556 281 q 579 256 579 281 l 579 213 q 522 56 579 111 q 364 0 465 0 l 286 0 q 128 56 185 0 q 71 213 71 111 l 71 242 q 135 367 71 311 l 217 433 q 253 476 244 458 q 261 519 261 493 z "},"À":{"ha":760,"x_min":36,"x_max":725,"o":"m 410 982 l 343 982 q 311 999 324 982 l 194 1138 q 190 1154 186 1147 q 206 1161 193 1161 l 314 1161 q 349 1139 338 1161 l 421 1006 q 410 982 433 982 m 150 0 l 50 0 q 36 24 31 0 l 278 869 q 311 893 285 893 l 450 893 q 483 869 478 893 l 725 24 q 710 0 731 0 l 611 0 q 594 5 599 0 q 586 24 589 10 l 533 204 l 228 204 l 175 24 q 150 0 169 0 m 378 760 l 256 315 l 507 315 l 383 760 l 378 760 z "},"Á":{"ha":760,"x_min":36,"x_max":725,"o":"m 442 1161 l 550 1161 q 566 1154 563 1161 q 563 1138 569 1147 l 444 999 q 414 982 432 982 l 346 982 q 335 1006 325 982 l 407 1139 q 442 1161 418 1161 m 150 0 l 50 0 q 36 24 31 0 l 278 869 q 311 893 285 893 l 450 893 q 483 869 478 893 l 725 24 q 710 0 731 0 l 611 0 q 594 5 599 0 q 586 24 589 10 l 533 204 l 228 204 l 175 24 q 150 0 169 0 m 378 760 l 256 315 l 507 315 l 383 760 l 378 760 z "},"Â":{"ha":760,"x_min":36,"x_max":725,"o":"m 522 982 l 458 982 q 436 996 443 982 l 381 1104 l 324 996 q 303 982 319 982 l 240 982 q 231 999 219 982 l 318 1147 q 347 1161 328 1161 l 414 1161 q 443 1147 433 1161 l 532 999 q 522 982 543 982 m 150 0 l 50 0 q 36 24 31 0 l 278 869 q 311 893 285 893 l 450 893 q 483 869 478 893 l 725 24 q 710 0 731 0 l 611 0 q 594 5 599 0 q 586 24 589 10 l 533 204 l 228 204 l 175 24 q 150 0 169 0 m 378 760 l 256 315 l 507 315 l 383 760 l 378 760 z "},"Ã":{"ha":760,"x_min":36,"x_max":725,"o":"m 315 975 q 221 1082 221 975 l 221 1136 q 235 1150 221 1150 l 276 1150 q 290 1136 290 1150 l 290 1108 q 297 1061 290 1074 q 316 1049 303 1049 q 338 1058 329 1049 q 365 1103 346 1068 q 447 1156 396 1156 q 540 1049 540 1156 l 540 996 q 528 979 540 979 l 486 979 q 472 996 472 979 l 472 1022 q 467 1070 472 1058 q 447 1082 461 1082 q 426 1075 432 1082 q 412 1056 419 1068 q 403 1041 404 1043 q 392 1019 401 1039 q 315 975 367 975 m 150 0 l 50 0 q 36 24 31 0 l 278 869 q 311 893 285 893 l 450 893 q 483 869 478 893 l 725 24 q 710 0 731 0 l 611 0 q 594 5 599 0 q 586 24 589 10 l 533 204 l 228 204 l 175 24 q 150 0 169 0 m 378 760 l 256 315 l 507 315 l 383 760 l 378 760 z "},"Ä":{"ha":760,"x_min":36,"x_max":725,"o":"m 192 1006 l 192 1138 q 214 1161 192 1161 l 297 1161 q 318 1139 318 1161 l 318 1006 q 297 982 318 982 l 214 982 q 192 1006 192 982 m 442 1006 l 442 1138 q 463 1161 442 1161 l 547 1161 q 568 1139 568 1161 l 568 1006 q 547 982 568 982 l 463 982 q 442 1006 442 982 m 150 0 l 50 0 q 36 24 31 0 l 278 869 q 311 893 285 893 l 450 893 q 483 869 478 893 l 725 24 q 710 0 731 0 l 611 0 q 594 5 599 0 q 586 24 589 10 l 533 204 l 228 204 l 175 24 q 150 0 169 0 m 378 760 l 256 315 l 507 315 l 383 760 l 378 760 z "},"Å":{"ha":760,"x_min":36,"x_max":725,"o":"m 408 972 l 349 972 q 265 1058 265 972 l 265 1129 q 349 1213 265 1213 l 408 1213 q 472 1190 449 1213 q 494 1129 494 1168 l 494 1058 q 472 994 494 1017 q 408 972 449 972 m 368 1028 l 388 1028 q 422 1039 413 1028 q 432 1075 432 1050 l 432 1108 q 422 1146 432 1135 q 389 1157 413 1157 l 369 1157 q 324 1108 324 1157 l 324 1075 q 368 1028 324 1028 m 150 0 l 50 0 q 36 24 31 0 l 278 869 q 311 893 285 893 l 450 893 q 483 869 478 893 l 725 24 q 710 0 731 0 l 611 0 q 594 5 599 0 q 586 24 589 10 l 533 204 l 228 204 l 175 24 q 150 0 169 0 m 378 760 l 256 315 l 507 315 l 383 760 l 378 760 z "},"Æ":{"ha":1081,"x_min":7,"x_max":1008,"o":"m 119 0 l 22 0 q 7 25 -4 0 l 425 869 q 463 893 436 893 l 985 893 q 1008 869 1008 893 l 1008 799 q 985 775 1008 775 l 668 775 q 653 761 653 775 l 653 526 q 668 513 653 513 l 936 513 q 961 489 961 513 l 961 418 q 936 394 961 394 l 668 394 q 653 381 653 394 l 653 133 q 668 118 653 118 l 985 118 q 1008 94 1008 118 l 1008 24 q 985 0 1008 0 l 540 0 q 517 24 517 0 l 517 204 l 242 204 l 150 24 q 119 0 140 0 m 517 325 l 517 761 l 511 761 l 294 325 l 517 325 z "},"Ç":{"ha":750,"x_min":88,"x_max":679,"o":"m 654 586 l 567 586 q 543 611 543 586 l 543 672 q 443 775 543 775 l 322 775 q 222 672 222 775 l 222 221 q 322 118 222 118 l 443 118 q 543 221 543 118 l 543 282 q 567 307 543 307 l 654 307 q 679 282 679 307 l 679 215 q 622 57 679 114 q 464 0 565 0 l 451 0 l 393 -61 l 393 -67 q 499 -162 499 -67 l 499 -185 q 374 -278 499 -278 l 321 -278 q 300 -256 300 -278 l 300 -233 q 304 -215 300 -219 q 321 -210 308 -210 l 361 -210 q 414 -202 400 -210 q 428 -175 428 -194 l 428 -171 q 414 -140 428 -149 q 361 -132 400 -132 l 332 -132 q 299 -108 307 -132 q 308 -64 290 -85 l 364 0 l 303 0 q 144 57 200 0 q 88 215 88 114 l 88 678 q 144 837 88 781 q 303 893 200 893 l 464 893 q 622 837 565 893 q 679 678 679 781 l 679 611 q 654 586 679 586 z "},"È":{"ha":667,"x_min":101,"x_max":592,"o":"m 383 982 l 317 982 q 285 999 297 982 l 168 1138 q 165 1154 161 1147 q 179 1161 168 1161 l 288 1161 q 322 1139 313 1161 l 394 1006 q 383 982 406 982 m 569 0 l 125 0 q 101 24 101 0 l 101 869 q 125 893 101 893 l 569 893 q 592 869 592 893 l 592 799 q 569 775 592 775 l 253 775 q 236 761 236 775 l 236 526 q 253 513 236 513 l 521 513 q 546 489 546 513 l 546 418 q 521 394 546 394 l 253 394 q 236 381 236 394 l 236 133 q 253 118 236 118 l 569 118 q 592 94 592 118 l 592 24 q 569 0 592 0 z "},"É":{"ha":667,"x_min":101,"x_max":592,"o":"m 393 1161 l 503 1161 q 517 1154 514 1161 q 514 1138 521 1147 l 397 999 q 364 982 383 982 l 299 982 q 288 1006 275 982 l 358 1139 q 393 1161 369 1161 m 569 0 l 125 0 q 101 24 101 0 l 101 869 q 125 893 101 893 l 569 893 q 592 869 592 893 l 592 799 q 569 775 592 775 l 253 775 q 236 761 236 775 l 236 526 q 253 513 236 513 l 521 513 q 546 489 546 513 l 546 418 q 521 394 546 394 l 253 394 q 236 381 236 394 l 236 133 q 253 118 236 118 l 569 118 q 592 94 592 118 l 592 24 q 569 0 592 0 z "},"Ê":{"ha":667,"x_min":101,"x_max":592,"o":"m 488 982 l 424 982 q 401 996 407 982 l 346 1104 l 290 996 q 268 982 283 982 l 204 982 q 193 987 196 982 q 194 999 190 992 l 283 1147 q 313 1161 293 1161 l 379 1161 q 408 1147 399 1161 l 496 999 q 488 982 507 982 m 569 0 l 125 0 q 101 24 101 0 l 101 869 q 125 893 101 893 l 569 893 q 592 869 592 893 l 592 799 q 569 775 592 775 l 253 775 q 236 761 236 775 l 236 526 q 253 513 236 513 l 521 513 q 546 489 546 513 l 546 418 q 521 394 546 394 l 253 394 q 236 381 236 394 l 236 133 q 253 118 236 118 l 569 118 q 592 94 592 118 l 592 24 q 569 0 592 0 z "},"Ë":{"ha":667,"x_min":101,"x_max":592,"o":"m 158 1006 l 158 1138 q 179 1161 158 1161 l 264 1161 q 286 1139 286 1161 l 286 1006 q 264 982 286 982 l 179 982 q 158 1006 158 982 m 407 1006 l 407 1138 q 429 1161 407 1161 l 513 1161 q 536 1139 536 1161 l 536 1006 q 513 982 536 982 l 429 982 q 407 1006 407 982 m 569 0 l 125 0 q 101 24 101 0 l 101 869 q 125 893 101 893 l 569 893 q 592 869 592 893 l 592 799 q 569 775 592 775 l 253 775 q 236 761 236 775 l 236 526 q 253 513 236 513 l 521 513 q 546 489 546 513 l 546 418 q 521 394 546 394 l 253 394 q 236 381 236 394 l 236 133 q 253 118 236 118 l 569 118 q 592 94 592 118 l 592 24 q 569 0 592 0 z "},"Ì":{"ha":351,"x_min":-10,"x_max":243,"o":"m 210 982 l 143 982 q 111 999 124 982 l -6 1138 q -9 1154 -12 1147 q 6 1161 -6 1161 l 114 1161 q 149 1139 139 1161 l 221 1006 q 210 982 233 982 m 243 869 l 243 24 q 219 0 243 0 l 132 0 q 108 24 108 0 l 108 869 q 132 893 108 893 l 219 893 q 243 869 243 893 z "},"Í":{"ha":351,"x_min":108,"x_max":363,"o":"m 238 1161 l 346 1161 q 362 1154 358 1161 q 357 1138 365 1147 l 240 999 q 208 982 228 982 l 142 982 q 131 1006 119 982 l 201 1139 q 238 1161 214 1161 m 243 869 l 243 24 q 219 0 243 0 l 132 0 q 108 24 108 0 l 108 869 q 132 893 108 893 l 219 893 q 243 869 243 893 z "},"Î":{"ha":350,"x_min":24,"x_max":325,"o":"m 317 982 l 251 982 q 231 996 238 982 l 174 1104 l 118 996 q 96 982 113 982 l 35 982 q 24 999 14 982 l 111 1147 q 142 1161 121 1161 l 208 1161 q 238 1147 228 1161 l 325 999 q 317 982 336 982 m 243 869 l 243 24 q 219 0 243 0 l 132 0 q 108 24 108 0 l 108 869 q 132 893 108 893 l 219 893 q 243 869 243 893 z "},"Ï":{"ha":350,"x_min":-14,"x_max":365,"o":"m -14 1006 l -14 1138 q 8 1161 -14 1161 l 92 1161 q 115 1139 115 1161 l 115 1006 q 92 982 115 982 l 8 982 q -14 1006 -14 982 m 236 1006 l 236 1138 q 258 1161 236 1161 l 342 1161 q 365 1139 365 1161 l 365 1006 q 342 982 365 982 l 258 982 q 236 1006 236 982 m 243 869 l 243 24 q 219 0 243 0 l 132 0 q 108 24 108 0 l 108 869 q 132 893 108 893 l 219 893 q 243 869 243 893 z "},"Ð":{"ha":758,"x_min":32,"x_max":697,"o":"m 265 118 l 460 118 q 561 221 561 118 l 561 672 q 460 775 561 775 l 265 775 q 250 761 250 775 l 250 514 q 265 500 250 500 l 408 500 q 432 476 432 500 l 432 421 q 408 397 432 397 l 265 397 q 250 383 250 397 l 250 133 q 265 118 250 118 m 481 0 l 138 0 q 114 24 114 0 l 114 383 q 100 397 114 397 l 56 397 q 32 421 32 397 l 32 476 q 56 500 32 500 l 100 500 q 114 514 114 500 l 114 869 q 138 893 114 893 l 481 893 q 640 837 583 893 q 697 678 697 781 l 697 215 q 640 57 697 114 q 481 0 583 0 z "},"Ñ":{"ha":810,"x_min":101,"x_max":708,"o":"m 339 975 q 247 1082 247 975 l 247 1136 q 260 1150 247 1150 l 300 1150 q 315 1136 315 1150 l 315 1108 q 321 1060 315 1072 q 340 1049 326 1049 q 363 1058 354 1049 q 390 1101 371 1068 q 426 1144 408 1133 q 472 1156 444 1156 q 565 1049 565 1156 l 565 996 q 551 979 565 979 l 511 979 q 497 996 497 979 l 497 1022 q 491 1070 497 1058 q 471 1082 485 1082 q 451 1075 457 1082 q 437 1056 444 1068 q 428 1041 429 1043 q 425 1036 426 1039 q 388 988 407 1000 q 339 975 368 975 m 211 0 l 125 0 q 101 24 101 0 l 101 869 q 125 893 101 893 l 203 893 q 233 878 225 893 l 569 274 l 575 274 l 575 869 q 599 893 575 893 l 685 893 q 708 869 708 893 l 708 24 q 685 0 708 0 l 610 0 q 574 22 588 0 l 240 619 l 235 619 l 235 24 q 211 0 235 0 z "},"Ò":{"ha":767,"x_min":88,"x_max":681,"o":"m 418 982 l 351 982 q 319 999 332 982 l 203 1138 q 199 1154 196 1147 q 214 1161 203 1161 l 322 1161 q 357 1139 347 1161 l 429 1006 q 418 982 442 982 m 322 118 l 443 118 q 544 221 544 118 l 544 672 q 443 775 544 775 l 322 775 q 222 672 222 775 l 222 221 q 322 118 222 118 m 464 0 l 303 0 q 144 57 200 0 q 88 215 88 114 l 88 678 q 144 837 88 781 q 303 893 200 893 l 464 893 q 624 837 567 893 q 681 678 681 781 l 681 215 q 624 57 681 114 q 464 0 567 0 z "},"Ó":{"ha":767,"x_min":88,"x_max":681,"o":"m 433 1161 l 542 1161 q 556 1154 553 1161 q 553 1138 560 1147 l 436 999 q 404 982 424 982 l 338 982 q 326 1006 314 982 l 399 1139 q 433 1161 408 1161 m 322 118 l 443 118 q 544 221 544 118 l 544 672 q 443 775 544 775 l 322 775 q 222 672 222 775 l 222 221 q 322 118 222 118 m 464 0 l 303 0 q 144 57 200 0 q 88 215 88 114 l 88 678 q 144 837 88 781 q 303 893 200 893 l 464 893 q 624 837 567 893 q 681 678 681 781 l 681 215 q 624 57 681 114 q 464 0 567 0 z "},"Ô":{"ha":767,"x_min":88,"x_max":681,"o":"m 528 982 l 464 982 q 443 996 449 982 l 386 1104 l 331 996 q 308 982 325 982 l 246 982 q 236 999 225 982 l 324 1147 q 353 1161 333 1161 l 421 1161 q 450 1147 440 1161 l 536 999 q 528 982 547 982 m 322 118 l 443 118 q 544 221 544 118 l 544 672 q 443 775 544 775 l 322 775 q 222 672 222 775 l 222 221 q 322 118 222 118 m 464 0 l 303 0 q 144 57 200 0 q 88 215 88 114 l 88 678 q 144 837 88 781 q 303 893 200 893 l 464 893 q 624 837 567 893 q 681 678 681 781 l 681 215 q 624 57 681 114 q 464 0 567 0 z "},"Õ":{"ha":767,"x_min":88,"x_max":681,"o":"m 317 975 q 224 1082 224 975 l 224 1136 q 238 1150 224 1150 l 279 1150 q 293 1136 293 1150 l 293 1108 q 299 1060 293 1072 q 318 1049 304 1049 q 340 1058 332 1049 q 367 1101 349 1068 q 404 1144 386 1133 q 450 1156 422 1156 q 543 1049 543 1156 l 543 996 q 531 979 543 979 l 489 979 q 475 996 475 979 l 475 1022 q 469 1070 475 1058 q 449 1082 464 1082 q 428 1075 435 1082 q 403 1036 422 1068 q 365 988 385 1000 q 317 975 346 975 m 322 118 l 443 118 q 544 221 544 118 l 544 672 q 443 775 544 775 l 322 775 q 222 672 222 775 l 222 221 q 322 118 222 118 m 464 0 l 303 0 q 144 57 200 0 q 88 215 88 114 l 88 678 q 144 837 88 781 q 303 893 200 893 l 464 893 q 624 837 567 893 q 681 678 681 781 l 681 215 q 624 57 681 114 q 464 0 567 0 z "},"Ö":{"ha":767,"x_min":88,"x_max":681,"o":"m 194 1006 l 194 1138 q 217 1161 194 1161 l 300 1161 q 322 1139 322 1161 l 322 1006 q 300 982 322 982 l 217 982 q 194 1006 194 982 m 444 1006 l 444 1138 q 467 1161 444 1161 l 550 1161 q 572 1139 572 1161 l 572 1006 q 550 982 572 982 l 467 982 q 444 1006 444 982 m 322 118 l 443 118 q 544 221 544 118 l 544 672 q 443 775 544 775 l 322 775 q 222 672 222 775 l 222 221 q 322 118 222 118 m 464 0 l 303 0 q 144 57 200 0 q 88 215 88 114 l 88 678 q 144 837 88 781 q 303 893 200 893 l 464 893 q 624 837 567 893 q 681 678 681 781 l 681 215 q 624 57 681 114 q 464 0 567 0 z "},"×":{"ha":708,"x_min":124,"x_max":583,"o":"m 438 447 l 583 300 q 583 263 601 282 l 536 218 q 500 217 519 197 l 354 364 l 207 217 q 171 218 188 197 l 125 263 q 124 300 106 282 l 271 447 l 125 592 q 125 629 107 611 l 171 675 q 208 675 189 696 l 354 531 l 499 675 q 536 675 518 694 l 582 629 q 582 592 600 611 l 438 447 z "},"Ø":{"ha":794,"x_min":69,"x_max":726,"o":"m 697 678 l 697 215 q 640 57 697 114 q 482 0 583 0 l 313 0 q 163 49 218 0 l 135 10 q 99 3 119 -10 l 75 21 q 69 57 56 36 l 114 119 q 97 215 97 161 l 97 678 q 153 837 97 781 q 313 893 210 893 l 482 893 q 633 844 576 893 l 660 882 q 696 889 675 903 l 719 872 q 726 838 739 858 l 681 774 q 697 678 697 732 m 232 672 l 232 285 l 551 731 q 463 775 531 775 l 332 775 q 232 672 232 775 m 563 221 l 563 608 l 243 163 q 332 118 267 118 l 463 118 q 563 221 563 118 z "},"Ù":{"ha":774,"x_min":94,"x_max":681,"o":"m 425 982 l 358 982 q 326 999 339 982 l 210 1138 q 205 1154 201 1147 q 221 1161 208 1161 l 329 1161 q 365 1139 353 1161 l 436 1006 q 425 982 447 982 m 568 893 l 656 893 q 681 871 681 893 l 681 215 q 623 57 681 114 q 464 0 565 0 l 310 0 q 151 57 208 0 q 94 215 94 114 l 94 869 q 118 893 94 893 l 206 893 q 229 869 229 893 l 229 221 q 329 118 229 118 l 443 118 q 544 221 544 118 l 544 869 q 568 893 544 893 z "},"Ú":{"ha":774,"x_min":94,"x_max":681,"o":"m 443 1161 l 553 1161 q 567 1154 564 1161 q 564 1138 571 1147 l 446 999 q 414 982 433 982 l 347 982 q 336 1006 325 982 l 408 1139 q 443 1161 419 1161 m 568 893 l 656 893 q 681 871 681 893 l 681 215 q 623 57 681 114 q 464 0 565 0 l 310 0 q 151 57 208 0 q 94 215 94 114 l 94 869 q 118 893 94 893 l 206 893 q 229 869 229 893 l 229 221 q 329 118 229 118 l 443 118 q 544 221 544 118 l 544 869 q 568 893 544 893 z "},"Û":{"ha":774,"x_min":94,"x_max":681,"o":"m 531 982 l 468 982 q 446 996 451 982 l 389 1104 l 333 996 q 311 982 326 982 l 249 982 q 239 999 228 982 l 326 1147 q 356 1161 336 1161 l 424 1161 q 453 1147 443 1161 l 540 999 q 531 982 551 982 m 568 893 l 656 893 q 681 871 681 893 l 681 215 q 623 57 681 114 q 464 0 565 0 l 310 0 q 151 57 208 0 q 94 215 94 114 l 94 869 q 118 893 94 893 l 206 893 q 229 869 229 893 l 229 221 q 329 118 229 118 l 443 118 q 544 221 544 118 l 544 869 q 568 893 544 893 z "},"Ü":{"ha":774,"x_min":94,"x_max":681,"o":"m 199 1006 l 199 1138 q 221 1161 199 1161 l 304 1161 q 325 1139 325 1161 l 325 1006 q 304 982 325 982 l 221 982 q 199 1006 199 982 m 449 1006 l 449 1138 q 469 1161 449 1161 l 554 1161 q 575 1139 575 1161 l 575 1006 q 554 982 575 982 l 469 982 q 449 1006 449 982 m 568 893 l 656 893 q 681 871 681 893 l 681 215 q 623 57 681 114 q 464 0 565 0 l 310 0 q 151 57 208 0 q 94 215 94 114 l 94 869 q 118 893 94 893 l 206 893 q 229 869 229 893 l 229 221 q 329 118 229 118 l 443 118 q 544 221 544 118 l 544 869 q 568 893 544 893 z "},"Ý":{"ha":706,"x_min":25,"x_max":682,"o":"m 407 1161 l 517 1161 q 531 1154 528 1161 q 528 1138 535 1147 l 411 999 q 378 982 397 982 l 313 982 q 301 1006 288 982 l 372 1139 q 407 1161 383 1161 m 397 0 l 308 0 q 285 24 285 0 l 285 331 l 25 868 q 25 886 19 879 q 40 893 31 893 l 151 893 q 179 869 169 893 l 350 488 l 358 488 l 526 869 q 554 893 535 893 l 665 893 q 681 886 676 893 q 681 868 686 879 l 421 331 l 421 24 q 397 0 421 0 z "},"Þ":{"ha":699,"x_min":129,"x_max":629,"o":"m 279 303 l 392 303 q 468 327 444 303 q 492 404 492 351 l 492 488 q 392 590 492 590 l 279 590 q 265 576 265 590 l 265 317 q 279 303 265 303 m 242 0 l 153 0 q 129 24 129 0 l 129 869 q 153 893 129 893 l 242 893 q 265 869 265 893 l 265 722 q 281 708 265 708 l 413 708 q 572 652 514 708 q 629 493 629 596 l 629 399 q 572 240 629 296 q 413 183 514 183 l 281 183 q 265 169 265 183 l 265 24 q 242 0 265 0 z "},"ß":{"ha":753,"x_min":90,"x_max":672,"o":"m 376 503 l 418 503 q 526 606 526 503 l 526 676 q 424 778 526 778 l 325 778 q 226 676 226 778 l 226 24 q 203 0 226 0 l 114 0 q 90 24 90 0 l 90 678 q 147 837 90 781 q 306 893 204 893 l 443 893 q 601 835 544 893 q 658 676 658 778 l 658 600 q 558 447 658 485 q 642 390 613 436 q 672 282 672 344 l 672 207 q 616 53 672 106 q 457 0 560 0 l 356 0 q 331 22 331 0 l 331 92 q 356 115 331 115 l 438 115 q 540 217 540 115 l 540 285 q 426 388 540 388 l 376 388 q 353 410 353 388 l 353 479 q 376 503 353 503 z "},"à":{"ha":711,"x_min":74,"x_max":625,"o":"m 429 797 l 363 797 q 331 814 343 797 l 214 953 q 209 970 206 964 q 225 976 213 976 l 333 976 q 369 954 358 976 l 442 821 q 429 797 453 797 m 343 0 l 289 0 q 130 57 186 0 q 74 215 74 114 l 74 493 q 130 652 74 596 q 289 708 186 708 l 600 708 q 625 685 625 708 l 625 24 q 600 0 625 0 l 513 0 q 489 24 489 0 l 489 74 l 483 74 q 343 0 450 0 m 489 236 l 489 576 q 474 590 489 590 l 308 590 q 208 488 208 590 l 208 221 q 308 118 208 118 l 375 118 q 489 236 489 118 z "},"á":{"ha":711,"x_min":74,"x_max":625,"o":"m 429 976 l 538 976 q 552 970 549 976 q 549 953 556 964 l 432 814 q 399 797 419 797 l 333 797 q 322 821 311 797 l 394 954 q 429 976 404 976 m 343 0 l 289 0 q 130 57 186 0 q 74 215 74 114 l 74 493 q 130 652 74 596 q 289 708 186 708 l 600 708 q 625 685 625 708 l 625 24 q 600 0 625 0 l 513 0 q 489 24 489 0 l 489 74 l 483 74 q 343 0 450 0 m 489 236 l 489 576 q 474 590 489 590 l 308 590 q 208 488 208 590 l 208 221 q 308 118 208 118 l 375 118 q 489 236 489 118 z "},"â":{"ha":711,"x_min":74,"x_max":625,"o":"m 513 797 l 449 797 q 426 811 432 797 l 371 919 l 315 811 q 293 797 308 797 l 229 797 q 218 803 221 797 q 219 814 215 808 l 308 963 q 338 976 318 976 l 404 976 q 433 963 424 976 l 521 814 q 513 797 532 797 m 343 0 l 289 0 q 130 57 186 0 q 74 215 74 114 l 74 493 q 130 652 74 596 q 289 708 186 708 l 600 708 q 625 685 625 708 l 625 24 q 600 0 625 0 l 513 0 q 489 24 489 0 l 489 74 l 483 74 q 343 0 450 0 m 489 236 l 489 576 q 474 590 489 590 l 308 590 q 208 488 208 590 l 208 221 q 308 118 208 118 l 375 118 q 489 236 489 118 z "},"ã":{"ha":713,"x_min":74,"x_max":625,"o":"m 219 906 l 219 958 q 233 974 219 974 l 274 974 q 286 958 286 974 l 286 932 q 293 885 286 897 q 313 872 300 872 q 335 882 326 872 q 363 926 343 892 q 444 979 396 979 q 538 872 538 979 l 538 819 q 525 803 538 803 l 483 803 q 469 819 469 803 l 469 844 q 463 892 469 881 q 443 904 457 904 q 422 897 429 904 q 399 858 415 889 q 313 799 367 799 q 219 906 219 799 m 343 0 l 289 0 q 130 57 186 0 q 74 215 74 114 l 74 493 q 130 652 74 596 q 289 708 186 708 l 600 708 q 625 685 625 708 l 625 24 q 600 0 625 0 l 513 0 q 489 24 489 0 l 489 74 l 483 74 q 343 0 450 0 m 489 236 l 489 576 q 474 590 489 590 l 308 590 q 208 488 208 590 l 208 221 q 308 118 208 118 l 375 118 q 489 236 489 118 z "},"ä":{"ha":711,"x_min":74,"x_max":625,"o":"m 189 821 l 189 953 q 211 976 189 976 l 294 976 q 317 954 317 976 l 317 821 q 294 797 317 797 l 211 797 q 189 821 189 797 m 439 821 l 439 953 q 461 976 439 976 l 544 976 q 567 954 567 976 l 567 821 q 544 797 567 797 l 461 797 q 439 821 439 797 m 343 0 l 289 0 q 130 57 186 0 q 74 215 74 114 l 74 493 q 130 652 74 596 q 289 708 186 708 l 600 708 q 625 685 625 708 l 625 24 q 600 0 625 0 l 513 0 q 489 24 489 0 l 489 74 l 483 74 q 343 0 450 0 m 489 236 l 489 576 q 474 590 489 590 l 308 590 q 208 488 208 590 l 208 221 q 308 118 208 118 l 375 118 q 489 236 489 118 z "},"å":{"ha":711,"x_min":74,"x_max":625,"o":"m 489 236 l 489 576 q 474 590 489 590 l 308 590 q 208 488 208 590 l 208 221 q 308 118 208 118 l 375 118 q 489 236 489 118 m 343 0 l 289 0 q 130 57 186 0 q 74 215 74 114 l 74 493 q 130 652 74 596 q 289 708 186 708 l 600 708 q 625 685 625 708 l 625 24 q 600 0 625 0 l 513 0 q 489 24 489 0 l 489 74 l 483 74 q 343 0 450 0 m 308 913 l 308 867 q 319 831 308 840 q 356 821 329 821 l 376 821 q 413 831 403 821 q 424 867 424 840 l 424 913 q 414 949 424 940 q 378 958 404 958 l 356 958 q 319 949 329 958 q 308 913 308 940 m 256 850 l 256 933 q 335 1006 256 1006 l 397 1006 q 478 933 478 1006 l 478 850 q 397 774 478 774 l 335 774 q 256 850 256 774 z "},"æ":{"ha":1069,"x_min":69,"x_max":1001,"o":"m 611 263 l 611 221 q 713 118 611 118 l 976 118 q 1001 94 1001 118 l 1001 22 q 976 0 1001 0 l 692 0 q 521 85 572 0 q 332 0 475 0 l 285 0 q 127 55 185 0 q 69 208 69 110 l 69 231 q 126 385 69 332 q 285 438 182 438 l 465 438 q 476 449 476 438 l 476 489 q 376 590 476 590 l 154 590 q 131 614 131 590 l 131 685 q 154 708 131 708 l 372 708 q 544 626 501 708 q 713 708 588 708 l 786 708 q 944 652 888 708 q 1001 493 1001 596 l 1001 301 q 976 276 1001 276 l 628 276 q 611 263 611 276 m 882 386 l 882 488 q 781 590 882 590 l 717 590 q 611 490 611 590 l 611 386 q 626 371 611 371 l 867 371 q 882 386 882 371 m 476 228 l 476 325 q 461 339 476 339 l 306 339 q 223 314 249 339 q 197 236 197 289 l 197 217 q 223 137 197 163 q 306 111 249 111 l 363 111 q 476 228 476 111 z "},"ç":{"ha":563,"x_min":74,"x_max":518,"o":"m 493 590 l 308 590 q 208 488 208 590 l 208 221 q 308 118 208 118 l 493 118 q 518 94 518 118 l 518 22 q 493 0 518 0 l 406 0 l 354 -53 l 354 -58 q 460 -156 460 -58 l 460 -176 q 335 -268 460 -268 l 283 -268 q 265 -264 269 -268 q 261 -247 261 -260 l 261 -224 q 283 -203 261 -203 l 322 -203 q 375 -194 361 -203 q 389 -165 389 -186 l 389 -162 q 376 -133 389 -140 q 322 -125 363 -125 l 293 -125 q 260 -101 268 -125 q 269 -57 251 -76 l 318 0 l 289 0 q 130 57 186 0 q 74 215 74 114 l 74 493 q 130 652 74 596 q 289 708 186 708 l 493 708 q 518 685 518 708 l 518 613 q 493 590 518 590 z "},"è":{"ha":685,"x_min":74,"x_max":619,"o":"m 392 797 l 325 797 q 294 814 306 797 l 176 953 q 172 970 168 964 q 188 976 175 976 l 296 976 q 332 954 321 976 l 404 821 q 392 797 414 797 m 589 0 l 289 0 q 130 57 186 0 q 74 215 74 114 l 74 493 q 130 652 74 596 q 289 708 186 708 l 403 708 q 563 652 506 708 q 619 493 619 596 l 619 317 q 594 292 619 292 l 222 292 q 207 278 207 292 l 207 218 q 308 117 207 117 l 589 117 q 614 92 614 117 l 614 22 q 589 0 614 0 m 222 386 l 471 386 q 485 400 485 386 l 485 489 q 461 566 485 542 q 385 590 438 590 l 308 590 q 232 566 256 590 q 208 489 208 542 l 208 400 q 222 386 208 386 z "},"é":{"ha":685,"x_min":74,"x_max":619,"o":"m 401 976 l 508 976 q 524 970 521 976 q 519 953 528 964 l 403 814 q 369 797 390 797 l 304 797 q 293 821 281 797 l 365 954 q 401 976 376 976 m 589 0 l 289 0 q 130 57 186 0 q 74 215 74 114 l 74 493 q 130 652 74 596 q 289 708 186 708 l 403 708 q 563 652 506 708 q 619 493 619 596 l 619 317 q 594 292 619 292 l 222 292 q 207 278 207 292 l 207 218 q 308 117 207 117 l 589 117 q 614 92 614 117 l 614 22 q 589 0 614 0 m 222 386 l 471 386 q 485 400 485 386 l 485 489 q 461 566 485 542 q 385 590 438 590 l 308 590 q 232 566 256 590 q 208 489 208 542 l 208 400 q 222 386 208 386 z "},"ê":{"ha":685,"x_min":74,"x_max":619,"o":"m 492 797 l 429 797 q 407 811 413 797 l 351 919 l 294 811 q 274 797 289 797 l 210 797 q 201 814 190 797 l 288 963 q 317 976 297 976 l 385 976 q 414 963 404 976 l 501 814 q 492 797 513 797 m 589 0 l 289 0 q 130 57 186 0 q 74 215 74 114 l 74 493 q 130 652 74 596 q 289 708 186 708 l 403 708 q 563 652 506 708 q 619 493 619 596 l 619 317 q 594 292 619 292 l 222 292 q 207 278 207 292 l 207 218 q 308 117 207 117 l 589 117 q 614 92 614 117 l 614 22 q 589 0 614 0 m 222 386 l 471 386 q 485 400 485 386 l 485 489 q 461 566 485 542 q 385 590 438 590 l 308 590 q 232 566 256 590 q 208 489 208 542 l 208 400 q 222 386 208 386 z "},"ë":{"ha":685,"x_min":74,"x_max":619,"o":"m 163 821 l 163 953 q 185 976 163 976 l 267 976 q 290 954 290 976 l 290 821 q 267 797 290 797 l 185 797 q 163 821 163 797 m 411 821 l 411 953 q 435 976 411 976 l 517 976 q 540 954 540 976 l 540 821 q 517 797 540 797 l 435 797 q 411 821 411 797 m 589 0 l 289 0 q 130 57 186 0 q 74 215 74 114 l 74 493 q 130 652 74 596 q 289 708 186 708 l 403 708 q 563 652 506 708 q 619 493 619 596 l 619 317 q 594 292 619 292 l 222 292 q 207 278 207 292 l 207 218 q 308 117 207 117 l 589 117 q 614 92 614 117 l 614 22 q 589 0 614 0 m 222 386 l 471 386 q 485 400 485 386 l 485 489 q 461 566 485 542 q 385 590 438 590 l 308 590 q 232 566 256 590 q 208 489 208 542 l 208 400 q 222 386 208 386 z "},"ì":{"ha":324,"x_min":-25,"x_max":229,"o":"m 194 797 l 128 797 q 96 814 108 797 l -21 953 q -24 970 -28 964 q -10 976 -21 976 l 99 976 q 133 954 124 976 l 206 821 q 194 797 217 797 m 94 24 l 94 685 q 117 708 94 708 l 206 708 q 229 685 229 708 l 229 24 q 224 5 229 10 q 207 0 219 0 l 118 0 q 94 24 94 0 z "},"í":{"ha":322,"x_min":94,"x_max":349,"o":"m 225 976 l 333 976 q 348 970 344 976 q 344 953 351 964 l 228 814 q 194 797 215 797 l 129 797 q 118 821 106 797 l 190 954 q 225 976 200 976 m 94 24 l 94 685 q 117 708 94 708 l 206 708 q 229 685 229 708 l 229 24 q 224 5 229 10 q 207 0 219 0 l 118 0 q 94 24 94 0 z "},"î":{"ha":322,"x_min":11,"x_max":311,"o":"m 303 797 l 239 797 q 218 811 224 797 l 161 919 l 106 811 q 83 797 100 797 l 21 797 q 11 814 0 797 l 99 963 q 128 976 108 976 l 196 976 q 225 963 215 976 l 311 814 q 303 797 322 797 m 94 24 l 94 685 q 117 708 94 708 l 206 708 q 229 685 229 708 l 229 24 q 224 5 229 10 q 207 0 219 0 l 118 0 q 94 24 94 0 z "},"ï":{"ha":322,"x_min":-28,"x_max":351,"o":"m -28 821 l -28 953 q -6 976 -28 976 l 78 976 q 101 954 101 976 l 101 821 q 78 797 101 797 l -6 797 q -28 821 -28 797 m 222 821 l 222 953 q 244 976 222 976 l 328 976 q 351 954 351 976 l 351 821 q 328 797 351 797 l 244 797 q 222 821 222 797 m 94 24 l 94 685 q 117 708 94 708 l 206 708 q 229 685 229 708 l 229 24 q 224 5 229 10 q 207 0 219 0 l 118 0 q 94 24 94 0 z "},"ð":{"ha":694,"x_min":74,"x_max":615,"o":"m 615 449 l 615 215 q 558 57 615 114 q 400 0 501 0 l 289 0 q 130 57 186 0 q 74 215 74 114 l 74 354 q 130 513 74 457 q 289 569 186 569 l 343 569 q 435 550 393 569 q 492 496 476 531 l 497 496 q 454 586 489 543 l 325 731 l 204 629 q 171 635 186 615 l 139 672 q 143 703 128 688 l 261 803 l 169 904 q 174 947 149 926 l 217 979 q 258 974 239 994 l 347 875 l 472 981 q 504 981 492 996 l 536 940 q 535 906 553 918 l 413 803 l 553 649 q 615 449 615 576 m 479 221 l 479 333 q 375 451 479 451 l 318 451 q 208 349 208 451 l 208 221 q 308 118 208 118 l 381 118 q 479 221 479 118 z "},"ñ":{"ha":718,"x_min":88,"x_max":639,"o":"m 193 906 l 193 958 q 207 974 193 974 l 249 974 q 263 958 263 974 l 263 932 q 268 884 263 896 q 288 872 274 872 q 310 882 301 872 q 337 924 318 892 q 374 968 356 957 q 419 979 392 979 q 513 872 513 979 l 513 819 q 500 803 513 803 l 458 803 q 444 819 444 803 l 444 844 q 439 892 444 881 q 419 904 433 904 q 397 897 404 904 q 372 858 390 889 q 335 810 354 822 q 286 799 315 799 q 193 906 193 799 m 199 0 l 111 0 q 88 24 88 0 l 88 685 q 111 708 88 708 l 199 708 q 222 685 222 708 l 222 635 l 228 635 q 368 708 261 708 l 429 708 q 585 653 531 708 q 639 493 639 597 l 639 24 q 614 0 639 0 l 526 0 q 503 24 503 0 l 503 488 q 401 590 503 590 l 336 590 q 222 472 222 590 l 222 24 q 199 0 222 0 z "},"ò":{"ha":700,"x_min":74,"x_max":628,"o":"m 389 797 l 322 797 q 290 814 303 797 l 174 953 q 170 970 167 964 q 185 976 174 976 l 294 976 q 329 954 318 976 l 400 821 q 389 797 414 797 m 411 0 l 289 0 q 130 57 186 0 q 74 215 74 114 l 74 493 q 130 652 74 596 q 289 708 186 708 l 411 708 q 570 652 513 708 q 628 493 628 596 l 628 215 q 570 57 628 114 q 411 0 513 0 m 308 118 l 393 118 q 493 219 493 118 l 493 489 q 393 590 493 590 l 308 590 q 232 566 256 590 q 208 489 208 542 l 208 219 q 232 142 208 167 q 308 118 256 118 z "},"ó":{"ha":700,"x_min":74,"x_max":628,"o":"m 411 976 l 519 976 q 535 970 532 976 q 531 953 539 964 l 414 814 q 381 797 400 797 l 315 797 q 304 821 292 797 l 375 954 q 411 976 388 976 m 411 0 l 289 0 q 130 57 186 0 q 74 215 74 114 l 74 493 q 130 652 74 596 q 289 708 186 708 l 411 708 q 570 652 513 708 q 628 493 628 596 l 628 215 q 570 57 628 114 q 411 0 513 0 m 308 118 l 393 118 q 493 219 493 118 l 493 489 q 393 590 493 590 l 308 590 q 232 566 256 590 q 208 489 208 542 l 208 219 q 232 142 208 167 q 308 118 256 118 z "},"ô":{"ha":700,"x_min":74,"x_max":628,"o":"m 492 797 l 428 797 q 406 811 411 797 l 350 919 l 294 811 q 272 797 288 797 l 208 797 q 197 803 200 797 q 199 814 194 808 l 288 963 q 317 976 297 976 l 383 976 q 413 963 403 976 l 500 814 q 492 797 511 797 m 411 0 l 289 0 q 130 57 186 0 q 74 215 74 114 l 74 493 q 130 652 74 596 q 289 708 186 708 l 411 708 q 570 652 513 708 q 628 493 628 596 l 628 215 q 570 57 628 114 q 411 0 513 0 m 308 118 l 393 118 q 493 219 493 118 l 493 489 q 393 590 493 590 l 308 590 q 232 566 256 590 q 208 489 208 542 l 208 219 q 232 142 208 167 q 308 118 256 118 z "},"õ":{"ha":700,"x_min":74,"x_max":628,"o":"m 182 906 l 182 958 q 196 974 182 974 l 238 974 q 251 958 251 974 l 251 932 q 257 884 251 896 q 276 872 263 872 q 299 882 290 872 q 326 924 307 892 q 363 968 344 957 q 408 979 381 979 q 501 872 501 979 l 501 819 q 489 803 501 803 l 447 803 q 433 819 433 803 l 433 844 q 428 892 433 881 q 408 904 422 904 q 386 897 393 904 q 361 858 379 889 q 324 810 343 822 q 275 799 304 799 q 182 906 182 799 m 411 0 l 289 0 q 130 57 186 0 q 74 215 74 114 l 74 493 q 130 652 74 596 q 289 708 186 708 l 411 708 q 570 652 513 708 q 628 493 628 596 l 628 215 q 570 57 628 114 q 411 0 513 0 m 308 118 l 393 118 q 493 219 493 118 l 493 489 q 393 590 493 590 l 308 590 q 232 566 256 590 q 208 489 208 542 l 208 219 q 232 142 208 167 q 308 118 256 118 z "},"ö":{"ha":700,"x_min":74,"x_max":628,"o":"m 161 821 l 161 953 q 183 976 161 976 l 267 976 q 289 954 289 976 l 289 821 q 267 797 289 797 l 183 797 q 161 821 161 797 m 411 821 l 411 953 q 433 976 411 976 l 517 976 q 539 954 539 976 l 539 821 q 517 797 539 797 l 433 797 q 411 821 411 797 m 411 0 l 289 0 q 130 57 186 0 q 74 215 74 114 l 74 493 q 130 652 74 596 q 289 708 186 708 l 411 708 q 570 652 513 708 q 628 493 628 596 l 628 215 q 570 57 628 114 q 411 0 513 0 m 308 118 l 393 118 q 493 219 493 118 l 493 489 q 393 590 493 590 l 308 590 q 232 566 256 590 q 208 489 208 542 l 208 219 q 232 142 208 167 q 308 118 256 118 z "},"÷":{"ha":668,"x_min":100,"x_max":568,"o":"m 288 215 l 288 290 q 311 313 288 313 l 358 313 q 383 290 383 313 l 383 215 q 358 192 383 192 l 311 192 q 288 215 288 192 m 546 399 l 125 399 q 100 422 100 399 l 100 469 q 125 493 100 493 l 546 493 q 568 469 568 493 l 568 422 q 546 399 568 399 m 288 601 l 288 675 q 311 700 288 700 l 358 700 q 383 675 383 700 l 383 601 q 358 578 383 578 l 311 578 q 288 601 288 578 z "},"ø":{"ha":722,"x_min":35,"x_max":689,"o":"m 639 493 l 639 215 q 582 57 639 114 q 422 0 525 0 l 301 0 q 131 69 189 0 l 88 26 q 54 26 68 8 l 35 44 q 35 79 17 61 l 94 139 q 85 215 85 172 l 85 493 q 142 652 85 596 q 301 708 199 708 l 422 708 q 594 639 536 708 l 636 681 q 669 682 651 700 l 689 664 q 689 629 708 647 l 629 569 q 639 493 639 536 m 221 488 l 221 265 l 494 539 q 403 590 476 590 l 321 590 q 221 488 221 590 m 503 221 l 503 443 l 229 168 q 321 118 247 118 l 403 118 q 503 221 503 118 z "},"ù":{"ha":718,"x_min":81,"x_max":632,"o":"m 394 797 l 326 797 q 296 814 306 797 l 179 953 q 174 970 171 964 q 189 976 178 976 l 297 976 q 333 954 322 976 l 406 821 q 394 797 417 797 m 350 0 l 288 0 q 134 56 188 0 q 81 215 81 113 l 81 685 q 104 708 81 708 l 192 708 q 215 685 215 708 l 215 221 q 315 118 215 118 l 382 118 q 496 236 496 118 l 496 685 q 519 708 496 708 l 607 708 q 632 685 632 708 l 632 24 q 607 0 632 0 l 519 0 q 496 24 496 0 l 496 74 l 490 74 q 350 0 457 0 z "},"ú":{"ha":718,"x_min":81,"x_max":632,"o":"m 411 976 l 521 976 q 535 970 532 976 q 532 953 539 964 l 414 814 q 381 797 401 797 l 317 797 q 304 821 292 797 l 376 954 q 411 976 388 976 m 350 0 l 288 0 q 134 56 188 0 q 81 215 81 113 l 81 685 q 104 708 81 708 l 192 708 q 215 685 215 708 l 215 221 q 315 118 215 118 l 382 118 q 496 236 496 118 l 496 685 q 519 708 496 708 l 607 708 q 632 685 632 708 l 632 24 q 607 0 632 0 l 519 0 q 496 24 496 0 l 496 74 l 490 74 q 350 0 457 0 z "},"û":{"ha":718,"x_min":81,"x_max":632,"o":"m 497 797 l 433 797 q 411 811 418 797 l 356 919 l 300 811 q 278 797 294 797 l 215 797 q 206 814 194 797 l 292 963 q 322 976 301 976 l 389 976 q 419 963 410 976 l 506 814 q 497 797 517 797 m 350 0 l 288 0 q 134 56 188 0 q 81 215 81 113 l 81 685 q 104 708 81 708 l 192 708 q 215 685 215 708 l 215 221 q 315 118 215 118 l 382 118 q 496 236 496 118 l 496 685 q 519 708 496 708 l 607 708 q 632 685 632 708 l 632 24 q 607 0 632 0 l 519 0 q 496 24 496 0 l 496 74 l 490 74 q 350 0 457 0 z "},"ü":{"ha":718,"x_min":81,"x_max":632,"o":"m 167 821 l 167 953 q 189 976 167 976 l 272 976 q 294 954 294 976 l 294 821 q 272 797 294 797 l 189 797 q 167 821 167 797 m 417 821 l 417 953 q 439 976 417 976 l 522 976 q 544 954 544 976 l 544 821 q 522 797 544 797 l 439 797 q 417 821 417 797 m 350 0 l 288 0 q 134 56 188 0 q 81 215 81 113 l 81 685 q 104 708 81 708 l 192 708 q 215 685 215 708 l 215 221 q 315 118 215 118 l 382 118 q 496 236 496 118 l 496 685 q 519 708 496 708 l 607 708 q 632 685 632 708 l 632 24 q 607 0 632 0 l 519 0 q 496 24 496 0 l 496 74 l 490 74 q 350 0 457 0 z "},"ý":{"ha":649,"x_min":32,"x_max":618,"o":"m 383 976 l 492 976 q 508 970 504 976 q 503 953 511 964 l 386 814 q 353 797 374 797 l 288 797 q 276 821 264 797 l 349 954 q 383 976 360 976 m 171 -225 l 97 -225 q 74 -201 74 -225 l 74 -131 q 97 -106 74 -106 l 129 -106 q 247 -72 214 -106 q 301 38 279 -39 l 246 38 q 217 61 225 38 l 32 685 q 50 708 26 708 l 143 708 q 171 685 165 708 l 322 140 l 328 140 l 479 685 q 507 708 483 708 l 596 708 q 618 683 622 708 l 428 15 q 338 -163 396 -101 q 171 -225 279 -225 z "},"þ":{"ha":722,"x_min":90,"x_max":649,"o":"m 340 118 l 413 118 q 513 221 513 118 l 513 488 q 413 590 513 590 l 340 590 q 226 472 226 590 l 226 236 q 340 118 226 118 m 226 74 l 226 -161 q 203 -185 226 -185 l 114 -185 q 90 -161 90 -185 l 90 953 q 114 976 90 976 l 203 976 q 226 953 226 976 l 226 635 l 232 635 q 371 708 264 708 l 433 708 q 592 652 535 708 q 649 493 649 596 l 649 215 q 592 57 649 114 q 433 0 535 0 l 371 0 q 232 74 264 0 l 226 74 z "},"ÿ":{"ha":649,"x_min":32,"x_max":618,"o":"m 138 821 l 138 953 q 158 976 138 976 l 243 976 q 265 954 265 976 l 265 821 q 243 797 265 797 l 158 797 q 138 821 138 797 m 386 821 l 386 953 q 408 976 386 976 l 492 976 q 515 954 515 976 l 515 821 q 492 797 515 797 l 408 797 q 386 821 386 797 m 171 -225 l 97 -225 q 74 -201 74 -225 l 74 -131 q 97 -106 74 -106 l 129 -106 q 247 -72 214 -106 q 301 38 279 -39 l 246 38 q 217 61 225 38 l 32 685 q 50 708 26 708 l 143 708 q 171 685 165 708 l 322 140 l 328 140 l 479 685 q 507 708 483 708 l 596 708 q 618 683 622 708 l 428 15 q 338 -163 396 -101 q 171 -225 279 -225 z "},"Ā":{"ha":760,"x_min":36,"x_max":725,"o":"m 518 1028 l 242 1028 q 218 1051 218 1028 l 218 1100 q 242 1124 218 1124 l 518 1124 q 542 1100 542 1124 l 542 1051 q 518 1028 542 1028 m 150 0 l 50 0 q 36 24 31 0 l 278 869 q 311 893 285 893 l 450 893 q 483 869 478 893 l 725 24 q 710 0 731 0 l 611 0 q 594 5 599 0 q 586 24 589 10 l 533 204 l 228 204 l 175 24 q 150 0 169 0 m 378 760 l 256 315 l 507 315 l 383 760 l 378 760 z "},"ā":{"ha":711,"x_min":74,"x_max":625,"o":"m 528 840 l 250 840 q 226 864 226 840 l 226 911 q 250 935 226 935 l 528 935 q 551 911 551 935 l 551 864 q 528 840 551 840 m 343 0 l 289 0 q 130 57 186 0 q 74 215 74 114 l 74 493 q 130 652 74 596 q 289 708 186 708 l 600 708 q 625 685 625 708 l 625 24 q 600 0 625 0 l 513 0 q 489 24 489 0 l 489 74 l 483 74 q 343 0 450 0 m 489 236 l 489 576 q 474 590 489 590 l 308 590 q 208 488 208 590 l 208 221 q 308 118 208 118 l 375 118 q 489 236 489 118 z "},"Ă":{"ha":760,"x_min":36,"x_max":725,"o":"m 228 1144 q 244 1161 228 1161 l 297 1161 q 314 1144 314 1161 l 314 1131 q 328 1070 314 1088 q 376 1053 343 1053 l 385 1053 q 433 1071 418 1053 q 447 1131 447 1089 l 447 1144 q 464 1161 447 1161 l 515 1161 q 532 1144 532 1161 l 532 1129 q 397 982 532 982 l 363 982 q 228 1129 228 982 l 228 1144 m 150 0 l 50 0 q 36 24 31 0 l 278 869 q 311 893 285 893 l 450 893 q 483 869 478 893 l 725 24 q 710 0 731 0 l 611 0 q 594 5 599 0 q 586 24 589 10 l 533 204 l 228 204 l 175 24 q 150 0 169 0 m 378 760 l 256 315 l 507 315 l 383 760 l 378 760 z "},"ă":{"ha":711,"x_min":74,"x_max":625,"o":"m 489 236 l 489 576 q 474 590 489 590 l 308 590 q 208 488 208 590 l 208 221 q 308 118 208 118 l 375 118 q 489 236 489 118 m 343 0 l 289 0 q 130 57 186 0 q 74 215 74 114 l 74 493 q 130 652 74 596 q 289 708 186 708 l 600 708 q 625 685 625 708 l 625 24 q 600 0 625 0 l 513 0 q 489 24 489 0 l 489 74 l 483 74 q 343 0 450 0 m 228 944 l 228 960 q 246 976 228 976 l 299 976 q 315 960 315 976 l 315 946 q 329 885 315 903 q 376 868 343 868 l 385 868 q 433 886 418 868 q 447 946 447 904 l 447 960 q 464 976 447 976 l 515 976 q 532 960 532 976 l 532 944 q 399 797 532 797 l 363 797 q 228 944 228 797 z "},"Ą":{"ha":760,"x_min":36,"x_max":725,"o":"m 710 0 l 638 0 l 579 -86 l 635 -86 q 661 -91 654 -86 q 668 -110 668 -96 q 628 -147 668 -133 q 549 -161 589 -161 q 499 -140 510 -161 q 506 -93 488 -118 l 585 26 l 533 204 l 228 204 l 175 24 q 150 0 169 0 l 50 0 q 36 24 31 0 l 278 869 q 311 893 285 893 l 450 893 q 483 869 478 893 l 725 24 q 710 0 731 0 m 256 315 l 507 315 l 383 760 l 378 760 l 256 315 z "},"ą":{"ha":711,"x_min":74,"x_max":625,"o":"m 289 708 l 600 708 q 625 685 625 708 l 625 24 q 600 0 625 0 l 536 0 q 499 -58 518 -24 q 482 -92 481 -92 q 540 -87 524 -92 q 567 -108 572 -85 q 526 -147 565 -132 q 453 -161 488 -161 q 413 -132 418 -161 q 425 -79 407 -103 l 489 25 l 489 74 l 483 74 q 343 0 450 0 l 289 0 q 130 57 186 0 q 74 215 74 114 l 74 493 q 130 652 74 596 q 289 708 186 708 m 308 118 l 375 118 q 489 236 489 118 l 489 576 q 474 590 489 590 l 308 590 q 208 488 208 590 l 208 221 q 308 118 208 118 z "},"Ć":{"ha":750,"x_min":88,"x_max":679,"o":"m 464 0 l 303 0 q 144 57 200 0 q 88 215 88 114 l 88 678 q 144 837 88 781 q 303 893 200 893 l 464 893 q 622 837 565 893 q 679 678 679 781 l 679 611 q 654 586 679 586 l 567 586 q 543 611 543 586 l 543 672 q 443 775 543 775 l 322 775 q 222 672 222 775 l 222 221 q 322 118 222 118 l 443 118 q 543 221 543 118 l 543 282 q 567 307 543 307 l 654 307 q 679 282 679 307 l 679 215 q 622 57 679 114 q 464 0 565 0 m 428 1161 l 536 1161 q 552 1154 549 1161 q 547 1138 556 1147 l 431 999 q 399 982 418 982 l 332 982 q 319 1006 310 982 l 392 1139 q 428 1161 403 1161 z "},"ć":{"ha":563,"x_min":74,"x_max":518,"o":"m 371 976 l 481 976 q 495 970 492 976 q 492 953 499 964 l 375 814 q 342 797 361 797 l 276 797 q 265 821 251 797 l 336 954 q 371 976 347 976 m 518 94 l 518 22 q 493 0 518 0 l 289 0 q 130 57 186 0 q 74 215 74 114 l 74 493 q 130 652 74 596 q 289 708 186 708 l 493 708 q 518 685 518 708 l 518 613 q 493 590 518 590 l 308 590 q 208 488 208 590 l 208 221 q 308 118 208 118 l 493 118 q 518 94 518 118 z "},"Ċ":{"ha":750,"x_min":88,"x_max":679,"o":"m 464 0 l 303 0 q 144 57 200 0 q 88 215 88 114 l 88 678 q 144 837 88 781 q 303 893 200 893 l 464 893 q 622 837 565 893 q 679 678 679 781 l 679 611 q 654 586 679 586 l 567 586 q 543 611 543 586 l 543 672 q 443 775 543 775 l 322 775 q 222 672 222 775 l 222 221 q 322 118 222 118 l 443 118 q 543 221 543 118 l 543 282 q 567 307 543 307 l 654 307 q 679 282 679 307 l 679 215 q 622 57 679 114 q 464 0 565 0 m 315 1010 l 315 1142 q 338 1165 315 1165 l 428 1165 q 451 1143 451 1165 l 451 1010 q 428 986 451 986 l 338 986 q 315 1010 315 986 z "},"ċ":{"ha":563,"x_min":74,"x_max":518,"o":"m 261 819 l 261 954 q 283 976 261 976 l 375 976 q 396 954 396 976 l 396 819 q 375 797 396 797 l 283 797 q 261 819 261 797 m 518 94 l 518 22 q 493 0 518 0 l 289 0 q 130 57 186 0 q 74 215 74 114 l 74 493 q 130 652 74 596 q 289 708 186 708 l 493 708 q 518 685 518 708 l 518 613 q 493 590 518 590 l 308 590 q 208 488 208 590 l 208 221 q 308 118 208 118 l 493 118 q 518 94 518 118 z "},"Č":{"ha":750,"x_min":88,"x_max":679,"o":"m 464 0 l 303 0 q 144 57 200 0 q 88 215 88 114 l 88 678 q 144 837 88 781 q 303 893 200 893 l 464 893 q 622 837 565 893 q 679 678 679 781 l 679 611 q 654 586 679 586 l 567 586 q 543 611 543 586 l 543 672 q 443 775 543 775 l 322 775 q 222 672 222 775 l 222 221 q 322 118 222 118 l 443 118 q 543 221 543 118 l 543 282 q 567 307 543 307 l 654 307 q 679 282 679 307 l 679 215 q 622 57 679 114 q 464 0 565 0 m 419 982 l 353 982 q 324 996 333 982 l 236 1144 q 246 1161 225 1161 l 308 1161 q 331 1147 325 1161 l 386 1039 l 442 1147 q 464 1161 449 1161 l 529 1161 q 540 1156 538 1161 q 538 1144 542 1150 l 450 996 q 419 982 440 982 z "},"č":{"ha":563,"x_min":74,"x_max":518,"o":"m 297 797 q 268 811 278 797 l 182 960 q 190 976 171 976 l 254 976 q 275 963 269 976 l 332 854 l 388 963 q 410 976 393 976 l 472 976 q 482 960 493 976 l 394 811 q 365 797 385 797 l 297 797 m 518 94 l 518 22 q 493 0 518 0 l 289 0 q 130 57 186 0 q 74 215 74 114 l 74 493 q 130 652 74 596 q 289 708 186 708 l 493 708 q 518 685 518 708 l 518 613 q 493 590 518 590 l 308 590 q 208 488 208 590 l 208 221 q 308 118 208 118 l 493 118 q 518 94 518 118 z "},"Ď":{"ha":771,"x_min":101,"x_max":683,"o":"m 349 982 q 319 996 329 982 l 231 1144 q 229 1156 226 1150 q 242 1161 232 1161 l 304 1161 q 326 1147 319 1161 l 382 1039 l 439 1147 q 460 1161 444 1161 l 524 1161 q 532 1144 543 1161 l 444 996 q 415 982 435 982 l 349 982 m 251 118 l 447 118 q 547 221 547 118 l 547 672 q 447 775 547 775 l 251 775 q 236 761 236 775 l 236 133 q 251 118 236 118 m 101 24 l 101 869 q 125 893 101 893 l 467 893 q 626 837 568 893 q 683 678 683 781 l 683 215 q 626 57 683 114 q 467 0 568 0 l 125 0 q 101 24 101 0 z "},"ď":{"ha":828,"x_min":74,"x_max":832,"o":"m 832 954 l 832 892 q 807 793 832 853 l 749 657 q 728 644 739 644 q 708 667 708 644 l 708 953 q 731 976 708 976 l 810 976 q 832 954 832 976 m 351 0 l 281 0 q 127 56 181 0 q 74 215 74 113 l 74 493 q 127 653 74 597 q 281 708 181 708 l 351 708 q 490 635 458 708 l 496 635 l 496 953 q 519 976 496 976 l 608 976 q 632 953 632 976 l 632 24 q 608 0 632 0 l 519 0 q 496 24 496 0 l 496 74 l 490 74 q 351 0 458 0 m 496 236 l 496 472 q 382 590 496 590 l 308 590 q 208 488 208 590 l 208 221 q 308 118 208 118 l 382 118 q 496 236 496 118 z "},"Đ":{"ha":758,"x_min":32,"x_max":697,"o":"m 265 118 l 460 118 q 561 221 561 118 l 561 672 q 460 775 561 775 l 265 775 q 250 761 250 775 l 250 568 q 265 553 250 553 l 408 553 q 432 529 432 553 l 432 474 q 408 451 432 451 l 265 451 q 250 438 250 451 l 250 133 q 265 118 250 118 m 481 0 l 138 0 q 114 24 114 0 l 114 438 q 100 451 114 451 l 56 451 q 37 456 42 451 q 32 474 32 461 l 32 529 q 56 553 32 553 l 100 553 q 114 568 114 553 l 114 869 q 138 893 114 893 l 481 893 q 640 837 583 893 q 697 678 697 781 l 697 215 q 640 57 697 114 q 481 0 583 0 z "},"đ":{"ha":769,"x_min":74,"x_max":751,"o":"m 351 0 l 289 0 q 130 57 186 0 q 74 215 74 114 l 74 413 q 130 571 74 514 q 289 628 186 628 l 351 628 q 438 608 400 628 q 490 553 475 589 l 496 553 l 496 739 q 481 753 496 753 l 283 753 q 261 776 261 753 l 261 832 q 283 856 261 856 l 481 856 q 496 871 496 856 l 496 953 q 519 976 496 976 l 608 976 q 632 953 632 976 l 632 871 q 647 856 632 856 l 728 856 q 751 832 751 856 l 751 776 q 728 753 751 753 l 647 753 q 632 739 632 753 l 632 24 q 608 0 632 0 l 519 0 q 496 24 496 0 l 496 74 l 490 74 q 351 0 458 0 m 496 236 l 496 392 q 382 508 496 508 l 308 508 q 208 407 208 508 l 208 221 q 308 118 208 118 l 382 118 q 496 236 496 118 z "},"Ē":{"ha":667,"x_min":101,"x_max":592,"o":"m 485 1028 l 207 1028 q 185 1051 185 1028 l 185 1100 q 207 1124 185 1124 l 485 1124 q 508 1100 508 1124 l 508 1051 q 485 1028 508 1028 m 569 0 l 125 0 q 101 24 101 0 l 101 869 q 125 893 101 893 l 569 893 q 592 869 592 893 l 592 799 q 569 775 592 775 l 253 775 q 236 761 236 775 l 236 526 q 253 513 236 513 l 521 513 q 546 489 546 513 l 546 418 q 521 394 546 394 l 253 394 q 236 381 236 394 l 236 133 q 253 118 236 118 l 569 118 q 592 94 592 118 l 592 24 q 569 0 592 0 z "},"ē":{"ha":685,"x_min":74,"x_max":619,"o":"m 489 840 l 213 840 q 189 864 189 840 l 189 911 q 213 935 189 935 l 489 935 q 514 911 514 935 l 514 864 q 489 840 514 840 m 589 0 l 289 0 q 130 57 186 0 q 74 215 74 114 l 74 493 q 130 652 74 596 q 289 708 186 708 l 403 708 q 563 652 506 708 q 619 493 619 596 l 619 317 q 594 292 619 292 l 222 292 q 207 278 207 292 l 207 218 q 308 117 207 117 l 589 117 q 614 92 614 117 l 614 22 q 589 0 614 0 m 222 386 l 471 386 q 485 400 485 386 l 485 489 q 461 566 485 542 q 385 590 438 590 l 308 590 q 232 566 256 590 q 208 489 208 542 l 208 400 q 222 386 208 386 z "},"Ĕ":{"ha":667,"x_min":101,"x_max":592,"o":"m 192 1144 q 208 1161 192 1161 l 261 1161 q 278 1144 278 1161 l 278 1131 q 292 1070 278 1088 q 339 1053 306 1053 l 347 1053 q 395 1071 381 1053 q 410 1131 410 1089 l 410 1144 q 428 1161 410 1161 l 478 1161 q 496 1144 496 1161 l 496 1129 q 361 982 496 982 l 325 982 q 192 1129 192 982 l 192 1144 m 569 0 l 125 0 q 101 24 101 0 l 101 869 q 125 893 101 893 l 569 893 q 592 869 592 893 l 592 799 q 569 775 592 775 l 253 775 q 236 761 236 775 l 236 526 q 253 513 236 513 l 521 513 q 546 489 546 513 l 546 418 q 521 394 546 394 l 253 394 q 236 381 236 394 l 236 133 q 253 118 236 118 l 569 118 q 592 94 592 118 l 592 24 q 569 0 592 0 z "},"ĕ":{"ha":685,"x_min":74,"x_max":619,"o":"m 222 386 l 471 386 q 485 400 485 386 l 485 489 q 461 566 485 542 q 385 590 438 590 l 308 590 q 232 566 256 590 q 208 489 208 542 l 208 400 q 222 386 208 386 m 589 0 l 289 0 q 130 57 186 0 q 74 215 74 114 l 74 493 q 130 652 74 596 q 289 708 186 708 l 403 708 q 563 652 506 708 q 619 493 619 596 l 619 317 q 594 292 619 292 l 222 292 q 207 278 207 292 l 207 218 q 308 117 207 117 l 589 117 q 614 92 614 117 l 614 22 q 589 0 614 0 m 197 944 l 197 960 q 214 976 197 976 l 267 976 q 282 960 282 976 l 282 946 q 297 886 282 904 q 344 868 311 868 l 353 868 q 402 886 388 868 q 417 946 417 904 l 417 960 q 432 976 417 976 l 485 976 q 501 960 501 976 l 501 944 q 466 835 501 872 q 367 797 431 797 l 331 797 q 197 944 197 797 z "},"Ė":{"ha":676,"x_min":101,"x_max":592,"o":"m 279 1010 l 279 1142 q 301 1165 279 1165 l 393 1165 q 415 1143 415 1165 l 415 1010 q 393 986 415 986 l 301 986 q 279 1010 279 986 m 569 0 l 125 0 q 101 24 101 0 l 101 869 q 125 893 101 893 l 569 893 q 592 869 592 893 l 592 799 q 569 775 592 775 l 253 775 q 236 761 236 775 l 236 526 q 253 513 236 513 l 521 513 q 546 489 546 513 l 546 418 q 521 394 546 394 l 253 394 q 236 381 236 394 l 236 133 q 253 118 236 118 l 569 118 q 592 94 592 118 l 592 24 q 569 0 592 0 z "},"ė":{"ha":685,"x_min":74,"x_max":619,"o":"m 283 819 l 283 954 q 306 976 283 976 l 397 976 q 419 954 419 976 l 419 819 q 397 797 419 797 l 306 797 q 283 819 283 797 m 589 0 l 289 0 q 130 57 186 0 q 74 215 74 114 l 74 493 q 130 652 74 596 q 289 708 186 708 l 403 708 q 563 652 506 708 q 619 493 619 596 l 619 317 q 594 292 619 292 l 222 292 q 207 278 207 292 l 207 218 q 308 117 207 117 l 589 117 q 614 92 614 117 l 614 22 q 589 0 614 0 m 222 386 l 471 386 q 485 400 485 386 l 485 489 q 461 566 485 542 q 385 590 438 590 l 308 590 q 232 566 256 590 q 208 489 208 542 l 208 400 q 222 386 208 386 z "},"Ę":{"ha":667,"x_min":101,"x_max":592,"o":"m 569 775 l 253 775 q 236 761 236 775 l 236 526 q 253 513 236 513 l 521 513 q 546 489 546 513 l 546 418 q 521 394 546 394 l 253 394 q 236 381 236 394 l 236 133 q 253 118 236 118 l 569 118 q 592 94 592 118 l 592 24 q 569 0 592 0 l 507 0 l 447 -86 l 504 -86 q 530 -91 524 -86 q 536 -110 536 -96 q 497 -147 536 -133 q 417 -161 457 -161 q 367 -140 378 -161 q 375 -93 356 -118 l 438 0 l 125 0 q 101 24 101 0 l 101 869 q 125 893 101 893 l 569 893 q 592 869 592 893 l 592 799 q 569 775 592 775 z "},"ę":{"ha":685,"x_min":74,"x_max":619,"o":"m 594 292 l 222 292 q 207 278 207 292 l 207 218 q 308 117 207 117 l 589 117 q 614 92 614 117 l 614 22 q 589 0 614 0 l 515 0 q 478 -58 497 -24 q 461 -92 460 -92 q 519 -87 503 -92 q 544 -108 550 -86 q 504 -147 543 -132 q 431 -161 465 -161 q 392 -132 397 -161 q 404 -79 386 -103 l 451 0 l 289 0 q 130 57 186 0 q 74 215 74 114 l 74 493 q 130 652 74 596 q 289 708 186 708 l 403 708 q 563 652 506 708 q 619 493 619 596 l 619 317 q 594 292 619 292 m 208 489 l 208 400 q 222 386 208 386 l 471 386 q 485 400 485 386 l 485 489 q 461 566 485 542 q 385 590 438 590 l 308 590 q 232 566 256 590 q 208 489 208 542 z "},"Ě":{"ha":667,"x_min":101,"x_max":592,"o":"m 319 982 q 290 996 300 982 l 203 1144 q 213 1161 192 1161 l 275 1161 q 296 1147 290 1161 l 353 1039 l 408 1147 q 431 1161 415 1161 l 494 1161 q 504 1144 515 1161 l 415 996 q 386 982 406 982 l 319 982 m 569 0 l 125 0 q 101 24 101 0 l 101 869 q 125 893 101 893 l 569 893 q 592 869 592 893 l 592 799 q 569 775 592 775 l 253 775 q 236 761 236 775 l 236 526 q 253 513 236 513 l 521 513 q 546 489 546 513 l 546 418 q 521 394 546 394 l 253 394 q 236 381 236 394 l 236 133 q 253 118 236 118 l 569 118 q 592 94 592 118 l 592 24 q 569 0 592 0 z "},"ě":{"ha":685,"x_min":74,"x_max":619,"o":"m 317 797 q 288 811 297 797 l 201 960 q 210 976 190 976 l 274 976 q 294 963 289 976 l 351 854 l 407 963 q 429 976 413 976 l 492 976 q 501 960 513 976 l 414 811 q 385 797 404 797 l 317 797 m 589 0 l 289 0 q 130 57 186 0 q 74 215 74 114 l 74 493 q 130 652 74 596 q 289 708 186 708 l 403 708 q 563 652 506 708 q 619 493 619 596 l 619 317 q 594 292 619 292 l 222 292 q 207 278 207 292 l 207 218 q 308 117 207 117 l 589 117 q 614 92 614 117 l 614 22 q 589 0 614 0 m 222 386 l 471 386 q 485 400 485 386 l 485 489 q 461 566 485 542 q 385 590 438 590 l 308 590 q 232 566 256 590 q 208 489 208 542 l 208 400 q 222 386 208 386 z "},"Ĝ":{"ha":754,"x_min":88,"x_max":667,"o":"m 521 982 l 457 982 q 435 996 442 982 l 379 1104 l 322 996 q 301 982 319 982 l 239 982 q 229 999 218 982 l 317 1147 q 346 1161 326 1161 l 413 1161 q 443 1147 433 1161 l 531 999 q 521 982 542 982 m 451 0 l 303 0 q 144 57 200 0 q 88 215 88 114 l 88 678 q 144 837 88 781 q 303 893 200 893 l 451 893 q 610 837 554 893 q 667 678 667 781 l 667 628 q 643 603 667 603 l 556 603 q 532 628 532 603 l 532 672 q 432 775 532 775 l 322 775 q 222 672 222 775 l 222 221 q 322 118 222 118 l 432 118 q 532 221 532 118 l 532 346 q 517 360 532 360 l 404 360 q 381 383 381 360 l 381 454 q 404 478 381 478 l 638 478 q 667 449 667 478 l 667 215 q 610 57 667 114 q 451 0 553 0 z "},"ĝ":{"ha":714,"x_min":76,"x_max":628,"o":"m 518 797 l 456 797 q 433 811 439 797 l 378 919 l 321 811 q 300 797 315 797 l 236 797 q 228 814 217 797 l 314 963 q 343 976 324 976 l 411 976 q 440 963 431 976 l 528 814 q 518 797 539 797 m 346 35 l 283 35 q 130 91 183 35 q 76 250 76 147 l 76 493 q 133 652 76 596 q 292 708 190 708 l 603 708 q 628 685 628 708 l 628 -3 q 570 -160 628 -104 q 411 -217 513 -217 l 150 -217 q 126 -194 126 -217 l 126 -122 q 150 -99 126 -99 l 390 -99 q 492 4 492 -99 l 492 110 l 486 110 q 346 35 451 35 m 492 271 l 492 576 q 476 590 492 590 l 311 590 q 213 488 213 590 l 213 257 q 311 154 213 154 l 378 154 q 492 271 492 154 z "},"Ğ":{"ha":754,"x_min":88,"x_max":667,"o":"m 225 1144 q 242 1161 225 1161 l 294 1161 q 313 1144 313 1161 l 313 1131 q 326 1070 313 1088 q 372 1053 340 1053 l 382 1053 q 431 1071 417 1053 q 444 1131 444 1089 l 444 1144 q 461 1161 444 1161 l 513 1161 q 529 1144 529 1161 l 529 1129 q 394 982 529 982 l 360 982 q 225 1129 225 982 l 225 1144 m 451 0 l 303 0 q 144 57 200 0 q 88 215 88 114 l 88 678 q 144 837 88 781 q 303 893 200 893 l 451 893 q 610 837 554 893 q 667 678 667 781 l 667 628 q 643 603 667 603 l 556 603 q 532 628 532 603 l 532 672 q 432 775 532 775 l 322 775 q 222 672 222 775 l 222 221 q 322 118 222 118 l 432 118 q 532 221 532 118 l 532 346 q 517 360 532 360 l 404 360 q 381 383 381 360 l 381 454 q 404 478 381 478 l 638 478 q 667 449 667 478 l 667 215 q 610 57 667 114 q 451 0 553 0 z "},"ğ":{"ha":714,"x_min":76,"x_max":628,"o":"m 492 271 l 492 576 q 476 590 492 590 l 311 590 q 213 488 213 590 l 213 257 q 311 154 213 154 l 378 154 q 492 271 492 154 m 346 35 l 283 35 q 130 91 183 35 q 76 250 76 147 l 76 493 q 133 652 76 596 q 292 708 190 708 l 603 708 q 628 685 628 708 l 628 -3 q 570 -160 628 -104 q 411 -217 513 -217 l 150 -217 q 126 -194 126 -217 l 126 -122 q 150 -99 126 -99 l 390 -99 q 492 4 492 -99 l 492 110 l 486 110 q 346 35 451 35 m 235 944 l 235 960 q 253 976 235 976 l 304 976 q 321 960 321 976 l 321 946 q 335 885 321 903 q 383 868 350 868 l 392 868 q 440 886 425 868 q 454 946 454 904 l 454 960 q 471 976 454 976 l 522 976 q 539 960 539 976 l 539 944 q 404 797 539 797 l 369 797 q 235 944 235 797 z "},"Ġ":{"ha":754,"x_min":88,"x_max":667,"o":"m 308 1010 l 308 1142 q 332 1165 308 1165 l 422 1165 q 444 1143 444 1165 l 444 1010 q 422 986 444 986 l 332 986 q 308 1010 308 986 m 451 0 l 303 0 q 144 57 200 0 q 88 215 88 114 l 88 678 q 144 837 88 781 q 303 893 200 893 l 451 893 q 610 837 554 893 q 667 678 667 781 l 667 628 q 643 603 667 603 l 556 603 q 532 628 532 603 l 532 672 q 432 775 532 775 l 322 775 q 222 672 222 775 l 222 221 q 322 118 222 118 l 432 118 q 532 221 532 118 l 532 346 q 517 360 532 360 l 404 360 q 381 383 381 360 l 381 454 q 404 478 381 478 l 638 478 q 667 449 667 478 l 667 215 q 610 57 667 114 q 451 0 553 0 z "},"ġ":{"ha":714,"x_min":76,"x_max":628,"o":"m 313 819 l 313 954 q 335 976 313 976 l 426 976 q 449 954 449 976 l 449 819 q 426 797 449 797 l 335 797 q 313 819 313 797 m 346 35 l 283 35 q 130 91 183 35 q 76 250 76 147 l 76 493 q 133 652 76 596 q 292 708 190 708 l 603 708 q 628 685 628 708 l 628 -3 q 570 -160 628 -104 q 411 -217 513 -217 l 150 -217 q 126 -194 126 -217 l 126 -122 q 150 -99 126 -99 l 390 -99 q 492 4 492 -99 l 492 110 l 486 110 q 346 35 451 35 m 492 271 l 492 576 q 476 590 492 590 l 311 590 q 213 488 213 590 l 213 257 q 311 154 213 154 l 378 154 q 492 271 492 154 z "},"Ģ":{"ha":754,"x_min":88,"x_max":667,"o":"m 458 -67 l 458 -132 q 432 -215 458 -175 l 374 -318 q 353 -331 365 -331 q 333 -308 333 -331 l 333 -68 q 357 -44 333 -44 l 435 -44 q 458 -67 458 -44 m 451 0 l 303 0 q 144 57 200 0 q 88 215 88 114 l 88 678 q 144 837 88 781 q 303 893 200 893 l 451 893 q 610 837 554 893 q 667 678 667 781 l 667 628 q 643 603 667 603 l 556 603 q 532 628 532 603 l 532 672 q 432 775 532 775 l 322 775 q 222 672 222 775 l 222 221 q 322 118 222 118 l 432 118 q 532 221 532 118 l 532 346 q 517 360 532 360 l 404 360 q 381 383 381 360 l 381 454 q 404 478 381 478 l 638 478 q 667 449 667 478 l 667 215 q 610 57 667 114 q 451 0 553 0 z "},"ģ":{"ha":714,"x_min":76,"x_max":628,"o":"m 346 35 l 283 35 q 130 91 183 35 q 76 250 76 147 l 76 493 q 133 652 76 596 q 292 708 190 708 l 603 708 q 628 685 628 708 l 628 -3 q 570 -160 628 -104 q 411 -217 513 -217 l 150 -217 q 126 -194 126 -217 l 126 -122 q 150 -99 126 -99 l 390 -99 q 492 4 492 -99 l 492 110 l 486 110 q 346 35 451 35 m 492 271 l 492 576 q 476 590 492 590 l 311 590 q 213 488 213 590 l 213 257 q 311 154 213 154 l 378 154 q 492 271 492 154 m 319 818 l 319 883 q 344 968 319 926 l 404 1071 q 424 1082 411 1082 q 443 1061 443 1082 l 443 819 q 421 796 443 796 l 342 796 q 319 818 319 796 z "},"ĥ":{"ha":718,"x_min":88,"x_max":639,"o":"m 563 893 l 500 893 q 478 907 483 893 l 422 1014 l 365 907 q 344 893 360 893 l 281 893 q 271 910 261 893 l 358 1057 q 388 1072 368 1072 l 456 1072 q 485 1057 475 1072 l 572 910 q 563 893 582 893 m 199 0 l 111 0 q 88 24 88 0 l 88 953 q 111 976 88 976 l 199 976 q 222 953 222 976 l 222 635 l 228 635 q 368 708 261 708 l 429 708 q 585 653 531 708 q 639 493 639 597 l 639 24 q 614 0 639 0 l 526 0 q 503 24 503 0 l 503 488 q 401 590 503 590 l 336 590 q 222 472 222 590 l 222 24 q 199 0 222 0 z "},"Ħ":{"ha":801,"x_min":32,"x_max":810,"o":"m 235 0 l 147 0 q 122 24 122 0 l 122 608 q 108 624 122 624 l 56 624 q 37 628 42 624 q 32 646 32 633 l 32 701 q 56 725 32 725 l 108 725 q 122 740 122 725 l 122 869 q 147 893 122 893 l 235 893 q 260 869 260 893 l 260 740 q 274 725 260 725 l 568 725 q 582 738 582 725 l 582 869 q 606 893 582 893 l 693 893 q 718 869 718 893 l 718 740 q 733 725 718 725 l 786 725 q 810 701 810 725 l 810 646 q 786 624 810 624 l 733 624 q 718 608 718 624 l 718 24 q 693 0 718 0 l 606 0 q 582 24 582 0 l 582 358 q 567 374 582 374 l 274 374 q 260 358 260 374 l 260 24 q 235 0 260 0 m 274 492 l 567 492 q 582 507 582 492 l 582 608 q 567 624 582 624 l 274 624 q 260 608 260 624 l 260 507 q 274 492 260 492 z "},"ħ":{"ha":781,"x_min":18,"x_max":696,"o":"m 249 0 l 161 0 q 136 24 136 0 l 136 739 q 122 753 136 753 l 42 753 q 18 776 18 753 l 18 832 q 42 856 18 856 l 122 856 q 136 871 136 856 l 136 953 q 161 976 136 976 l 249 976 q 274 953 274 976 l 274 871 q 288 856 274 856 l 485 856 q 508 832 508 856 l 508 776 q 485 753 508 753 l 288 753 q 274 739 274 753 l 274 560 l 279 560 q 331 616 293 596 q 417 636 368 636 l 481 636 q 639 579 582 636 q 696 421 696 522 l 696 24 q 671 0 696 0 l 583 0 q 560 24 560 0 l 560 414 q 460 517 560 517 l 386 517 q 274 400 274 517 l 274 24 q 249 0 274 0 z "},"Ĩ":{"ha":350,"x_min":17,"x_max":336,"o":"m 108 975 q 17 1082 17 975 l 17 1136 q 29 1150 17 1150 l 71 1150 q 85 1136 85 1150 l 85 1108 q 90 1060 85 1072 q 110 1049 96 1049 q 132 1058 124 1049 q 160 1101 140 1068 q 197 1145 179 1135 q 243 1156 214 1156 q 336 1049 336 1156 l 336 996 q 322 979 336 979 l 281 979 q 267 996 267 979 l 267 1022 q 261 1070 267 1058 q 242 1082 256 1082 q 220 1074 228 1082 q 194 1033 213 1065 q 156 988 176 1000 q 108 975 136 975 m 243 869 l 243 24 q 219 0 243 0 l 132 0 q 108 24 108 0 l 108 869 q 132 893 108 893 l 219 893 q 243 869 243 893 z "},"ĩ":{"ha":324,"x_min":3,"x_max":322,"o":"m 3 906 l 3 958 q 15 974 3 974 l 57 974 q 71 958 71 974 l 71 932 q 76 884 71 896 q 96 872 82 872 q 118 882 110 872 q 146 924 126 892 q 183 968 165 957 q 229 979 200 979 q 322 872 322 979 l 322 819 q 308 803 322 803 l 267 803 q 253 819 253 803 l 253 844 q 247 892 253 881 q 227 904 242 904 q 206 896 213 904 q 181 855 199 888 q 143 810 163 822 q 94 799 124 799 q 3 906 3 799 m 94 24 l 94 685 q 117 708 94 708 l 206 708 q 229 685 229 708 l 229 24 q 224 5 229 10 q 207 0 219 0 l 118 0 q 94 24 94 0 z "},"Ī":{"ha":350,"x_min":14,"x_max":338,"o":"m 314 1028 l 38 1028 q 14 1051 14 1028 l 14 1100 q 38 1124 14 1124 l 314 1124 q 338 1100 338 1124 l 338 1051 q 314 1028 338 1028 m 243 869 l 243 24 q 219 0 243 0 l 132 0 q 108 24 108 0 l 108 869 q 132 893 108 893 l 219 893 q 243 869 243 893 z "},"ī":{"ha":322,"x_min":-1,"x_max":322,"o":"m 300 840 l 22 840 q -1 864 -1 840 l -1 911 q 22 935 -1 935 l 300 935 q 322 911 322 935 l 322 864 q 300 840 322 840 m 94 24 l 94 685 q 117 708 94 708 l 206 708 q 229 685 229 708 l 229 24 q 224 5 229 10 q 207 0 219 0 l 118 0 q 94 24 94 0 z "},"Ĭ":{"ha":351,"x_min":24,"x_max":328,"o":"m 24 1144 q 40 1161 24 1161 l 93 1161 q 111 1144 111 1161 l 111 1131 q 125 1070 111 1088 q 171 1053 139 1053 l 181 1053 q 229 1071 215 1053 q 243 1131 243 1089 l 243 1144 q 260 1161 243 1161 l 311 1161 q 328 1144 328 1161 l 328 1129 q 193 982 328 982 l 158 982 q 24 1129 24 982 l 24 1144 m 243 869 l 243 24 q 219 0 243 0 l 132 0 q 108 24 108 0 l 108 869 q 132 893 108 893 l 219 893 q 243 869 243 893 z "},"ĭ":{"ha":324,"x_min":10,"x_max":314,"o":"m 94 24 l 94 685 q 117 708 94 708 l 206 708 q 229 685 229 708 l 229 24 q 224 5 229 10 q 207 0 219 0 l 118 0 q 94 24 94 0 m 10 944 l 10 960 q 26 976 10 976 l 79 976 q 97 960 97 976 l 97 946 q 111 885 97 903 q 157 868 125 868 l 167 868 q 215 886 201 868 q 229 946 229 904 l 229 960 q 246 976 229 976 l 297 976 q 314 960 314 976 l 314 944 q 179 797 314 797 l 144 797 q 10 944 10 797 z "},"Į":{"ha":351,"x_min":69,"x_max":243,"o":"m 219 0 l 211 0 l 150 -86 l 207 -86 q 233 -91 226 -86 q 240 -110 240 -96 q 200 -147 240 -133 q 120 -161 160 -161 q 70 -140 81 -161 q 78 -93 60 -118 l 140 0 l 132 0 q 108 24 108 0 l 108 869 q 132 893 108 893 l 219 893 q 243 869 243 893 l 243 24 q 219 0 243 0 z "},"į":{"ha":324,"x_min":67,"x_max":229,"o":"m 117 975 l 207 975 q 229 953 229 975 l 229 826 q 207 803 229 803 l 117 803 q 94 826 94 803 l 94 953 q 117 975 94 975 m 117 708 l 206 708 q 229 685 229 708 l 229 24 q 224 5 229 10 q 207 0 219 0 l 190 0 q 153 -58 172 -24 q 136 -92 135 -92 q 194 -87 178 -92 q 219 -108 225 -86 q 179 -147 218 -132 q 106 -161 140 -161 q 67 -132 72 -161 q 79 -79 61 -103 l 126 0 l 118 0 q 94 24 94 0 l 94 685 q 117 708 94 708 z "},"İ":{"ha":351,"x_min":108,"x_max":243,"o":"m 243 869 l 243 24 q 219 0 243 0 l 132 0 q 108 24 108 0 l 108 869 q 132 893 108 893 l 219 893 q 243 869 243 893 m 108 992 l 108 1117 q 131 1140 108 1140 l 221 1140 q 243 1118 243 1140 l 243 992 q 221 968 243 968 l 131 968 q 108 992 108 968 z "},"ı":{"ha":332,"x_min":97,"x_max":233,"o":"m 97 24 l 97 685 q 121 708 97 708 l 210 708 q 233 685 233 708 l 233 24 q 228 5 233 10 q 211 0 224 0 l 121 0 q 97 24 97 0 z "},"Ĳ":{"ha":1029,"x_min":111,"x_max":935,"o":"m 824 893 l 911 893 q 935 871 935 893 l 935 215 q 878 57 935 114 q 719 0 821 0 l 581 0 q 421 57 478 0 q 364 215 364 114 l 364 340 q 388 364 364 364 l 476 364 q 500 340 500 364 l 500 221 q 600 118 500 118 l 699 118 q 799 221 799 118 l 799 869 q 824 893 799 893 m 247 869 l 247 24 q 224 0 247 0 l 135 0 q 111 24 111 0 l 111 869 q 135 893 111 893 l 224 893 q 247 869 247 893 z "},"ĳ":{"ha":643,"x_min":94,"x_max":549,"o":"m 94 24 l 94 685 q 117 708 94 708 l 206 708 q 229 685 229 708 l 229 24 q 224 5 229 10 q 207 0 219 0 l 118 0 q 94 24 94 0 m 94 826 l 94 953 q 117 975 94 975 l 207 975 q 229 953 229 975 l 229 826 q 207 803 229 803 l 117 803 q 94 826 94 803 m 413 826 l 413 953 q 435 975 413 975 l 525 975 q 549 953 549 975 l 549 826 q 525 803 549 803 l 435 803 q 413 826 413 803 m 331 -217 l 258 -217 q 235 -193 235 -217 l 235 -122 q 258 -99 235 -99 l 293 -99 q 385 -71 358 -99 q 413 22 413 -43 l 413 685 q 438 708 413 708 l 525 708 q 549 685 549 708 l 549 -1 q 491 -160 549 -103 q 331 -217 433 -217 z "},"Ĵ":{"ha":690,"x_min":47,"x_max":699,"o":"m 507 893 l 594 893 q 618 871 618 893 l 618 215 q 561 57 618 114 q 403 0 504 0 l 264 0 q 104 57 161 0 q 47 215 47 114 l 47 340 q 72 364 47 364 l 160 364 q 183 340 183 364 l 183 221 q 283 118 183 118 l 382 118 q 482 221 482 118 l 482 869 q 507 893 482 893 m 690 982 l 626 982 q 604 996 610 982 l 549 1104 l 493 996 q 471 982 486 982 l 407 982 q 396 987 399 982 q 397 999 393 992 l 486 1147 q 515 1161 496 1161 l 582 1161 q 611 1147 601 1161 l 699 999 q 690 982 710 982 z "},"ĵ":{"ha":319,"x_min":-85,"x_max":308,"o":"m 300 797 l 236 797 q 214 811 221 797 l 158 919 l 101 811 q 81 797 97 797 l 18 797 q 8 814 -3 797 l 94 963 q 125 976 104 976 l 192 976 q 222 963 213 976 l 308 814 q 300 797 319 797 m 13 -217 l -61 -217 q -85 -193 -85 -217 l -85 -122 q -61 -99 -85 -99 l -25 -99 q 67 -71 40 -99 q 94 22 94 -43 l 94 685 q 118 708 94 708 l 206 708 q 229 685 229 708 l 229 -1 q 172 -160 229 -103 q 13 -217 114 -217 z "},"Ķ":{"ha":761,"x_min":101,"x_max":733,"o":"m 475 -67 l 475 -132 q 450 -215 475 -175 l 392 -318 q 371 -331 383 -331 q 351 -308 351 -331 l 351 -68 q 374 -44 351 -44 l 454 -44 q 475 -67 475 -44 m 213 0 l 125 0 q 101 24 101 0 l 101 869 q 125 893 101 893 l 213 893 q 236 869 236 893 l 236 429 l 240 429 q 276 499 254 467 l 542 869 q 586 893 557 893 l 689 893 q 699 867 718 893 l 428 499 l 733 28 q 717 0 750 0 l 639 0 q 586 24 601 0 l 346 400 l 236 271 l 236 24 q 213 0 236 0 z "},"ķ":{"ha":633,"x_min":88,"x_max":622,"o":"m 490 708 l 590 708 q 608 701 603 708 q 604 681 613 693 l 408 369 l 408 364 l 619 28 q 622 8 626 17 q 601 0 617 0 l 511 0 q 464 24 479 0 l 268 344 q 268 382 258 363 l 450 686 q 490 708 463 708 m 199 0 l 111 0 q 88 24 88 0 l 88 953 q 111 976 88 976 l 199 976 q 222 953 222 976 l 222 24 q 199 0 222 0 m 406 -67 l 406 -132 q 381 -215 406 -175 l 322 -318 q 301 -331 311 -331 q 282 -308 282 -331 l 282 -68 q 304 -44 282 -44 l 385 -44 q 406 -67 406 -44 z "},"Ĺ":{"ha":625,"x_min":101,"x_max":599,"o":"m 232 1161 l 340 1161 q 356 1154 353 1161 q 351 1138 360 1147 l 233 999 q 203 982 222 982 l 136 982 q 124 1006 114 982 l 196 1139 q 232 1161 207 1161 m 575 0 l 125 0 q 101 24 101 0 l 101 869 q 125 893 101 893 l 213 893 q 236 869 236 893 l 236 135 q 253 121 236 121 l 575 121 q 599 96 599 121 l 599 24 q 575 0 599 0 z "},"ĺ":{"ha":318,"x_min":94,"x_max":344,"o":"m 221 1224 l 329 1224 q 344 1217 340 1224 q 342 1200 349 1210 l 224 1060 q 190 1044 208 1044 l 125 1044 q 114 1068 103 1044 l 186 1201 q 221 1224 196 1224 m 206 0 l 118 0 q 94 24 94 0 l 94 953 q 118 976 94 976 l 206 976 q 229 953 229 976 l 229 24 q 206 0 229 0 z "},"Ļ":{"ha":625,"x_min":101,"x_max":599,"o":"m 408 -67 l 408 -132 q 382 -215 408 -172 l 324 -318 q 303 -331 315 -331 q 283 -308 283 -331 l 283 -68 q 306 -44 283 -44 l 386 -44 q 408 -67 408 -44 m 575 0 l 125 0 q 101 24 101 0 l 101 869 q 125 893 101 893 l 213 893 q 236 869 236 893 l 236 135 q 253 121 236 121 l 575 121 q 599 96 599 121 l 599 24 q 575 0 599 0 z "},"ļ":{"ha":324,"x_min":94,"x_max":229,"o":"m 225 -67 l 225 -132 q 199 -215 225 -175 l 140 -318 q 119 -331 132 -331 q 101 -308 101 -331 l 101 -68 q 124 -44 101 -44 l 203 -44 q 225 -67 225 -44 m 206 0 l 118 0 q 94 24 94 0 l 94 953 q 118 976 94 976 l 206 976 q 229 953 229 976 l 229 24 q 206 0 229 0 z "},"Ľ":{"ha":625,"x_min":101,"x_max":599,"o":"m 531 871 l 531 808 q 506 710 531 769 l 446 574 q 425 561 439 561 q 407 583 407 561 l 407 869 q 429 893 407 893 l 508 893 q 531 871 531 893 m 575 0 l 125 0 q 101 24 101 0 l 101 869 q 125 893 101 893 l 213 893 q 236 869 236 893 l 236 135 q 253 121 236 121 l 575 121 q 599 96 599 121 l 599 24 q 575 0 599 0 z "},"ľ":{"ha":453,"x_min":94,"x_max":440,"o":"m 440 954 l 440 892 q 415 793 440 847 l 356 657 q 336 644 349 644 q 317 667 317 644 l 317 953 q 339 976 317 976 l 418 976 q 440 954 440 976 m 206 0 l 118 0 q 94 24 94 0 l 94 953 q 118 976 94 976 l 206 976 q 229 953 229 976 l 229 24 q 206 0 229 0 z "},"Ŀ":{"ha":693,"x_min":108,"x_max":607,"o":"m 583 0 l 132 0 q 108 24 108 0 l 108 869 q 132 893 108 893 l 221 893 q 244 869 244 893 l 244 135 q 260 121 244 121 l 583 121 q 607 96 607 121 l 607 24 q 583 0 607 0 m 533 515 l 533 371 q 511 347 533 347 l 417 347 q 393 372 393 347 l 393 514 q 417 538 393 538 l 511 538 q 533 515 533 538 z "},"ŀ":{"ha":510,"x_min":101,"x_max":472,"o":"m 214 0 l 125 0 q 101 24 101 0 l 101 953 q 125 976 101 976 l 214 976 q 238 953 238 976 l 238 24 q 214 0 238 0 m 472 515 l 472 371 q 451 347 472 347 l 356 347 q 333 372 333 347 l 333 514 q 356 538 333 538 l 451 538 q 472 515 472 538 z "},"Ł":{"ha":711,"x_min":19,"x_max":633,"o":"m 611 0 l 160 0 q 136 24 136 0 l 136 443 l 43 390 q 26 389 33 385 q 19 404 19 393 l 19 475 q 43 510 19 496 l 136 561 l 136 869 q 160 893 136 893 l 249 893 q 272 869 272 893 l 272 640 l 396 710 q 419 696 419 719 l 419 624 q 396 588 419 603 l 272 518 l 272 135 q 288 121 272 121 l 611 121 q 633 96 633 121 l 633 24 q 611 0 633 0 z "},"ł":{"ha":433,"x_min":25,"x_max":407,"o":"m 260 0 l 172 0 q 149 24 149 0 l 149 453 l 49 396 q 25 411 25 386 l 25 485 q 49 518 25 506 l 149 574 l 149 953 q 172 976 149 976 l 260 976 q 285 953 285 976 l 285 651 l 385 708 q 407 694 407 719 l 407 622 q 385 588 407 599 l 285 531 l 285 24 q 260 0 285 0 z "},"Ń":{"ha":810,"x_min":101,"x_max":708,"o":"m 467 1161 l 574 1161 q 590 1154 586 1161 q 586 1138 593 1147 l 468 999 q 438 982 458 982 l 369 982 q 358 1006 349 982 l 431 1139 q 467 1161 442 1161 m 211 0 l 125 0 q 101 24 101 0 l 101 869 q 125 893 101 893 l 203 893 q 233 878 225 893 l 569 274 l 575 274 l 575 869 q 599 893 575 893 l 685 893 q 708 869 708 893 l 708 24 q 685 0 708 0 l 610 0 q 574 22 588 0 l 240 619 l 235 619 l 235 24 q 211 0 235 0 z "},"ń":{"ha":718,"x_min":88,"x_max":639,"o":"m 429 976 l 539 976 q 553 970 550 976 q 550 953 557 964 l 432 814 q 399 797 419 797 l 333 797 q 322 821 311 797 l 394 954 q 429 976 406 976 m 199 0 l 111 0 q 88 24 88 0 l 88 685 q 111 708 88 708 l 199 708 q 222 685 222 708 l 222 635 l 228 635 q 368 708 261 708 l 429 708 q 585 653 531 708 q 639 493 639 597 l 639 24 q 614 0 639 0 l 526 0 q 503 24 503 0 l 503 488 q 401 590 503 590 l 336 590 q 222 472 222 590 l 222 24 q 199 0 222 0 z "},"Ņ":{"ha":810,"x_min":101,"x_max":708,"o":"m 475 -67 l 475 -132 q 450 -215 475 -175 l 390 -318 q 371 -331 383 -331 q 351 -308 351 -331 l 351 -68 q 374 -44 351 -44 l 453 -44 q 475 -67 475 -44 m 211 0 l 125 0 q 101 24 101 0 l 101 869 q 125 893 101 893 l 203 893 q 233 878 225 893 l 569 274 l 575 274 l 575 869 q 599 893 575 893 l 685 893 q 708 869 708 893 l 708 24 q 685 0 708 0 l 610 0 q 574 22 588 0 l 240 619 l 235 619 l 235 24 q 211 0 235 0 z "},"ņ":{"ha":715,"x_min":88,"x_max":639,"o":"m 425 -67 l 425 -132 q 399 -215 425 -175 l 342 -318 q 321 -331 331 -331 q 301 -308 301 -331 l 301 -68 q 324 -44 301 -44 l 403 -44 q 425 -67 425 -44 m 199 0 l 111 0 q 88 24 88 0 l 88 685 q 111 708 88 708 l 199 708 q 222 685 222 708 l 222 635 l 228 635 q 368 708 261 708 l 429 708 q 585 653 531 708 q 639 493 639 597 l 639 24 q 614 0 639 0 l 526 0 q 503 24 503 0 l 503 488 q 401 590 503 590 l 336 590 q 222 472 222 590 l 222 24 q 199 0 222 0 z "},"Ň":{"ha":810,"x_min":101,"x_max":708,"o":"m 211 0 l 125 0 q 101 24 101 0 l 101 869 q 125 893 101 893 l 203 893 q 233 878 225 893 l 569 274 l 575 274 l 575 869 q 599 893 575 893 l 685 893 q 708 869 708 893 l 708 24 q 685 0 708 0 l 610 0 q 574 22 588 0 l 240 619 l 235 619 l 235 24 q 211 0 235 0 m 381 982 q 350 996 360 982 l 263 1144 q 261 1156 258 1150 q 272 1161 264 1161 l 335 1161 q 357 1147 351 1161 l 413 1039 l 469 1147 q 490 1161 475 1161 l 556 1161 q 566 1156 564 1161 q 564 1144 568 1150 l 476 996 q 447 982 467 982 l 381 982 z "},"ň":{"ha":718,"x_min":88,"x_max":639,"o":"m 329 797 q 299 811 308 797 l 213 960 q 222 976 201 976 l 285 976 q 307 963 301 976 l 363 854 l 418 963 q 440 976 425 976 l 504 976 q 513 960 524 976 l 426 811 q 396 797 417 797 l 329 797 m 199 0 l 111 0 q 88 24 88 0 l 88 685 q 111 708 88 708 l 199 708 q 222 685 222 708 l 222 635 l 228 635 q 368 708 261 708 l 429 708 q 585 653 531 708 q 639 493 639 597 l 639 24 q 614 0 639 0 l 526 0 q 503 24 503 0 l 503 488 q 401 590 503 590 l 336 590 q 222 472 222 590 l 222 24 q 199 0 222 0 z "},"Ŋ":{"ha":781,"x_min":108,"x_max":717,"o":"m 500 -222 l 426 -222 q 403 -199 403 -222 l 403 -128 q 426 -104 403 -104 l 461 -104 q 552 -76 525 -104 q 579 17 579 -49 l 579 22 q 418 316 551 71 q 250 619 285 561 l 244 619 l 244 24 q 221 0 244 0 l 132 0 q 108 24 108 0 l 108 869 q 132 893 108 893 l 213 893 q 242 878 233 893 l 575 274 l 581 274 l 581 869 q 604 893 581 893 l 693 893 q 717 869 717 893 l 717 -7 q 659 -165 717 -108 q 500 -222 601 -222 z "},"ŋ":{"ha":718,"x_min":88,"x_max":639,"o":"m 421 -222 l 349 -222 q 325 -199 325 -222 l 325 -128 q 349 -104 325 -104 l 383 -104 q 476 -76 449 -104 q 503 17 503 -49 l 503 488 q 401 590 503 590 l 336 590 q 222 472 222 590 l 222 24 q 199 0 222 0 l 111 0 q 88 24 88 0 l 88 685 q 111 708 88 708 l 199 708 q 222 685 222 708 l 222 635 l 228 635 q 368 708 261 708 l 422 708 q 581 652 524 708 q 639 493 639 596 l 639 -7 q 581 -165 639 -108 q 421 -222 522 -222 z "},"Ō":{"ha":767,"x_min":88,"x_max":681,"o":"m 522 1028 l 244 1028 q 221 1051 221 1028 l 221 1100 q 244 1124 221 1124 l 522 1124 q 546 1100 546 1124 l 546 1051 q 522 1028 546 1028 m 322 118 l 443 118 q 544 221 544 118 l 544 672 q 443 775 544 775 l 322 775 q 222 672 222 775 l 222 221 q 322 118 222 118 m 464 0 l 303 0 q 144 57 200 0 q 88 215 88 114 l 88 678 q 144 837 88 781 q 303 893 200 893 l 464 893 q 624 837 567 893 q 681 678 681 781 l 681 215 q 624 57 681 114 q 464 0 567 0 z "},"ō":{"ha":700,"x_min":74,"x_max":628,"o":"m 489 840 l 211 840 q 188 864 188 840 l 188 911 q 211 935 188 935 l 489 935 q 513 911 513 935 l 513 864 q 489 840 513 840 m 411 0 l 289 0 q 130 57 186 0 q 74 215 74 114 l 74 493 q 130 652 74 596 q 289 708 186 708 l 411 708 q 570 652 513 708 q 628 493 628 596 l 628 215 q 570 57 628 114 q 411 0 513 0 m 308 118 l 393 118 q 493 219 493 118 l 493 489 q 393 590 493 590 l 308 590 q 232 566 256 590 q 208 489 208 542 l 208 219 q 232 142 208 167 q 308 118 256 118 z "},"Ŏ":{"ha":767,"x_min":88,"x_max":681,"o":"m 232 1144 q 249 1161 232 1161 l 301 1161 q 318 1144 318 1161 l 318 1131 q 333 1071 318 1089 q 379 1053 347 1053 l 388 1053 q 437 1071 422 1053 q 451 1131 451 1089 l 451 1144 q 468 1161 451 1161 l 519 1161 q 536 1144 536 1161 l 536 1129 q 401 982 536 982 l 367 982 q 232 1129 232 982 l 232 1144 m 322 118 l 443 118 q 544 221 544 118 l 544 672 q 443 775 544 775 l 322 775 q 222 672 222 775 l 222 221 q 322 118 222 118 m 464 0 l 303 0 q 144 57 200 0 q 88 215 88 114 l 88 678 q 144 837 88 781 q 303 893 200 893 l 464 893 q 624 837 567 893 q 681 678 681 781 l 681 215 q 624 57 681 114 q 464 0 567 0 z "},"ŏ":{"ha":700,"x_min":74,"x_max":628,"o":"m 308 118 l 393 118 q 493 219 493 118 l 493 489 q 393 590 493 590 l 308 590 q 232 566 256 590 q 208 489 208 542 l 208 219 q 232 142 208 167 q 308 118 256 118 m 411 0 l 289 0 q 130 57 186 0 q 74 215 74 114 l 74 493 q 130 652 74 596 q 289 708 186 708 l 411 708 q 570 652 513 708 q 628 493 628 596 l 628 215 q 570 57 628 114 q 411 0 513 0 m 199 944 l 199 960 q 215 976 199 976 l 268 976 q 285 960 285 976 l 285 946 q 299 885 285 903 q 346 868 313 868 l 356 868 q 403 886 389 868 q 418 946 418 904 l 418 960 q 435 976 418 976 l 485 976 q 503 960 503 976 l 503 944 q 368 797 503 797 l 332 797 q 233 835 268 797 q 199 944 199 872 z "},"Ő":{"ha":767,"x_min":88,"x_max":681,"o":"m 349 1161 l 421 1161 q 433 1138 447 1161 l 329 999 q 299 982 317 982 l 254 982 q 243 1006 231 982 l 314 1139 q 349 1161 326 1161 m 546 1161 l 618 1161 q 629 1138 644 1161 l 526 999 q 494 982 511 982 l 451 982 q 440 1006 428 982 l 511 1139 q 546 1161 521 1161 m 322 118 l 443 118 q 544 221 544 118 l 544 672 q 443 775 544 775 l 322 775 q 222 672 222 775 l 222 221 q 322 118 222 118 m 464 0 l 303 0 q 144 57 200 0 q 88 215 88 114 l 88 678 q 144 837 88 781 q 303 893 200 893 l 464 893 q 624 837 567 893 q 681 678 681 781 l 681 215 q 624 57 681 114 q 464 0 567 0 z "},"ő":{"ha":700,"x_min":74,"x_max":628,"o":"m 319 976 l 392 976 q 403 953 418 976 l 299 814 q 269 797 289 797 l 225 797 q 214 821 203 797 l 285 954 q 319 976 294 976 m 517 976 l 588 976 q 600 953 615 976 l 496 814 q 465 797 483 797 l 422 797 q 411 821 397 797 l 482 954 q 517 976 492 976 m 411 0 l 289 0 q 130 57 186 0 q 74 215 74 114 l 74 493 q 130 652 74 596 q 289 708 186 708 l 411 708 q 570 652 513 708 q 628 493 628 596 l 628 215 q 570 57 628 114 q 411 0 513 0 m 308 118 l 393 118 q 493 219 493 118 l 493 489 q 393 590 493 590 l 308 590 q 232 566 256 590 q 208 489 208 542 l 208 219 q 232 142 208 167 q 308 118 256 118 z "},"Œ":{"ha":1082,"x_min":94,"x_max":994,"o":"m 94 215 l 94 678 q 151 837 94 781 q 311 893 208 893 l 971 893 q 994 869 994 893 l 994 799 q 971 775 994 775 l 661 775 q 647 761 647 775 l 647 526 q 661 513 647 513 l 924 513 q 947 489 947 513 l 947 418 q 924 394 947 394 l 661 394 q 647 381 647 394 l 647 133 q 661 118 647 118 l 971 118 q 994 94 994 118 l 994 24 q 971 0 994 0 l 311 0 q 151 57 208 0 q 94 215 94 114 m 332 118 l 496 118 q 513 133 513 118 l 513 761 q 496 775 513 775 l 332 775 q 232 672 232 775 l 232 221 q 332 118 232 118 z "},"œ":{"ha":1107,"x_min":74,"x_max":1038,"o":"m 394 0 l 289 0 q 130 57 186 0 q 74 215 74 114 l 74 493 q 130 652 74 596 q 289 708 186 708 l 388 708 q 568 622 511 708 q 739 708 613 708 l 821 708 q 980 652 922 708 q 1038 493 1038 596 l 1038 317 q 1013 292 1038 292 l 642 292 q 628 278 628 292 l 628 221 q 728 118 628 118 l 1008 118 q 1031 94 1031 118 l 1031 22 q 1026 5 1031 10 q 1008 0 1022 0 l 731 0 q 619 22 661 0 q 550 92 578 44 q 394 0 517 0 m 642 386 l 886 386 q 901 400 901 386 l 901 488 q 801 590 901 590 l 728 590 q 628 488 628 590 l 628 400 q 642 386 628 386 m 308 118 l 390 118 q 490 221 490 118 l 490 488 q 390 590 490 590 l 308 590 q 208 488 208 590 l 208 221 q 308 118 208 118 z "},"Ŕ":{"ha":753,"x_min":101,"x_max":689,"o":"m 410 1161 l 518 1161 q 534 1154 531 1161 q 529 1138 538 1147 l 411 999 q 381 982 400 982 l 314 982 q 301 1006 292 982 l 374 1139 q 410 1161 385 1161 m 213 0 l 125 0 q 101 24 101 0 l 101 869 q 125 893 101 893 l 450 893 q 609 835 551 893 q 667 676 667 778 l 667 560 q 535 358 667 400 l 535 353 l 689 28 q 671 0 704 0 l 585 0 q 542 24 551 0 l 393 343 l 253 343 q 236 329 236 343 l 236 24 q 213 0 236 0 m 251 454 l 428 454 q 531 556 531 454 l 531 672 q 428 775 531 775 l 251 775 q 236 761 236 775 l 236 468 q 251 454 236 454 z "},"ŕ":{"ha":465,"x_min":88,"x_max":444,"o":"m 292 976 l 400 976 q 413 953 428 976 l 294 814 q 263 797 282 797 l 196 797 q 185 821 175 797 l 257 954 q 292 976 268 976 m 199 0 l 111 0 q 88 24 88 0 l 88 685 q 111 708 88 708 l 199 708 q 222 685 222 708 l 222 632 l 228 632 q 281 688 242 667 q 369 708 321 708 l 421 708 q 444 685 444 708 l 444 613 q 421 590 444 586 l 338 590 q 222 464 222 590 l 222 24 q 199 0 222 0 z "},"Ŗ":{"ha":753,"x_min":101,"x_max":689,"o":"m 451 -67 l 451 -132 q 425 -215 451 -175 l 367 -318 q 346 -331 358 -331 q 326 -308 326 -331 l 326 -68 q 350 -44 326 -44 l 428 -44 q 451 -67 451 -44 m 213 0 l 125 0 q 101 24 101 0 l 101 869 q 125 893 101 893 l 450 893 q 609 835 551 893 q 667 676 667 778 l 667 560 q 535 358 667 400 l 535 353 l 689 28 q 671 0 704 0 l 585 0 q 542 24 551 0 l 393 343 l 253 343 q 236 329 236 343 l 236 24 q 213 0 236 0 m 251 454 l 428 454 q 531 556 531 454 l 531 672 q 428 775 531 775 l 251 775 q 236 761 236 775 l 236 468 q 251 454 236 454 z "},"ŗ":{"ha":465,"x_min":88,"x_max":444,"o":"m 218 -67 l 218 -132 q 192 -215 218 -175 l 133 -318 q 113 -331 125 -331 q 94 -308 94 -331 l 94 -68 q 117 -44 94 -44 l 196 -44 q 218 -67 218 -44 m 199 0 l 111 0 q 88 24 88 0 l 88 685 q 111 708 88 708 l 199 708 q 222 685 222 708 l 222 632 l 228 632 q 281 688 242 667 q 369 708 321 708 l 421 708 q 444 685 444 708 l 444 613 q 421 590 444 586 l 338 590 q 222 464 222 590 l 222 24 q 199 0 222 0 z "},"Ř":{"ha":753,"x_min":101,"x_max":689,"o":"m 326 982 q 297 996 307 982 l 211 1144 q 219 1161 200 1161 l 283 1161 q 304 1147 299 1161 l 361 1039 l 417 1147 q 439 1161 422 1161 l 503 1161 q 513 1156 511 1161 q 511 1144 515 1150 l 425 996 q 394 982 415 982 l 326 982 m 213 0 l 125 0 q 101 24 101 0 l 101 869 q 125 893 101 893 l 450 893 q 609 835 551 893 q 667 676 667 778 l 667 560 q 535 358 667 400 l 535 353 l 689 28 q 671 0 704 0 l 585 0 q 542 24 551 0 l 393 343 l 253 343 q 236 329 236 343 l 236 24 q 213 0 236 0 m 251 454 l 428 454 q 531 556 531 454 l 531 672 q 428 775 531 775 l 251 775 q 236 761 236 775 l 236 468 q 251 454 236 454 z "},"ř":{"ha":465,"x_min":88,"x_max":444,"o":"m 222 797 q 193 811 203 797 l 106 960 q 115 976 94 976 l 179 976 q 200 963 194 976 l 257 854 l 313 963 q 335 976 318 976 l 397 976 q 407 960 418 976 l 319 811 q 290 797 310 797 l 222 797 m 199 0 l 111 0 q 88 24 88 0 l 88 685 q 111 708 88 708 l 199 708 q 222 685 222 708 l 222 632 l 228 632 q 281 688 242 667 q 369 708 321 708 l 421 708 q 444 685 444 708 l 444 613 q 421 590 444 586 l 338 590 q 222 464 222 590 l 222 24 q 199 0 222 0 z "},"Ś":{"ha":761,"x_min":85,"x_max":675,"o":"m 85 217 l 85 253 q 108 276 85 276 l 197 276 q 221 253 221 276 l 221 228 q 247 144 221 169 q 332 118 272 118 l 428 118 q 514 145 488 118 q 540 233 540 172 l 540 265 q 506 335 540 310 q 422 369 472 361 q 313 390 372 376 q 203 422 253 404 q 119 490 153 440 q 85 618 85 540 l 85 676 q 142 835 85 778 q 301 893 200 893 l 449 893 q 609 835 551 893 q 667 676 667 778 l 667 646 q 643 622 667 622 l 554 622 q 531 646 531 622 l 531 664 q 505 749 531 724 q 419 775 479 775 l 332 775 q 247 748 272 775 q 221 656 221 721 l 221 613 q 311 528 221 550 q 399 511 351 518 q 496 490 447 504 q 585 453 544 476 q 650 384 625 431 q 675 271 675 338 l 675 217 q 617 58 675 115 q 458 0 560 0 l 303 0 q 143 58 201 0 q 85 217 85 115 m 421 1161 l 529 1161 q 545 1154 542 1161 q 540 1138 549 1147 l 424 999 q 392 982 411 982 l 325 982 q 313 1006 303 982 l 385 1139 q 421 1161 396 1161 z "},"ś":{"ha":604,"x_min":57,"x_max":547,"o":"m 332 976 l 440 976 q 455 970 451 976 q 451 953 458 964 l 335 814 q 301 797 322 797 l 236 797 q 225 821 214 797 l 297 954 q 332 976 307 976 m 340 0 l 85 0 q 61 24 61 0 l 61 92 q 85 114 61 114 l 318 114 q 408 176 408 114 l 408 193 q 343 278 408 249 l 192 350 q 89 424 121 383 q 57 529 57 464 q 256 708 57 708 l 486 708 q 508 685 508 708 l 508 617 q 486 593 508 593 l 283 593 q 219 578 242 593 q 197 540 197 564 l 197 525 q 268 447 197 481 l 421 369 q 520 294 493 338 q 547 181 547 250 q 340 0 547 0 z "},"Ŝ":{"ha":761,"x_min":85,"x_max":675,"o":"m 85 217 l 85 253 q 108 276 85 276 l 197 276 q 221 253 221 276 l 221 228 q 247 144 221 169 q 332 118 272 118 l 428 118 q 514 145 488 118 q 540 233 540 172 l 540 265 q 506 335 540 310 q 422 369 472 361 q 313 390 372 376 q 203 422 253 404 q 119 490 153 440 q 85 618 85 540 l 85 676 q 142 835 85 778 q 301 893 200 893 l 449 893 q 609 835 551 893 q 667 676 667 778 l 667 646 q 643 622 667 622 l 554 622 q 531 646 531 622 l 531 664 q 505 749 531 724 q 419 775 479 775 l 332 775 q 247 748 272 775 q 221 656 221 721 l 221 613 q 311 528 221 550 q 399 511 351 518 q 496 490 447 504 q 585 453 544 476 q 650 384 625 431 q 675 271 675 338 l 675 217 q 617 58 675 115 q 458 0 560 0 l 303 0 q 143 58 201 0 q 85 217 85 115 m 522 982 l 458 982 q 436 996 443 982 l 381 1104 l 324 996 q 303 982 319 982 l 240 982 q 231 999 219 982 l 318 1147 q 347 1161 328 1161 l 414 1161 q 444 1147 435 1161 l 532 999 q 522 982 543 982 z "},"ŝ":{"ha":604,"x_min":57,"x_max":547,"o":"m 438 797 l 374 797 q 353 811 356 797 l 296 919 l 240 811 q 218 797 233 797 l 154 797 q 144 803 146 797 q 146 814 142 808 l 232 963 q 263 976 242 976 l 329 976 q 360 963 350 976 l 446 814 q 448 803 450 808 q 438 797 446 797 m 340 0 l 85 0 q 61 24 61 0 l 61 92 q 85 114 61 114 l 318 114 q 408 176 408 114 l 408 193 q 343 278 408 249 l 192 350 q 89 424 121 383 q 57 529 57 464 q 256 708 57 708 l 486 708 q 508 685 508 708 l 508 617 q 486 593 508 593 l 283 593 q 219 578 242 593 q 197 540 197 564 l 197 525 q 268 447 197 481 l 421 369 q 520 294 493 338 q 547 181 547 250 q 340 0 547 0 z "},"Ş":{"ha":761,"x_min":85,"x_max":675,"o":"m 221 656 l 221 613 q 311 528 221 550 q 399 511 351 518 q 496 490 447 504 q 585 453 544 476 q 650 384 625 431 q 675 271 675 338 l 675 217 q 617 58 675 115 q 458 0 560 0 l 457 0 l 406 -53 l 406 -58 q 511 -156 511 -58 l 511 -176 q 386 -268 511 -268 l 335 -268 q 318 -264 322 -268 q 314 -247 314 -260 l 314 -224 q 318 -207 314 -211 q 335 -203 322 -203 l 374 -203 q 426 -195 413 -203 q 440 -165 440 -187 l 440 -162 q 427 -133 440 -140 q 374 -125 414 -125 l 346 -125 q 312 -101 321 -125 q 321 -57 303 -76 l 371 0 l 303 0 q 143 58 201 0 q 85 217 85 115 l 85 253 q 108 276 85 276 l 197 276 q 221 253 221 276 l 221 228 q 247 144 221 169 q 332 118 272 118 l 428 118 q 514 145 488 118 q 540 233 540 172 l 540 265 q 506 335 540 310 q 422 369 472 361 q 313 390 372 376 q 203 422 253 404 q 119 490 153 440 q 85 618 85 540 l 85 676 q 142 835 85 778 q 301 893 200 893 l 449 893 q 609 835 551 893 q 667 676 667 778 l 667 646 q 643 622 667 622 l 554 622 q 531 646 531 622 l 531 664 q 505 749 531 724 q 419 775 479 775 l 332 775 q 247 748 272 775 q 221 656 221 721 z "},"ş":{"ha":604,"x_min":57,"x_max":547,"o":"m 313 -58 q 417 -156 417 -58 l 417 -176 q 293 -268 417 -268 l 240 -268 q 223 -264 226 -268 q 219 -247 219 -260 l 219 -224 q 224 -207 219 -211 q 240 -203 228 -203 l 279 -203 q 332 -194 318 -203 q 346 -165 346 -186 l 346 -162 q 333 -133 346 -140 q 279 -125 319 -125 l 251 -125 q 217 -101 226 -125 q 226 -57 208 -76 l 276 0 l 85 0 q 61 24 61 0 l 61 92 q 85 114 61 114 l 318 114 q 408 176 408 114 l 408 193 q 343 278 408 249 l 192 350 q 89 424 121 383 q 57 529 57 464 q 256 708 57 708 l 486 708 q 508 685 508 708 l 508 617 q 486 593 508 593 l 283 593 q 219 578 242 593 q 197 540 197 564 l 197 525 q 268 447 197 481 l 421 369 q 520 294 493 338 q 547 181 547 250 q 364 0 547 10 l 313 -53 l 313 -58 z "},"Š":{"ha":761,"x_min":85,"x_max":675,"o":"m 85 217 l 85 253 q 108 276 85 276 l 197 276 q 221 253 221 276 l 221 228 q 247 144 221 169 q 332 118 272 118 l 428 118 q 514 145 488 118 q 540 233 540 172 l 540 265 q 506 335 540 310 q 422 369 472 361 q 313 390 372 376 q 203 422 253 404 q 119 490 153 440 q 85 618 85 540 l 85 676 q 142 835 85 778 q 301 893 200 893 l 449 893 q 609 835 551 893 q 667 676 667 778 l 667 646 q 643 622 667 622 l 554 622 q 531 646 531 622 l 531 664 q 505 749 531 724 q 419 775 479 775 l 332 775 q 247 748 272 775 q 221 656 221 721 l 221 613 q 311 528 221 550 q 399 511 351 518 q 496 490 447 504 q 585 453 544 476 q 650 384 625 431 q 675 271 675 338 l 675 217 q 617 58 675 115 q 458 0 560 0 l 303 0 q 143 58 201 0 q 85 217 85 115 m 407 982 l 340 982 q 310 996 319 982 l 222 1144 q 221 1156 218 1150 q 232 1161 224 1161 l 296 1161 q 318 1147 311 1161 l 374 1039 l 429 1147 q 451 1161 435 1161 l 515 1161 q 526 1156 524 1161 q 524 1144 528 1150 l 436 996 q 407 982 426 982 z "},"š":{"ha":604,"x_min":57,"x_max":547,"o":"m 263 797 q 232 811 242 797 l 146 960 q 154 976 136 976 l 218 976 q 240 963 233 976 l 296 854 l 353 963 q 374 976 356 976 l 438 976 q 446 960 456 976 l 360 811 q 329 797 350 797 l 263 797 m 340 0 l 85 0 q 61 24 61 0 l 61 92 q 85 114 61 114 l 318 114 q 408 176 408 114 l 408 193 q 343 278 408 249 l 192 350 q 89 424 121 383 q 57 529 57 464 q 256 708 57 708 l 486 708 q 508 685 508 708 l 508 617 q 486 593 508 593 l 283 593 q 219 578 242 593 q 197 540 197 564 l 197 525 q 268 447 197 481 l 421 369 q 520 294 493 338 q 547 181 547 250 q 340 0 547 0 z "},"Ţ":{"ha":603,"x_min":19,"x_max":585,"o":"m 364 -67 l 364 -132 q 339 -215 364 -175 l 279 -318 q 258 -331 272 -331 q 240 -308 240 -331 l 240 -68 q 263 -44 240 -44 l 342 -44 q 364 -67 364 -44 m 346 0 l 258 0 q 233 24 233 0 l 233 761 q 219 775 233 775 l 44 775 q 19 799 19 775 l 19 869 q 44 893 19 893 l 560 893 q 585 869 585 893 l 585 799 q 560 775 585 775 l 385 775 q 369 761 369 775 l 369 24 q 346 0 369 0 z "},"ţ":{"ha":488,"x_min":18,"x_max":442,"o":"m 347 -67 l 347 -132 q 322 -215 347 -175 l 263 -318 q 243 -331 254 -331 q 224 -308 224 -331 l 224 -68 q 246 -44 224 -44 l 325 -44 q 347 -67 347 -44 m 108 590 l 42 590 q 23 595 28 590 q 18 613 18 600 l 18 685 q 42 708 18 708 l 108 708 q 122 722 122 708 l 122 847 q 147 871 122 871 l 235 871 q 258 847 258 871 l 258 722 q 274 708 258 708 l 403 708 q 428 685 428 708 l 428 613 q 403 590 428 590 l 274 590 q 258 576 258 590 l 258 219 q 363 118 258 118 l 417 118 q 442 94 442 118 l 442 22 q 417 0 442 0 l 342 0 q 181 56 239 0 q 122 213 122 111 l 122 576 q 108 590 122 590 z "},"Ť":{"ha":603,"x_min":19,"x_max":585,"o":"m 271 982 q 242 996 251 982 l 153 1144 q 151 1156 149 1150 q 164 1161 154 1161 l 226 1161 q 247 1147 242 1161 l 304 1039 l 360 1147 q 382 1161 367 1161 l 446 1161 q 456 1144 467 1161 l 367 996 q 338 982 357 982 l 271 982 m 346 0 l 258 0 q 233 24 233 0 l 233 761 q 219 775 233 775 l 44 775 q 19 799 19 775 l 19 869 q 44 893 19 893 l 560 893 q 585 869 585 893 l 585 799 q 560 775 585 775 l 385 775 q 369 761 369 775 l 369 24 q 346 0 369 0 z "},"ť":{"ha":613,"x_min":18,"x_max":607,"o":"m 607 871 l 607 808 q 582 710 607 776 l 522 574 q 501 561 513 561 q 483 583 483 561 l 483 869 q 506 893 483 893 l 585 893 q 607 871 607 893 m 108 590 l 42 590 q 23 595 28 590 q 18 613 18 600 l 18 685 q 42 708 18 708 l 108 708 q 122 722 122 708 l 122 847 q 147 871 122 871 l 235 871 q 258 847 258 871 l 258 722 q 274 708 258 708 l 403 708 q 428 685 428 708 l 428 613 q 403 590 428 590 l 274 590 q 258 576 258 590 l 258 219 q 363 118 258 118 l 417 118 q 442 94 442 118 l 442 22 q 417 0 442 0 l 342 0 q 181 56 239 0 q 122 213 122 111 l 122 576 q 108 590 122 590 z "},"Ŧ":{"ha":701,"x_min":36,"x_max":615,"o":"m 369 0 l 282 0 q 258 24 258 0 l 258 403 q 243 418 258 418 l 140 418 q 117 442 117 418 l 117 496 q 140 521 117 521 l 243 521 q 258 535 258 521 l 258 761 q 243 775 258 775 l 60 775 q 36 799 36 775 l 36 869 q 60 893 36 893 l 592 893 q 615 869 615 893 l 615 799 q 592 775 615 775 l 408 775 q 394 761 394 775 l 394 535 q 408 521 394 521 l 517 521 q 540 496 540 521 l 540 442 q 517 418 540 418 l 408 418 q 394 403 394 418 l 394 24 q 369 0 394 0 z "},"ŧ":{"ha":501,"x_min":18,"x_max":454,"o":"m 431 0 l 349 0 q 187 56 246 0 q 128 213 128 111 l 128 321 q 114 336 128 336 l 42 336 q 18 360 18 336 l 18 415 q 42 439 18 439 l 114 439 q 128 453 128 439 l 128 576 q 114 590 128 590 l 42 590 q 23 595 28 590 q 18 613 18 600 l 18 685 q 42 708 18 708 l 114 708 q 128 722 128 708 l 128 847 q 151 871 128 871 l 240 871 q 264 847 264 871 l 264 722 q 279 708 264 708 l 417 708 q 440 685 440 708 l 440 613 q 435 595 440 600 q 417 590 431 590 l 279 590 q 264 576 264 590 l 264 453 q 279 439 264 439 l 417 439 q 440 415 440 439 l 440 360 q 417 336 440 336 l 279 336 q 264 321 264 336 l 264 219 q 368 118 264 118 l 431 118 q 454 94 454 118 l 454 22 q 449 5 454 10 q 431 0 444 0 z "},"Ũ":{"ha":774,"x_min":94,"x_max":681,"o":"m 321 975 q 228 1082 228 975 l 228 1136 q 242 1150 228 1150 l 282 1150 q 296 1136 296 1150 l 296 1108 q 302 1061 296 1074 q 322 1049 308 1049 q 343 1058 335 1049 q 371 1101 351 1068 q 408 1144 390 1133 q 454 1156 426 1156 q 546 1049 546 1156 l 546 996 q 533 979 546 979 l 493 979 q 479 996 479 979 l 479 1022 q 473 1070 479 1058 q 451 1082 467 1082 q 414 1046 435 1082 q 367 987 386 999 q 321 975 349 975 m 568 893 l 656 893 q 681 871 681 893 l 681 215 q 623 57 681 114 q 464 0 565 0 l 310 0 q 151 57 208 0 q 94 215 94 114 l 94 869 q 118 893 94 893 l 206 893 q 229 869 229 893 l 229 221 q 329 118 229 118 l 443 118 q 544 221 544 118 l 544 869 q 568 893 544 893 z "},"ũ":{"ha":718,"x_min":81,"x_max":632,"o":"m 186 906 l 186 958 q 200 974 186 974 l 242 974 q 256 958 256 974 l 256 932 q 261 884 256 896 q 281 872 267 872 q 303 882 294 872 q 330 924 311 892 q 367 968 349 957 q 413 979 385 979 q 506 872 506 979 l 506 819 q 493 803 506 803 l 451 803 q 438 819 438 803 l 438 844 q 432 892 438 881 q 412 904 426 904 q 390 897 397 904 q 365 858 383 889 q 328 810 347 822 q 279 799 308 799 q 186 906 186 799 m 350 0 l 288 0 q 134 56 188 0 q 81 215 81 113 l 81 685 q 104 708 81 708 l 192 708 q 215 685 215 708 l 215 221 q 315 118 215 118 l 382 118 q 496 236 496 118 l 496 685 q 519 708 496 708 l 607 708 q 632 685 632 708 l 632 24 q 607 0 632 0 l 519 0 q 496 24 496 0 l 496 74 l 490 74 q 350 0 457 0 z "},"Ū":{"ha":774,"x_min":94,"x_max":681,"o":"m 525 1028 l 249 1028 q 225 1051 225 1028 l 225 1100 q 249 1124 225 1124 l 525 1124 q 549 1100 549 1124 l 549 1051 q 525 1028 549 1028 m 568 893 l 656 893 q 681 871 681 893 l 681 215 q 623 57 681 114 q 464 0 565 0 l 310 0 q 151 57 208 0 q 94 215 94 114 l 94 869 q 118 893 94 893 l 206 893 q 229 869 229 893 l 229 221 q 329 118 229 118 l 443 118 q 544 221 544 118 l 544 869 q 568 893 544 893 z "},"ū":{"ha":718,"x_min":81,"x_max":632,"o":"m 494 840 l 217 840 q 193 864 193 840 l 193 911 q 217 935 193 935 l 494 935 q 518 911 518 935 l 518 864 q 494 840 518 840 m 350 0 l 288 0 q 134 56 188 0 q 81 215 81 113 l 81 685 q 104 708 81 708 l 192 708 q 215 685 215 708 l 215 221 q 315 118 215 118 l 382 118 q 496 236 496 118 l 496 685 q 519 708 496 708 l 607 708 q 632 685 632 708 l 632 24 q 607 0 632 0 l 519 0 q 496 24 496 0 l 496 74 l 490 74 q 350 0 457 0 z "},"Ŭ":{"ha":774,"x_min":94,"x_max":681,"o":"m 236 1144 q 253 1161 236 1161 l 306 1161 q 322 1144 322 1161 l 322 1131 q 336 1070 322 1088 q 383 1053 350 1053 l 392 1053 q 440 1071 425 1053 q 454 1131 454 1089 l 454 1144 q 472 1161 454 1161 l 522 1161 q 540 1144 540 1161 l 540 1129 q 406 982 540 982 l 369 982 q 236 1129 236 982 l 236 1144 m 568 893 l 656 893 q 681 871 681 893 l 681 215 q 623 57 681 114 q 464 0 565 0 l 310 0 q 151 57 208 0 q 94 215 94 114 l 94 869 q 118 893 94 893 l 206 893 q 229 869 229 893 l 229 221 q 329 118 229 118 l 443 118 q 544 221 544 118 l 544 869 q 568 893 544 893 z "},"ŭ":{"ha":718,"x_min":81,"x_max":632,"o":"m 350 0 l 288 0 q 134 56 188 0 q 81 215 81 113 l 81 685 q 104 708 81 708 l 192 708 q 215 685 215 708 l 215 221 q 315 118 215 118 l 382 118 q 496 236 496 118 l 496 685 q 519 708 496 708 l 607 708 q 632 685 632 708 l 632 24 q 607 0 632 0 l 519 0 q 496 24 496 0 l 496 74 l 490 74 q 350 0 457 0 m 204 938 l 204 954 q 221 971 204 971 l 274 971 q 290 954 290 971 l 290 940 q 304 881 290 899 q 351 864 318 864 l 360 864 q 409 881 394 864 q 424 940 424 899 l 424 954 q 440 969 424 969 l 492 969 q 508 954 508 969 l 508 938 q 374 792 508 792 l 339 792 q 204 938 204 792 z "},"Ů":{"ha":774,"x_min":94,"x_max":681,"o":"m 415 972 l 356 972 q 272 1058 272 972 l 272 1129 q 294 1191 272 1169 q 356 1213 317 1213 l 415 1213 q 478 1190 456 1213 q 501 1129 501 1168 l 501 1058 q 478 994 501 1017 q 415 972 456 972 m 375 1028 l 396 1028 q 440 1075 440 1028 l 440 1108 q 396 1157 440 1157 l 376 1157 q 332 1108 332 1157 l 332 1075 q 375 1028 332 1028 m 568 893 l 656 893 q 681 871 681 893 l 681 215 q 623 57 681 114 q 464 0 565 0 l 310 0 q 151 57 208 0 q 94 215 94 114 l 94 869 q 118 893 94 893 l 206 893 q 229 869 229 893 l 229 221 q 329 118 229 118 l 443 118 q 544 221 544 118 l 544 869 q 568 893 544 893 z "},"ů":{"ha":718,"x_min":81,"x_max":632,"o":"m 350 0 l 288 0 q 134 56 188 0 q 81 215 81 113 l 81 685 q 104 708 81 708 l 192 708 q 215 685 215 708 l 215 221 q 315 118 215 118 l 382 118 q 496 236 496 118 l 496 685 q 519 708 496 708 l 607 708 q 632 685 632 708 l 632 24 q 607 0 632 0 l 519 0 q 496 24 496 0 l 496 74 l 490 74 q 350 0 457 0 m 283 913 l 283 867 q 294 831 283 840 q 331 821 304 821 l 353 821 q 390 831 379 821 q 400 867 400 840 l 400 913 q 390 949 400 940 q 353 958 379 958 l 331 958 q 294 949 304 958 q 283 913 283 940 m 231 850 l 231 933 q 310 1006 231 1006 l 372 1006 q 453 933 453 1006 l 453 850 q 372 774 453 774 l 310 774 q 231 850 231 774 z "},"Ű":{"ha":774,"x_min":94,"x_max":681,"o":"m 349 1161 l 421 1161 q 431 1138 446 1161 l 328 999 q 297 982 315 982 l 253 982 q 242 1006 232 982 l 313 1139 q 349 1161 325 1161 m 544 1161 l 617 1161 q 628 1138 643 1161 l 525 999 q 494 982 513 982 l 450 982 q 439 1006 428 982 l 510 1139 q 544 1161 519 1161 m 568 893 l 656 893 q 681 871 681 893 l 681 215 q 623 57 681 114 q 464 0 565 0 l 310 0 q 151 57 208 0 q 94 215 94 114 l 94 869 q 118 893 94 893 l 206 893 q 229 869 229 893 l 229 221 q 329 118 229 118 l 443 118 q 544 221 544 118 l 544 869 q 568 893 544 893 z "},"ű":{"ha":718,"x_min":81,"x_max":632,"o":"m 338 976 l 410 976 q 419 953 435 976 l 317 814 q 288 797 306 797 l 242 797 q 232 821 219 797 l 301 954 q 338 976 314 976 m 535 976 l 606 976 q 617 953 632 976 l 514 814 q 483 797 501 797 l 439 797 q 428 821 417 797 l 499 954 q 535 976 508 976 m 350 0 l 288 0 q 134 56 188 0 q 81 215 81 113 l 81 685 q 104 708 81 708 l 192 708 q 215 685 215 708 l 215 221 q 315 118 215 118 l 382 118 q 496 236 496 118 l 496 685 q 519 708 496 708 l 607 708 q 632 685 632 708 l 632 24 q 607 0 632 0 l 519 0 q 496 24 496 0 l 496 74 l 490 74 q 350 0 457 0 z "},"Ų":{"ha":774,"x_min":94,"x_max":681,"o":"m 568 893 l 656 893 q 681 871 681 893 l 681 215 q 623 57 681 114 q 464 0 565 0 l 446 0 l 386 -86 l 442 -86 q 468 -91 461 -86 q 475 -110 475 -96 q 435 -147 475 -133 q 356 -161 394 -161 q 306 -140 317 -161 q 314 -93 294 -118 l 375 0 l 310 0 q 151 57 208 0 q 94 215 94 114 l 94 869 q 118 893 94 893 l 206 893 q 229 869 229 893 l 229 221 q 329 118 229 118 l 443 118 q 544 221 544 118 l 544 869 q 568 893 544 893 z "},"ų":{"ha":697,"x_min":81,"x_max":632,"o":"m 519 708 l 607 708 q 632 685 632 708 l 632 24 q 607 0 632 0 l 546 0 q 509 -58 529 -25 q 490 -92 489 -92 q 549 -87 532 -92 q 572 -92 567 -86 q 575 -108 578 -97 q 535 -147 574 -132 q 461 -161 496 -161 q 422 -132 426 -161 q 433 -79 417 -103 l 496 24 l 496 74 l 490 74 q 350 0 457 0 l 288 0 q 134 56 188 0 q 81 215 81 113 l 81 685 q 104 708 81 708 l 192 708 q 215 685 215 708 l 215 221 q 315 118 215 118 l 382 118 q 496 236 496 118 l 496 685 q 519 708 496 708 z "},"Ŵ":{"ha":1115,"x_min":29,"x_max":1085,"o":"m 703 982 l 639 982 q 618 996 624 982 l 561 1104 l 506 996 q 483 982 500 982 l 421 982 q 411 999 400 982 l 499 1147 q 528 1161 508 1161 l 596 1161 q 625 1147 615 1161 l 711 999 q 703 982 722 982 m 371 0 l 224 0 q 194 24 199 0 l 29 869 q 53 893 26 893 l 160 893 q 188 869 186 893 l 300 142 l 308 142 l 472 872 q 497 893 475 893 l 614 893 q 640 872 636 893 l 806 142 l 814 142 l 926 868 q 954 893 928 893 l 1061 893 q 1085 868 1089 893 l 919 24 q 892 0 915 0 l 744 0 q 717 24 721 0 l 560 726 l 554 726 l 397 24 q 371 0 393 0 z "},"ŵ":{"ha":958,"x_min":29,"x_max":929,"o":"m 621 797 l 557 797 q 535 811 540 797 l 479 919 l 424 811 q 401 797 417 797 l 338 797 q 326 803 329 797 q 328 814 324 808 l 417 963 q 446 976 426 976 l 513 976 q 542 963 532 976 l 629 814 q 621 797 640 797 m 336 0 l 217 0 q 189 24 196 0 l 29 685 q 46 708 24 708 l 146 708 q 174 685 171 708 l 275 160 l 285 160 l 407 685 q 433 708 411 708 l 525 708 q 554 685 549 708 l 674 160 l 683 160 l 785 685 q 813 708 789 708 l 913 708 q 929 685 936 708 l 769 24 q 742 0 765 0 l 622 0 q 594 24 600 0 l 483 539 l 474 539 l 364 24 q 336 0 360 0 z "},"Ŷ":{"ha":706,"x_min":25,"x_max":682,"o":"m 490 982 l 426 982 q 406 996 411 982 l 349 1104 l 293 996 q 271 982 288 982 l 208 982 q 199 999 188 982 l 286 1147 q 315 1161 296 1161 l 382 1161 q 411 1147 401 1161 l 500 999 q 490 982 511 982 m 397 0 l 308 0 q 285 24 285 0 l 285 331 l 25 868 q 25 886 19 879 q 40 893 31 893 l 151 893 q 179 869 169 893 l 350 488 l 358 488 l 526 869 q 554 893 535 893 l 665 893 q 681 886 676 893 q 681 868 686 879 l 421 331 l 421 24 q 397 0 421 0 z "},"ŷ":{"ha":649,"x_min":32,"x_max":618,"o":"m 475 797 l 411 797 q 389 811 396 797 l 333 919 l 276 811 q 256 797 272 797 l 193 797 q 183 814 172 797 l 271 963 q 300 976 281 976 l 367 976 q 397 963 388 976 l 485 814 q 475 797 496 797 m 171 -225 l 97 -225 q 74 -201 74 -225 l 74 -131 q 97 -106 74 -106 l 129 -106 q 247 -72 214 -106 q 301 38 279 -39 l 246 38 q 217 61 225 38 l 32 685 q 50 708 26 708 l 143 708 q 171 685 165 708 l 322 140 l 328 140 l 479 685 q 507 708 483 708 l 596 708 q 618 683 622 708 l 428 15 q 338 -163 396 -101 q 171 -225 279 -225 z "},"Ÿ":{"ha":706,"x_min":25,"x_max":682,"o":"m 164 1006 l 164 1138 q 186 1161 164 1161 l 269 1161 q 290 1139 290 1161 l 290 1006 q 269 982 290 982 l 186 982 q 164 1006 164 982 m 414 1006 l 414 1138 q 435 1161 414 1161 l 519 1161 q 540 1139 540 1161 l 540 1006 q 519 982 540 982 l 435 982 q 414 1006 414 982 m 397 0 l 308 0 q 285 24 285 0 l 285 331 l 25 868 q 25 886 19 879 q 40 893 31 893 l 151 893 q 179 869 169 893 l 350 488 l 358 488 l 526 869 q 554 893 535 893 l 665 893 q 681 886 676 893 q 681 868 686 879 l 421 331 l 421 24 q 397 0 421 0 z "},"Ź":{"ha":703,"x_min":64,"x_max":639,"o":"m 432 1161 l 542 1161 q 556 1154 553 1161 q 553 1138 560 1147 l 435 999 q 403 982 422 982 l 336 982 q 325 1006 314 982 l 397 1139 q 432 1161 408 1161 m 64 24 l 64 89 q 76 140 64 125 l 478 761 l 478 767 l 110 767 q 85 790 85 767 l 85 869 q 110 893 85 893 l 601 893 q 625 869 625 893 l 625 778 q 610 724 625 747 l 224 132 l 224 126 l 615 126 q 639 104 639 126 l 639 26 q 615 0 639 0 l 88 0 q 64 24 64 0 z "},"ź":{"ha":600,"x_min":44,"x_max":557,"o":"m 382 976 l 490 976 q 506 970 501 976 q 503 953 510 964 l 385 814 q 351 797 369 797 l 286 797 q 275 821 264 797 l 347 954 q 382 976 357 976 m 44 24 l 44 60 q 64 119 44 94 l 385 585 l 385 590 l 81 590 q 56 615 56 590 l 56 685 q 81 708 56 708 l 519 708 q 543 685 543 708 l 543 621 q 526 568 543 588 l 222 124 l 222 118 l 532 118 q 557 93 557 118 l 557 24 q 532 0 557 0 l 69 0 q 44 24 44 0 z "},"Ż":{"ha":703,"x_min":64,"x_max":639,"o":"m 315 1010 l 315 1142 q 338 1165 315 1165 l 428 1165 q 451 1143 451 1165 l 451 1010 q 428 986 451 986 l 338 986 q 315 1010 315 986 m 64 24 l 64 89 q 76 140 64 125 l 478 761 l 478 767 l 110 767 q 85 790 85 767 l 85 869 q 110 893 85 893 l 601 893 q 625 869 625 893 l 625 778 q 610 724 625 747 l 224 132 l 224 126 l 615 126 q 639 104 639 126 l 639 26 q 615 0 639 0 l 88 0 q 64 24 64 0 z "},"ż":{"ha":600,"x_min":44,"x_max":557,"o":"m 261 819 l 261 954 q 285 976 261 976 l 375 976 q 399 954 399 976 l 399 819 q 375 797 399 797 l 285 797 q 261 819 261 797 m 44 24 l 44 60 q 64 119 44 94 l 385 585 l 385 590 l 81 590 q 56 615 56 590 l 56 685 q 81 708 56 708 l 519 708 q 543 685 543 708 l 543 621 q 526 568 543 588 l 222 124 l 222 118 l 532 118 q 557 93 557 118 l 557 24 q 532 0 557 0 l 69 0 q 44 24 44 0 z "},"Ž":{"ha":703,"x_min":64,"x_max":639,"o":"m 343 982 q 314 996 324 982 l 228 1144 q 238 1161 217 1161 l 300 1161 q 321 1147 317 1161 l 378 1039 l 433 1147 q 456 1161 440 1161 l 519 1161 q 528 1144 539 1161 l 440 996 q 411 982 431 982 l 343 982 m 64 24 l 64 89 q 76 140 64 125 l 478 761 l 478 767 l 110 767 q 85 790 85 767 l 85 869 q 110 893 85 893 l 601 893 q 625 869 625 893 l 625 778 q 610 724 625 747 l 224 132 l 224 126 l 615 126 q 639 104 639 126 l 639 26 q 615 0 639 0 l 88 0 q 64 24 64 0 z "},"ž":{"ha":600,"x_min":44,"x_max":557,"o":"m 294 797 q 265 811 275 797 l 178 960 q 188 976 167 976 l 250 976 q 271 963 267 976 l 328 854 l 383 963 q 406 976 390 976 l 469 976 q 479 960 490 976 l 390 811 q 361 797 381 797 l 294 797 m 44 24 l 44 60 q 64 119 44 94 l 385 585 l 385 590 l 81 590 q 56 615 56 590 l 56 685 q 81 708 56 708 l 519 708 q 543 685 543 708 l 543 621 q 526 568 543 588 l 222 124 l 222 118 l 532 118 q 557 93 557 118 l 557 24 q 532 0 557 0 l 69 0 q 44 24 44 0 z "},"ƒ":{"ha":714,"x_min":19,"x_max":694,"o":"m 117 -185 l 47 -185 q 19 -162 19 -185 l 19 -90 q 46 -67 19 -67 l 106 -67 q 179 -42 154 -67 q 217 36 204 -17 l 300 428 q 288 444 304 444 l 197 444 q 169 468 169 444 l 169 538 q 196 561 169 561 l 314 561 q 332 576 328 561 l 371 763 q 454 926 396 875 q 615 976 513 976 l 667 976 q 694 954 694 976 l 694 882 q 669 858 694 858 l 618 858 q 543 833 568 858 q 507 756 518 808 l 468 576 q 479 561 464 561 l 593 561 q 621 538 621 561 l 621 468 q 600 444 621 444 l 454 444 q 436 429 440 444 l 347 13 q 272 -135 326 -86 q 117 -185 217 -185 z "},"Ǽ":{"ha":1081,"x_min":7,"x_max":1008,"o":"m 675 1161 l 785 1161 q 799 1154 796 1161 q 796 1138 803 1147 l 679 999 q 647 982 667 982 l 581 982 q 569 1006 558 982 l 642 1139 q 675 1161 651 1161 m 119 0 l 22 0 q 7 25 -4 0 l 425 869 q 463 893 436 893 l 985 893 q 1008 869 1008 893 l 1008 799 q 985 775 1008 775 l 668 775 q 653 761 653 775 l 653 526 q 668 513 653 513 l 936 513 q 961 489 961 513 l 961 418 q 936 394 961 394 l 668 394 q 653 381 653 394 l 653 133 q 668 118 653 118 l 985 118 q 1008 94 1008 118 l 1008 24 q 985 0 1008 0 l 540 0 q 517 24 517 0 l 517 204 l 242 204 l 150 24 q 119 0 140 0 m 517 325 l 517 761 l 511 761 l 294 325 l 517 325 z "},"ǽ":{"ha":1069,"x_min":69,"x_max":1001,"o":"m 604 976 l 714 976 q 728 970 725 976 q 725 953 732 964 l 608 814 q 575 797 594 797 l 510 797 q 499 821 486 797 l 571 954 q 604 976 581 976 m 611 263 l 611 221 q 713 118 611 118 l 976 118 q 1001 94 1001 118 l 1001 22 q 976 0 1001 0 l 692 0 q 521 85 572 0 q 332 0 475 0 l 285 0 q 127 55 185 0 q 69 208 69 110 l 69 231 q 126 385 69 332 q 285 438 182 438 l 465 438 q 476 449 476 438 l 476 489 q 376 590 476 590 l 154 590 q 131 614 131 590 l 131 685 q 154 708 131 708 l 372 708 q 544 626 501 708 q 713 708 588 708 l 786 708 q 944 652 888 708 q 1001 493 1001 596 l 1001 301 q 976 276 1001 276 l 628 276 q 611 263 611 276 m 882 386 l 882 488 q 781 590 882 590 l 717 590 q 611 490 611 590 l 611 386 q 626 371 611 371 l 867 371 q 882 386 882 371 m 476 228 l 476 325 q 461 339 476 339 l 306 339 q 223 314 249 339 q 197 236 197 289 l 197 217 q 223 137 197 163 q 306 111 249 111 l 363 111 q 476 228 476 111 z "},"Ǿ":{"ha":794,"x_min":69,"x_max":726,"o":"m 697 678 l 697 215 q 640 57 697 114 q 482 0 583 0 l 313 0 q 163 49 218 0 l 135 10 q 99 3 119 -10 l 75 21 q 69 57 56 36 l 114 119 q 97 215 97 161 l 97 678 q 153 837 97 781 q 313 893 210 893 l 482 893 q 633 844 576 893 l 660 882 q 696 889 675 903 l 719 872 q 726 838 739 858 l 681 774 q 697 678 697 732 m 232 672 l 232 285 l 551 731 q 463 775 531 775 l 332 775 q 232 672 232 775 m 563 221 l 563 608 l 243 163 q 332 118 267 118 l 463 118 q 563 221 563 118 m 417 982 l 351 982 q 340 1006 326 982 l 411 1139 q 446 1161 422 1161 l 556 1161 q 570 1154 567 1161 q 567 1138 574 1147 l 450 999 q 417 982 436 982 z "},"ǿ":{"ha":722,"x_min":35,"x_max":689,"o":"m 639 493 l 639 215 q 582 57 639 114 q 422 0 525 0 l 301 0 q 131 69 189 0 l 88 26 q 54 26 68 8 l 35 44 q 35 79 17 61 l 94 139 q 85 215 85 172 l 85 493 q 142 652 85 596 q 301 708 199 708 l 422 708 q 594 639 536 708 l 636 681 q 669 682 651 700 l 689 664 q 689 629 708 647 l 629 569 q 639 493 639 536 m 221 488 l 221 265 l 494 539 q 403 590 476 590 l 321 590 q 221 488 221 590 m 503 221 l 503 443 l 229 168 q 321 118 247 118 l 403 118 q 503 221 503 118 m 393 797 l 328 797 q 317 821 306 797 l 389 954 q 424 976 400 976 l 532 976 q 548 970 544 976 q 543 953 551 964 l 426 814 q 393 797 414 797 z "},"Ș":{"ha":761,"x_min":85,"x_max":675,"o":"m 85 217 l 85 253 q 108 276 85 276 l 197 276 q 221 253 221 276 l 221 228 q 247 144 221 169 q 332 118 272 118 l 428 118 q 514 145 488 118 q 540 233 540 172 l 540 265 q 506 335 540 310 q 422 369 472 361 q 313 390 372 376 q 203 422 253 404 q 119 490 153 440 q 85 618 85 540 l 85 676 q 142 835 85 778 q 301 893 200 893 l 449 893 q 609 835 551 893 q 667 676 667 778 l 667 646 q 643 622 667 622 l 554 622 q 531 646 531 622 l 531 664 q 505 749 531 724 q 419 775 479 775 l 332 775 q 247 748 272 775 q 221 656 221 721 l 221 613 q 311 528 221 550 q 399 511 351 518 q 496 490 447 504 q 585 453 544 476 q 650 384 625 431 q 675 271 675 338 l 675 217 q 617 58 675 115 q 458 0 560 0 l 303 0 q 143 58 201 0 q 85 217 85 115 m 449 -67 l 449 -132 q 425 -215 449 -174 l 365 -318 q 344 -331 357 -331 q 326 -308 326 -331 l 326 -68 q 347 -44 326 -44 l 428 -44 q 449 -67 449 -44 z "},"ș":{"ha":604,"x_min":57,"x_max":547,"o":"m 372 -67 l 372 -132 q 347 -215 372 -175 l 288 -318 q 268 -331 279 -331 q 249 -308 249 -331 l 249 -68 q 271 -44 249 -44 l 350 -44 q 372 -67 372 -44 m 340 0 l 85 0 q 61 24 61 0 l 61 92 q 85 114 61 114 l 318 114 q 408 176 408 114 l 408 193 q 343 278 408 249 l 192 350 q 89 424 121 383 q 57 529 57 464 q 256 708 57 708 l 486 708 q 508 685 508 708 l 508 617 q 486 593 508 593 l 283 593 q 219 578 242 593 q 197 540 197 564 l 197 525 q 268 447 197 481 l 421 369 q 520 294 493 338 q 547 181 547 250 q 340 0 547 0 z "},"ˆ":{"ha":469,"x_min":82,"x_max":388,"o":"m 376 797 l 311 797 q 290 811 296 797 l 233 919 l 178 811 q 156 797 172 797 l 93 797 q 82 803 85 797 q 83 814 79 808 l 171 963 q 201 976 181 976 l 267 976 q 297 963 288 976 l 385 814 q 387 803 389 808 q 376 797 385 797 z "},"ˇ":{"ha":469,"x_min":82,"x_max":385,"o":"m 201 797 q 171 811 181 797 l 83 960 q 82 972 79 967 q 93 976 85 976 l 156 976 q 178 963 172 976 l 233 854 l 290 963 q 311 976 296 976 l 376 976 q 385 960 394 976 l 297 811 q 267 797 288 797 l 201 797 z "},"ˉ":{"ha":486,"x_min":81,"x_max":406,"o":"m 382 840 l 106 840 q 81 864 81 840 l 81 911 q 106 935 81 935 l 382 935 q 406 911 406 935 l 406 864 q 382 840 406 840 z "},"˘":{"ha":467,"x_min":81,"x_max":385,"o":"m 81 944 l 81 960 q 97 976 81 976 l 150 976 q 167 960 167 976 l 167 946 q 181 886 167 904 q 228 868 196 868 l 238 868 q 285 886 271 868 q 300 946 300 904 l 300 960 q 317 976 300 976 l 368 976 q 385 960 385 976 l 385 944 q 250 797 385 797 l 215 797 q 81 944 81 797 z "},"˙":{"ha":299,"x_min":81,"x_max":217,"o":"m 81 819 l 81 954 q 104 976 81 976 l 194 976 q 217 954 217 976 l 217 819 q 194 797 217 797 l 104 797 q 81 819 81 797 z "},"˚":{"ha":392,"x_min":74,"x_max":294,"o":"m 125 913 l 125 867 q 136 831 125 840 q 174 821 147 821 l 194 821 q 231 831 221 821 q 242 867 242 840 l 242 913 q 231 949 242 940 q 194 958 221 958 l 174 958 q 136 949 147 958 q 125 913 125 939 m 74 850 l 74 933 q 153 1006 74 1006 l 214 1006 q 294 933 294 1006 l 294 850 q 214 774 294 774 l 153 774 q 74 850 74 774 z "},"˛":{"ha":338,"x_min":94,"x_max":249,"o":"m 164 -92 q 222 -87 206 -92 q 249 -108 254 -85 q 208 -147 247 -132 q 134 -161 168 -161 q 94 -132 100 -161 q 107 -79 89 -103 l 172 28 l 228 14 q 216 -5 225 10 q 193 -40 207 -19 q 164 -92 158 -92 z "},"˜":{"ha":499,"x_min":81,"x_max":400,"o":"m 81 906 l 81 958 q 94 974 81 974 l 136 974 q 149 958 149 974 l 149 932 q 155 885 149 897 q 174 872 161 872 q 196 882 188 872 q 224 924 204 892 q 261 968 243 957 q 307 979 279 979 q 400 872 400 979 l 400 819 q 388 803 400 803 l 344 803 q 332 819 332 803 l 332 844 q 326 892 332 881 q 303 904 319 904 q 274 881 288 904 q 256 850 271 876 q 174 799 228 799 q 81 906 81 799 z "},"˝":{"ha":557,"x_min":86,"x_max":471,"o":"m 192 976 l 264 976 q 275 953 289 976 l 171 814 q 142 797 161 797 l 97 797 q 86 821 75 797 l 157 954 q 192 976 167 976 m 389 976 l 460 976 q 471 953 486 976 l 367 814 q 338 797 356 797 l 293 797 q 282 821 269 797 l 353 954 q 389 976 363 976 z "},"Μ":{"ha":764,"x_min":107,"x_max":658,"o":"m 329 0 q 243 25 263 0 l 243 -161 q 218 -185 243 -185 l 131 -185 q 107 -161 107 -185 l 107 685 q 131 708 107 708 l 218 708 q 243 685 243 708 l 243 221 q 342 118 243 118 l 408 118 q 522 236 522 118 l 522 685 q 546 708 522 708 l 633 708 q 658 685 658 708 l 658 24 q 633 0 658 0 l 546 0 q 522 24 522 0 l 522 74 l 517 74 q 376 0 483 0 q 329 0 353 0 z "},"Π":{"ha":890,"x_min":47,"x_max":843,"o":"m 306 0 l 217 0 q 193 24 193 0 l 193 761 q 178 772 193 772 l 72 772 q 47 797 47 772 l 47 869 q 72 893 47 893 l 819 893 q 843 869 843 893 l 843 797 q 819 772 843 772 l 713 772 q 697 758 697 772 l 697 24 q 674 0 697 0 l 586 0 q 561 24 561 0 l 561 758 q 547 772 561 772 l 344 772 q 329 758 329 772 l 329 24 q 306 0 329 0 z "},"Σ":{"ha":679,"x_min":88,"x_max":604,"o":"m 88 799 l 88 869 q 111 893 88 893 l 579 893 q 603 869 603 893 l 603 790 q 579 765 603 765 l 246 765 l 246 760 l 443 467 q 443 413 461 439 l 246 132 l 246 126 l 579 126 q 604 101 604 126 l 604 24 q 579 0 604 0 l 111 0 q 89 24 89 0 l 89 93 q 104 150 89 125 l 304 438 l 304 443 l 103 743 q 88 799 88 767 z "},"ँ":{"ha":0,"x_min":-396,"x_max":90,"o":"m -74 964 l -232 964 q -354 1009 -312 964 q -396 1139 -396 1054 l -396 1149 q -365 1186 -396 1186 l -311 1186 q -283 1151 -283 1186 l -283 1139 q -267 1085 -283 1101 q -210 1068 -250 1068 l -94 1068 q -39 1085 -56 1068 q -22 1139 -22 1101 l -22 1151 q 8 1186 -22 1186 l 60 1186 q 90 1149 90 1186 l 90 1139 q -74 964 90 964 m -99 1244 l -99 1185 q -124 1158 -99 1158 l -181 1158 q -204 1185 -204 1158 l -204 1244 q -181 1269 -204 1269 l -124 1269 q -99 1244 -99 1269 z "},"ं":{"ha":0,"x_min":-236,"x_max":-100,"o":"m -100 1114 l -100 1032 q -125 1006 -100 1006 l -212 1006 q -236 1032 -236 1006 l -236 1114 q -212 1139 -236 1139 l -125 1139 q -100 1114 -100 1139 z "},"ः":{"ha":349,"x_min":108,"x_max":243,"o":"m 243 594 l 243 515 q 213 483 243 483 l 139 483 q 108 515 108 483 l 108 594 q 139 625 108 625 l 213 625 q 243 594 243 625 m 243 200 l 243 122 q 213 90 243 90 l 139 90 q 108 122 108 90 l 108 200 q 139 232 108 232 l 213 232 q 243 200 243 232 z "},"अ":{"ha":840,"x_min":50,"x_max":874,"o":"m 664 865 l 846 865 q 874 840 874 865 l 874 781 q 846 754 874 754 l 756 754 q 740 738 740 754 l 740 26 q 714 0 740 0 l 640 0 q 614 26 614 0 l 614 285 q 599 301 614 301 l 461 301 l 461 272 q 402 109 461 167 q 236 51 343 51 l 78 51 q 50 78 50 51 l 50 138 q 78 164 50 164 l 228 164 q 338 269 338 164 l 338 308 q 311 386 338 361 q 228 411 285 411 l 156 411 q 129 439 129 411 l 129 497 q 156 525 129 525 l 228 525 q 338 629 338 525 l 338 649 q 311 728 338 703 q 228 754 285 754 l 121 754 q 94 781 94 754 l 94 840 q 121 865 94 865 l 243 865 q 461 644 461 865 l 461 622 q 378 471 461 510 l 378 465 q 442 411 421 450 l 599 411 q 614 428 614 411 l 614 813 q 627 851 614 836 q 664 865 640 865 z "},"आ":{"ha":1165,"x_min":49,"x_max":1199,"o":"m 663 865 l 1172 865 q 1199 840 1199 865 l 1199 781 q 1172 754 1199 754 l 1081 754 q 1065 738 1065 754 l 1065 26 q 1039 0 1065 0 l 965 0 q 939 26 939 0 l 939 738 q 924 754 939 754 l 754 754 q 739 738 739 754 l 739 26 q 713 0 739 0 l 639 0 q 613 26 613 0 l 613 285 q 597 301 613 301 l 460 301 l 460 272 q 401 109 460 167 q 235 51 342 51 l 76 51 q 49 78 49 51 l 49 138 q 76 164 49 164 l 226 164 q 336 269 336 164 l 336 308 q 310 386 336 361 q 226 411 283 411 l 154 411 q 128 439 128 411 l 128 497 q 154 525 128 525 l 226 525 q 336 629 336 525 l 336 649 q 310 728 336 703 q 226 754 283 754 l 119 754 q 93 781 93 754 l 93 840 q 119 865 93 865 l 242 865 q 460 644 460 865 l 460 622 q 376 471 460 510 l 376 465 q 440 411 419 450 l 597 411 q 613 428 613 411 l 613 813 q 626 851 613 836 q 663 865 639 865 z "},"इ":{"ha":654,"x_min":-33,"x_max":688,"o":"m 390 294 l 263 294 q 81 464 81 294 l 81 485 q 128 606 81 565 q 263 647 176 647 l 406 647 q 421 664 421 647 l 421 738 q 406 754 421 754 l -7 754 q -33 779 -33 754 l -33 840 q -7 865 -33 865 l 661 865 q 688 840 688 865 l 688 779 q 661 754 688 754 l 561 754 q 546 738 546 754 l 546 596 q 482 536 546 536 l 272 536 q 219 522 235 536 q 204 472 204 507 l 204 461 q 220 416 204 429 q 272 403 236 403 l 407 403 q 538 363 492 403 q 585 244 585 324 l 585 179 q 538 53 585 99 q 407 7 490 7 l 301 7 q 204 50 226 7 l 199 50 l 199 -51 q 171 -78 199 -78 l 101 -78 q 75 -51 75 -78 l 75 210 q 101 236 75 236 l 171 236 q 199 210 199 236 l 199 196 q 281 118 199 118 l 390 118 q 443 133 428 118 q 458 182 458 147 l 458 236 q 442 281 458 268 q 390 294 426 294 z "},"ई":{"ha":654,"x_min":-33,"x_max":688,"o":"m 433 989 l 433 925 q 447 877 433 889 q 503 865 461 865 l 661 865 q 688 840 688 865 l 688 779 q 661 754 688 754 l 561 754 q 546 739 546 754 l 546 596 q 482 536 546 536 l 272 536 q 219 522 235 536 q 204 472 204 507 l 204 461 q 220 416 204 429 q 272 403 236 403 l 407 403 q 538 363 492 403 q 585 244 585 324 l 585 179 q 538 53 585 99 q 407 7 490 7 l 301 7 q 204 50 226 7 l 199 50 l 199 -51 q 171 -78 199 -78 l 101 -78 q 75 -51 75 -78 l 75 210 q 101 236 75 236 l 171 236 q 199 210 199 236 l 199 196 q 281 118 199 118 l 390 118 q 443 133 428 118 q 458 182 458 147 l 458 236 q 442 281 458 268 q 390 294 426 294 l 263 294 q 81 464 81 294 l 81 485 q 128 606 81 565 q 263 647 176 647 l 406 647 q 421 664 421 647 l 421 739 q 406 754 421 754 l -7 754 q -33 779 -33 754 l -33 840 q -7 865 -33 865 l 336 865 l 336 871 q 307 935 307 885 l 307 993 q 367 1151 307 1094 q 525 1207 428 1207 l 607 1207 q 635 1181 635 1207 l 635 1121 q 607 1094 635 1094 l 532 1094 q 433 989 433 1094 z "},"उ":{"ha":646,"x_min":-33,"x_max":679,"o":"m 571 297 l 571 228 q 513 60 571 121 q 347 0 456 0 l 275 0 q 108 60 168 0 q 47 228 47 121 l 47 282 q 75 314 47 314 l 147 314 q 172 282 172 314 l 172 228 q 289 113 172 113 l 335 113 q 446 235 446 113 l 446 271 q 420 358 446 332 q 335 385 394 385 l 276 385 q 249 413 249 385 l 249 471 q 275 499 249 499 l 335 499 q 443 599 443 499 l 443 651 q 336 754 443 754 l -7 754 q -33 781 -33 754 l -33 840 q -7 865 -33 865 l 651 865 q 679 840 679 865 l 679 781 q 651 754 679 754 l 515 754 l 515 749 q 567 646 567 722 l 567 588 q 482 444 567 476 l 482 439 q 571 297 571 404 z "},"ऊ":{"ha":913,"x_min":-33,"x_max":946,"o":"m -7 865 l 919 865 q 946 840 946 865 l 946 781 q 919 754 946 754 l 515 754 l 515 749 q 567 646 567 722 l 567 588 q 482 444 567 476 l 482 439 l 697 439 q 831 392 781 439 q 881 257 881 346 l 881 181 q 831 49 881 93 q 697 6 782 6 l 651 6 q 624 32 624 6 l 624 92 q 651 118 624 118 l 665 118 q 736 140 715 118 q 757 211 757 161 l 757 233 q 736 303 757 282 q 665 325 715 325 l 569 325 q 571 297 571 317 l 571 233 q 513 63 571 125 q 347 0 456 0 l 275 0 q 108 60 168 0 q 47 228 47 121 l 47 282 q 75 314 47 314 l 147 314 q 172 282 172 314 l 172 228 q 289 113 172 113 l 335 113 q 446 235 446 113 l 446 271 q 420 358 446 332 q 335 385 394 385 l 276 385 q 249 413 249 385 l 249 471 q 275 499 249 499 l 335 499 q 443 599 443 499 l 443 651 q 336 754 443 754 l -7 754 q -33 781 -33 754 l -33 840 q -7 865 -33 865 z "},"ऋ":{"ha":1078,"x_min":-33,"x_max":1111,"o":"m -7 865 l 1083 865 q 1111 840 1111 865 l 1111 781 q 1083 754 1111 754 l 615 754 q 599 738 599 754 l 599 450 l 763 579 q 810 597 788 597 l 960 597 q 986 571 986 597 l 986 310 q 947 278 986 278 l 910 278 q 836 211 836 278 l 836 171 q 914 107 836 107 l 974 107 q 1007 76 1007 107 l 1007 29 q 971 0 1007 0 l 900 0 q 713 158 713 0 l 713 218 q 854 371 713 361 q 869 388 869 372 l 869 511 l 599 300 l 599 26 q 572 0 599 0 l 500 0 q 474 26 474 0 l 474 203 l 238 17 q 194 0 215 0 l 96 0 q 75 21 75 0 q 94 51 75 38 l 350 253 l 469 339 l 469 379 q 353 488 469 488 l 307 488 q 194 381 194 488 l 194 338 q 168 311 194 311 l 97 311 q 69 338 69 311 l 69 388 q 128 547 69 490 q 292 603 186 603 l 328 603 q 468 542 428 603 l 474 542 l 474 738 q 457 754 474 754 l -7 754 q -33 781 -33 754 l -33 840 q -7 865 -33 865 z "},"ऌ":{"ha":908,"x_min":-33,"x_max":961,"o":"m 953 -183 q 961 -208 961 -194 q 938 -237 961 -221 q 757 -296 867 -296 q 589 -244 647 -296 q 531 -89 531 -192 q 682 106 531 81 l 682 394 q 660 474 682 451 q 591 497 639 497 q 522 474 543 497 q 500 390 500 450 l 500 299 q 474 272 500 272 l 406 272 q 379 299 379 272 l 379 399 q 357 476 379 453 q 289 500 335 500 q 196 386 196 500 l 196 268 q 310 154 196 154 l 340 154 q 368 129 368 154 l 368 68 q 340 42 368 42 l 293 42 q 129 99 188 42 q 71 263 71 156 l 71 393 q 127 558 71 500 q 279 615 183 615 q 435 531 401 615 l 440 531 q 576 614 469 614 q 676 571 650 614 l 682 571 l 682 738 q 668 754 682 753 l -7 754 q -33 781 -33 754 l -33 840 q -7 865 -33 865 l 914 865 q 942 840 942 865 l 942 781 q 914 754 942 754 l 824 754 q 808 738 808 754 l 808 31 q 781 3 808 3 l 732 3 q 668 -20 686 3 q 650 -93 650 -43 q 675 -165 650 -143 q 763 -186 700 -186 q 883 -137 825 -186 q 905 -129 893 -129 q 925 -143 917 -129 l 953 -183 z "},"ऍ":{"ha":721,"x_min":-33,"x_max":758,"o":"m -7 865 l 732 865 q 758 839 758 865 l 758 779 q 732 754 758 754 l 664 754 q 647 738 647 754 l 647 586 q 590 426 647 479 q 429 372 533 372 l 378 372 q 351 399 351 372 l 351 457 q 378 483 351 483 l 413 483 q 496 506 468 483 q 524 586 524 528 l 524 738 q 507 754 524 754 l 240 754 q 225 738 225 754 l 225 292 q 375 156 225 156 l 576 156 q 603 129 603 156 l 603 68 q 576 40 603 42 l 350 40 q 167 110 233 40 q 100 288 100 179 l 100 738 q 83 754 100 754 l -7 754 q -33 779 -33 754 l -33 839 q -7 865 -33 865 m 433 983 l 304 983 q 181 1028 224 983 q 139 1158 139 1074 l 139 1169 q 171 1206 139 1206 l 225 1206 q 253 1172 253 1206 l 253 1160 q 269 1104 253 1121 q 325 1088 286 1088 l 413 1088 q 468 1104 451 1088 q 485 1160 485 1121 l 485 1172 q 514 1206 485 1206 l 567 1206 q 599 1169 599 1206 l 599 1158 q 556 1028 599 1074 q 433 983 514 983 z "},"ऎ":{"ha":724,"x_min":-33,"x_max":758,"o":"m 674 865 l 732 865 q 758 839 758 865 l 758 779 q 732 754 758 754 l 664 754 q 647 738 647 754 l 647 586 q 590 426 647 479 q 429 372 533 372 l 378 372 q 351 399 351 372 l 351 457 q 378 483 351 483 l 413 483 q 496 506 468 483 q 524 586 524 528 l 524 738 q 507 754 524 754 l 240 754 q 225 738 225 754 l 225 292 q 375 156 225 156 l 576 156 q 603 129 603 156 l 603 68 q 576 40 603 42 l 350 40 q 167 110 233 40 q 100 288 100 179 l 100 738 q 83 754 100 754 l -7 754 q -33 779 -33 754 l -33 839 q -7 865 -33 865 l 517 865 q 532 882 532 865 q 517 910 532 899 q 361 992 508 917 q 239 1165 239 1051 l 239 1203 q 267 1229 239 1229 l 336 1229 q 363 1203 363 1229 l 363 1175 q 381 1117 363 1136 q 440 1078 400 1097 l 519 1039 q 626 973 593 1004 q 658 882 658 942 q 674 865 658 865 z "},"ए":{"ha":725,"x_min":-33,"x_max":758,"o":"m -7 865 l 732 865 q 758 839 758 865 l 758 779 q 732 754 758 754 l 664 754 q 647 738 647 754 l 647 586 q 590 426 647 479 q 429 372 533 372 l 378 372 q 351 399 351 372 l 351 457 q 378 483 351 483 l 413 483 q 496 506 468 483 q 524 586 524 528 l 524 738 q 507 754 524 754 l 240 754 q 225 738 225 754 l 225 292 q 375 156 225 156 l 576 156 q 603 129 603 156 l 603 68 q 576 40 603 42 l 350 40 q 167 110 233 40 q 100 288 100 179 l 100 738 q 83 754 100 754 l -7 754 q -33 779 -33 754 l -33 839 q -7 865 -33 865 z "},"ऐ":{"ha":725,"x_min":-33,"x_max":758,"o":"m 651 865 l 732 865 q 758 839 758 865 l 758 779 q 732 754 758 754 l 664 754 q 647 738 647 754 l 647 586 q 590 426 647 479 q 429 372 533 372 l 378 372 q 351 399 351 372 l 351 457 q 378 483 351 483 l 413 483 q 496 506 468 483 q 524 586 524 528 l 524 738 q 507 754 524 754 l 240 754 q 225 738 225 754 l 225 292 q 375 156 225 156 l 576 156 q 603 129 603 156 l 603 68 q 576 40 603 42 l 350 40 q 167 110 233 40 q 100 288 100 179 l 100 738 q 83 754 100 754 l -7 754 q -33 779 -33 754 l -33 839 q -7 865 -33 865 l 524 865 q 358 1072 438 956 l 281 1188 q 275 1208 275 1197 q 296 1229 275 1229 l 381 1229 q 417 1208 406 1229 l 615 889 q 651 865 631 865 z "},"ऑ":{"ha":1167,"x_min":50,"x_max":1200,"o":"m 664 865 l 1172 865 q 1200 840 1200 865 l 1200 781 q 1172 754 1200 754 l 1082 754 q 1067 738 1067 754 l 1067 26 q 1040 0 1067 0 l 967 0 q 940 26 940 0 l 940 738 q 925 754 940 754 l 756 754 q 740 738 740 754 l 740 26 q 714 0 740 0 l 640 0 q 614 26 614 0 l 614 285 q 599 301 614 301 l 461 301 l 461 272 q 402 109 461 167 q 236 51 343 51 l 78 51 q 50 78 50 51 l 50 138 q 78 164 50 164 l 228 164 q 338 269 338 164 l 338 308 q 311 386 338 361 q 228 411 285 411 l 156 411 q 129 439 129 411 l 129 497 q 156 525 129 525 l 228 525 q 338 629 338 525 l 338 649 q 311 728 338 703 q 228 754 285 754 l 121 754 q 94 781 94 754 l 94 840 q 121 865 94 865 l 243 865 q 461 644 461 865 l 461 622 q 378 471 461 510 l 378 465 q 442 411 421 450 l 599 411 q 614 428 614 411 l 614 813 q 627 851 614 836 q 664 865 640 865 m 918 964 l 788 964 q 665 1009 707 964 q 624 1139 624 1054 l 624 1149 q 654 1186 624 1186 l 708 1186 q 738 1151 738 1186 l 738 1139 q 753 1085 738 1101 q 810 1068 769 1068 l 896 1068 q 951 1085 935 1068 q 968 1139 968 1101 l 968 1151 q 999 1186 968 1186 l 1050 1186 q 1081 1149 1081 1186 l 1081 1143 q 918 964 1081 964 z "},"ऒ":{"ha":1158,"x_min":50,"x_max":1192,"o":"m 1085 865 l 1165 865 q 1192 840 1192 865 l 1192 781 q 1165 754 1192 754 l 1074 754 q 1058 738 1058 754 l 1058 26 q 1032 0 1058 0 l 958 0 q 932 26 932 0 l 932 738 q 917 754 932 754 l 756 754 q 740 738 740 754 l 740 26 q 714 0 740 0 l 640 0 q 614 26 614 0 l 614 285 q 599 301 614 301 l 461 301 l 461 272 q 402 109 461 167 q 236 51 343 51 l 78 51 q 50 78 50 51 l 50 138 q 78 164 50 164 l 228 164 q 338 269 338 164 l 338 308 q 311 386 338 361 q 228 411 285 411 l 156 411 q 129 439 129 411 l 129 497 q 156 525 129 525 l 228 525 q 338 629 338 525 l 338 649 q 311 728 338 703 q 228 754 285 754 l 121 754 q 94 781 94 754 l 94 840 q 121 865 94 865 l 243 865 q 461 644 461 865 l 461 622 q 378 471 461 510 l 378 465 q 442 411 421 450 l 599 411 q 614 428 614 411 l 614 813 q 627 851 614 836 q 664 865 640 865 l 928 865 q 943 882 943 865 q 928 910 943 899 q 772 992 915 918 q 650 1165 650 1051 l 650 1203 q 678 1229 650 1229 l 747 1229 q 774 1203 774 1229 l 774 1175 q 792 1117 774 1136 q 851 1078 811 1097 l 931 1039 q 1037 973 1004 1004 q 1069 882 1069 942 q 1085 865 1069 865 z "},"ओ":{"ha":1167,"x_min":50,"x_max":1200,"o":"m 1074 865 l 1172 865 q 1200 840 1200 865 l 1200 781 q 1172 754 1200 754 l 1082 754 q 1067 738 1067 754 l 1067 26 q 1040 0 1067 0 l 967 0 q 940 26 940 0 l 940 738 q 925 754 940 754 l 756 754 q 740 738 740 754 l 740 26 q 714 0 740 0 l 640 0 q 614 26 614 0 l 614 285 q 599 301 614 301 l 461 301 l 461 272 q 402 109 461 167 q 236 51 343 51 l 78 51 q 50 78 50 51 l 50 138 q 78 164 50 164 l 228 164 q 338 269 338 164 l 338 308 q 311 386 338 361 q 228 411 285 411 l 156 411 q 129 439 129 411 l 129 497 q 156 525 129 525 l 228 525 q 338 629 338 525 l 338 649 q 311 728 338 703 q 228 754 285 754 l 121 754 q 94 781 94 754 l 94 840 q 121 865 94 865 l 243 865 q 461 644 461 865 l 461 622 q 378 471 461 510 l 378 465 q 442 411 421 450 l 599 411 q 614 428 614 411 l 614 813 q 627 851 614 836 q 664 865 640 865 l 942 865 l 942 871 q 928 885 940 872 q 914 900 917 897 q 900 915 911 903 q 885 931 889 926 q 872 949 882 936 q 855 969 861 961 q 838 990 849 976 q 819 1015 828 1003 q 800 1042 811 1026 q 701 1188 793 1053 q 696 1208 696 1197 q 717 1229 696 1229 l 803 1229 q 839 1208 828 1229 l 1038 889 q 1074 865 1053 865 z "},"औ":{"ha":1167,"x_min":50,"x_max":1200,"o":"m 1081 865 l 1172 865 q 1200 840 1200 865 l 1200 781 q 1172 754 1200 754 l 1082 754 q 1067 738 1067 754 l 1067 26 q 1040 0 1067 0 l 967 0 q 940 26 940 0 l 940 738 q 925 754 940 754 l 756 754 q 740 738 740 754 l 740 26 q 714 0 740 0 l 640 0 q 614 26 614 0 l 614 285 q 599 301 614 301 l 461 301 l 461 272 q 402 109 461 167 q 236 51 343 51 l 78 51 q 50 78 50 51 l 50 138 q 78 164 50 164 l 228 164 q 338 269 338 164 l 338 308 q 311 386 338 361 q 228 411 285 411 l 156 411 q 129 439 129 411 l 129 497 q 156 525 129 525 l 228 525 q 338 629 338 525 l 338 649 q 311 728 338 703 q 228 754 285 754 l 121 754 q 94 781 94 754 l 94 840 q 121 865 94 865 l 243 865 q 461 644 461 865 l 461 622 q 378 471 461 510 l 378 465 q 442 411 421 450 l 599 411 q 614 428 614 411 l 614 813 q 627 851 614 836 q 664 865 640 865 l 932 865 l 932 871 q 754 1072 850 933 l 675 1188 q 668 1208 668 1199 q 690 1229 668 1229 l 760 1229 q 807 1207 793 1229 l 994 889 l 1000 890 q 944 1164 944 1013 l 944 1203 q 972 1229 944 1229 l 1040 1229 q 1067 1203 1067 1229 l 1067 882 q 1081 865 1067 865 z "},"क":{"ha":1013,"x_min":-33,"x_max":1046,"o":"m 568 738 l 568 593 l 574 593 q 699 651 604 651 l 733 651 q 896 594 838 651 q 954 431 954 536 l 954 339 q 895 176 953 235 q 733 118 838 118 l 675 118 q 647 144 647 118 l 647 206 q 675 231 647 231 l 715 231 q 829 346 829 231 l 829 425 q 711 539 829 539 l 674 539 q 568 436 568 539 l 568 28 q 540 0 568 0 l 469 0 q 444 28 444 0 l 444 176 l 439 176 q 314 118 406 118 l 279 118 q 116 176 175 118 q 57 339 57 235 l 57 431 q 116 593 58 535 q 279 651 174 651 l 336 651 q 364 625 364 651 l 364 565 q 336 539 364 539 l 296 539 q 182 425 182 539 l 182 346 q 213 260 182 290 q 300 231 243 231 l 339 231 q 417 258 390 231 q 444 335 444 285 l 444 738 q 429 754 444 754 l -7 754 q -33 781 -33 754 l -33 840 q -7 865 -33 865 l 1018 865 q 1046 840 1046 865 l 1046 781 q 1018 754 1046 754 l 583 754 q 568 738 568 754 z "},"ख":{"ha":993,"x_min":-33,"x_max":1026,"o":"m 768 217 l 763 217 q 649 163 731 165 l 628 163 q 483 218 532 163 q 435 369 435 274 l 435 432 q 488 579 435 525 q 643 633 542 633 l 668 633 q 697 606 697 633 l 697 547 q 668 522 697 522 l 654 522 q 579 497 601 522 q 557 417 557 472 l 557 378 q 581 296 557 321 q 658 271 604 271 l 667 271 q 768 382 768 271 l 768 738 q 753 754 768 754 l 394 754 q 379 738 379 754 l 379 535 q 334 401 379 450 q 213 353 289 353 l 189 353 l 389 44 q 396 25 396 35 q 372 0 396 0 l 293 0 q 265 17 279 0 l 79 307 l 44 353 l 44 432 q 76 463 44 463 l 182 463 q 256 542 256 463 l 256 738 q 242 754 256 753 l -7 754 q -33 781 -33 754 l -33 840 q -7 865 -33 865 l 999 865 q 1026 840 1026 865 l 1026 781 q 999 754 1026 754 l 908 754 q 893 738 893 754 l 893 26 q 865 0 893 0 l 794 0 q 768 26 768 0 l 768 217 z "},"ग":{"ha":711,"x_min":-33,"x_max":744,"o":"m -7 865 l 717 865 q 744 840 744 865 l 744 781 q 717 754 744 754 l 626 754 q 611 738 611 754 l 611 26 q 585 0 611 0 l 511 0 q 485 26 485 0 l 485 738 q 471 754 485 753 l 319 754 q 304 738 304 754 l 304 496 q 248 331 304 386 q 89 275 192 275 l 58 275 q 32 301 32 275 l 32 364 q 58 390 32 390 l 69 390 q 178 500 178 390 l 178 738 q 164 754 178 753 l -7 754 q -33 781 -33 754 l -33 840 q -7 865 -33 865 z "},"घ":{"ha":761,"x_min":-33,"x_max":794,"o":"m 72 610 l 72 668 q 113 749 72 728 l 113 754 l -7 754 q -33 782 -33 754 l -33 840 q -7 865 -33 865 l 767 865 q 794 840 794 865 l 794 781 q 767 754 794 754 l 676 754 q 661 738 661 754 l 661 26 q 635 0 661 0 l 561 0 q 535 26 535 0 l 535 169 l 529 169 q 404 104 499 104 l 275 104 q 125 156 178 104 q 72 306 72 208 l 72 351 q 153 481 72 454 l 153 486 q 72 610 72 515 m 519 754 l 264 754 q 197 678 197 754 l 197 618 q 271 543 197 543 l 357 543 q 385 517 385 543 l 385 457 q 357 431 385 431 l 271 431 q 197 354 197 431 l 197 317 q 219 241 197 263 q 293 219 240 219 l 396 219 q 535 351 535 221 l 535 738 q 519 754 535 754 z "},"ङ":{"ha":735,"x_min":-33,"x_max":768,"o":"m 704 496 l 704 422 q 681 396 704 396 l 604 396 q 579 422 579 396 l 579 496 q 604 521 579 521 l 681 521 q 704 496 704 521 m -7 865 l 742 865 q 768 840 768 865 l 768 779 q 742 754 768 754 l 551 754 q 536 738 536 754 l 536 592 q 472 532 536 532 l 271 532 q 217 519 233 532 q 201 468 201 506 l 201 457 q 217 406 201 419 q 271 393 233 393 l 397 393 q 528 353 482 393 q 575 235 575 314 l 575 169 q 528 44 575 89 q 397 0 481 0 l 275 0 q 123 42 175 0 q 71 188 71 85 l 71 196 q 99 228 71 228 l 165 228 q 190 196 190 228 l 190 188 q 211 124 190 139 q 286 110 232 110 l 379 110 q 432 126 415 110 q 449 179 449 142 l 449 221 q 432 275 449 260 q 379 290 415 290 l 261 290 q 122 327 167 290 q 78 449 78 364 l 78 481 q 126 602 78 561 q 261 643 175 643 l 396 643 q 411 660 411 643 l 411 738 q 397 754 411 754 l -7 754 q -33 779 -33 754 l -33 840 q -7 865 -33 865 z "},"च":{"ha":807,"x_min":-33,"x_max":840,"o":"m 196 507 l 58 507 q 32 532 32 507 l 32 593 q 58 619 32 619 l 446 619 q 472 593 472 619 l 472 532 q 446 507 472 507 l 368 507 q 263 393 263 507 l 263 347 q 376 236 263 236 l 458 236 q 548 269 517 236 q 579 361 579 301 l 579 738 q 564 754 579 754 l -7 754 q -33 781 -33 754 l -33 840 q -7 865 -33 865 l 813 865 q 840 840 840 865 l 840 781 q 813 754 840 754 l 722 754 q 707 738 707 754 l 707 28 q 679 0 707 0 l 604 0 q 579 28 579 0 l 579 190 l 574 190 q 438 124 539 124 l 357 124 q 196 180 253 124 q 139 340 139 236 l 139 382 q 196 501 139 472 l 196 507 z "},"छ":{"ha":783,"x_min":-33,"x_max":817,"o":"m -7 865 l 789 865 q 817 840 817 865 l 817 782 q 789 754 817 754 l 704 754 q 686 739 686 754 l 686 638 q 647 549 686 582 q 707 401 707 506 l 707 261 q 653 114 707 174 q 500 54 600 54 l 301 54 q 142 105 200 54 q 85 251 85 156 l 85 301 q 165 436 85 408 l 165 442 q 85 553 85 461 l 85 663 q 129 749 85 728 l 129 754 l -7 754 q -33 782 -33 754 l -33 840 q -7 865 -33 865 m 472 581 l 529 581 q 551 579 544 581 q 557 617 557 594 l 557 738 q 540 754 557 753 l 294 754 q 211 665 211 754 l 211 571 q 286 496 211 496 l 335 496 q 363 469 363 496 l 363 410 q 335 386 363 386 l 296 386 q 211 300 211 386 l 211 264 q 235 190 211 211 q 314 169 258 169 l 475 169 q 558 195 532 169 q 585 278 585 221 l 585 403 q 519 468 585 468 l 472 468 q 446 496 446 468 l 446 556 q 472 581 446 581 z "},"ज":{"ha":772,"x_min":-33,"x_max":806,"o":"m 354 483 l 354 478 q 404 385 404 454 l 404 288 q 353 132 404 188 q 211 76 303 76 l 64 76 q 36 103 36 76 l 36 163 q 64 189 36 189 l 174 189 q 256 215 233 189 q 279 297 279 242 l 279 376 q 172 483 279 483 l 119 483 q 92 508 92 483 l 92 576 q 118 600 92 600 l 531 600 q 546 617 546 600 l 546 738 q 532 754 546 753 l -7 754 q -33 781 -33 754 l -33 840 q -7 865 -33 865 l 778 865 q 806 840 806 865 l 806 781 q 778 754 806 754 l 688 754 q 672 738 672 754 l 672 26 q 644 0 672 0 l 572 0 q 546 26 546 0 l 546 467 q 531 483 546 483 l 354 483 z "},"झ":{"ha":906,"x_min":-33,"x_max":939,"o":"m 665 754 l 511 754 q 496 738 496 754 l 496 604 q 432 544 496 544 l 272 544 q 219 530 235 544 q 204 481 204 515 l 204 467 q 220 422 204 435 q 272 408 236 408 l 664 408 q 679 425 679 408 l 679 738 q 665 754 679 754 m 356 754 l -7 754 q -33 781 -33 754 l -33 840 q -7 865 -33 865 l 913 865 q 939 840 939 865 l 939 781 q 913 754 939 754 l 821 754 q 806 738 806 754 l 806 26 q 779 0 806 0 l 707 0 q 679 26 679 0 l 679 282 q 664 299 679 299 l 521 299 q 535 250 535 278 l 535 192 q 488 66 535 111 q 356 21 440 21 l 301 21 q 203 63 226 21 l 197 63 l 197 -42 q 171 -68 197 -68 l 101 -68 q 74 -42 74 -68 l 74 225 q 101 251 74 251 l 171 251 q 197 225 197 251 l 197 208 q 281 131 197 131 l 340 131 q 395 147 378 131 q 413 200 413 163 l 413 233 q 344 300 413 300 l 264 300 q 81 468 81 300 l 81 493 q 129 615 81 574 q 264 656 178 656 l 354 656 q 371 672 371 656 l 371 738 q 356 754 371 754 z "},"ञ":{"ha":790,"x_min":-33,"x_max":824,"o":"m 549 315 l 424 315 q 407 301 408 315 q 404 268 404 288 q 192 100 381 100 l 75 100 q 49 128 49 100 l 49 189 q 75 214 49 214 l 185 214 q 296 325 296 214 l 296 414 q 188 526 296 526 l 99 526 q 71 550 71 526 l 71 613 q 99 639 71 639 l 192 639 q 404 468 383 639 q 406 443 404 450 q 424 429 407 429 l 549 429 q 564 446 564 429 l 564 738 q 551 754 564 753 l -7 754 q -33 779 -33 754 l -33 840 q -7 865 -33 865 l 797 865 q 824 840 824 865 l 824 781 q 797 754 824 754 l 706 754 q 690 738 690 754 l 690 26 q 664 0 690 0 l 590 0 q 564 26 564 0 l 564 299 q 549 315 564 315 z "},"ट":{"ha":657,"x_min":-33,"x_max":690,"o":"m 290 610 l 400 610 q 415 626 415 610 l 415 738 q 400 754 415 754 l -7 754 q -33 781 -33 754 l -33 840 q -7 865 -33 865 l 663 865 q 690 840 690 865 l 690 781 q 663 754 690 754 l 556 754 q 540 738 540 754 l 540 558 q 476 497 540 497 l 304 497 q 190 389 190 497 l 190 268 q 304 160 190 160 l 378 160 q 463 184 435 160 q 492 265 492 208 l 492 290 q 517 322 492 322 l 582 322 q 610 290 610 322 l 610 265 q 552 103 610 158 q 389 47 494 47 l 290 47 q 126 108 183 47 q 68 271 68 168 l 68 389 q 126 551 68 492 q 290 610 183 610 z "},"ठ":{"ha":700,"x_min":-33,"x_max":733,"o":"m 389 497 l 303 497 q 192 386 192 497 l 192 275 q 307 160 192 160 l 383 160 q 497 275 497 160 l 497 386 q 389 497 497 497 m 707 754 l 571 754 q 556 738 556 754 l 556 663 q 504 575 556 594 l 504 569 q 589 519 557 560 q 621 414 621 478 l 621 261 q 562 103 621 160 q 400 46 503 46 l 289 46 q 126 104 183 46 q 68 269 68 163 l 68 389 q 126 551 68 493 q 290 610 185 610 l 349 610 q 429 688 429 610 l 429 738 q 415 754 429 753 l -7 754 q -33 781 -33 754 l -33 839 q -7 865 -33 865 l 707 865 q 733 839 733 865 l 733 781 q 707 754 733 754 z "},"ड":{"ha":646,"x_min":-33,"x_max":679,"o":"m -7 865 l 651 865 q 679 840 679 865 l 679 779 q 651 754 679 754 l 551 754 q 536 738 536 754 l 536 592 q 472 532 536 532 l 271 532 q 217 519 233 532 q 201 468 201 506 l 201 456 q 217 404 201 418 q 271 390 233 390 l 396 390 q 528 351 481 390 q 575 233 575 311 l 575 169 q 527 44 575 89 q 396 0 479 0 l 275 0 q 124 43 178 0 q 71 188 71 86 l 71 196 q 99 228 71 228 l 165 228 q 190 196 190 228 l 190 188 q 213 124 190 139 q 288 110 235 110 l 378 110 q 449 179 449 110 l 449 219 q 432 273 449 258 q 378 288 415 288 l 261 288 q 122 325 167 288 q 78 446 78 363 l 78 481 q 126 602 78 561 q 261 643 175 643 l 396 643 q 411 660 411 643 l 411 738 q 397 754 411 754 l -7 754 q -33 779 -33 754 l -33 840 q -7 865 -33 865 z "},"ढ":{"ha":675,"x_min":-33,"x_max":708,"o":"m 419 47 l 293 47 q 131 106 186 47 q 75 268 75 164 l 75 414 q 130 576 75 519 q 289 632 185 632 l 429 632 q 443 649 443 632 l 443 738 q 429 754 443 754 l -7 754 q -33 781 -33 754 l -33 840 q -7 865 -33 865 l 682 865 q 708 840 708 865 l 708 781 q 682 754 708 754 l 583 754 q 568 738 568 754 l 568 579 q 553 538 568 553 q 514 524 539 524 l 301 524 q 197 413 197 524 l 197 263 q 224 181 197 207 q 307 156 250 156 l 418 156 q 489 177 468 156 q 510 246 510 199 l 510 271 q 500 313 510 300 q 463 326 490 326 q 425 313 435 326 q 415 271 415 299 l 415 250 q 389 222 415 222 l 347 222 q 318 229 326 222 q 310 253 310 236 l 310 275 q 457 422 310 422 q 622 268 622 422 l 622 240 q 419 47 622 47 z "},"ण":{"ha":935,"x_min":-33,"x_max":968,"o":"m 393 754 l 226 754 q 211 738 211 754 l 211 426 q 303 331 211 331 l 317 331 q 408 426 408 331 l 408 738 q 393 754 408 754 m 693 754 l 546 754 q 532 738 532 753 l 532 431 q 477 273 532 326 q 322 219 422 219 l 294 219 q 141 273 196 219 q 86 431 86 326 l 86 738 q 71 754 86 754 l -7 754 q -33 781 -33 754 l -33 840 q -7 865 -33 865 l 942 865 q 968 840 968 865 l 968 781 q 942 754 968 754 l 850 754 q 835 738 835 754 l 835 26 q 808 0 835 0 l 735 0 q 708 26 708 0 l 708 738 q 693 754 708 754 z "},"त":{"ha":701,"x_min":-33,"x_max":735,"o":"m 199 369 l 199 218 q 224 134 199 158 q 307 108 249 110 l 322 108 q 350 82 350 108 l 350 26 q 322 0 350 0 l 279 0 q 72 222 72 0 l 72 376 q 130 540 72 483 q 292 596 188 596 l 460 596 q 475 613 475 596 l 475 738 q 463 754 475 753 l -7 754 q -33 781 -33 754 l -33 840 q -7 865 -33 865 l 708 865 q 735 840 735 865 l 735 781 q 708 754 735 754 l 617 754 q 601 738 601 754 l 601 26 q 575 0 601 0 l 503 0 q 475 26 475 0 l 475 463 q 460 479 475 479 l 308 479 q 199 369 199 479 z "},"थ":{"ha":838,"x_min":71,"x_max":869,"o":"m 611 199 l 606 199 q 449 125 564 125 l 325 125 q 135 199 199 125 q 71 374 71 272 l 71 504 q 99 531 71 531 l 263 531 q 369 621 369 531 l 369 697 q 299 763 369 763 q 228 699 228 763 l 228 640 q 204 613 228 613 l 136 613 q 111 640 111 613 l 111 711 q 162 828 111 785 q 297 871 213 871 q 436 828 382 871 q 490 700 490 786 l 490 614 q 271 418 490 418 l 199 418 l 199 374 q 340 235 199 235 l 450 235 q 570 282 529 235 q 611 394 611 329 l 611 813 q 624 851 611 836 q 661 865 638 865 l 843 865 q 869 840 869 865 l 869 781 q 843 754 869 754 l 753 754 q 738 738 738 754 l 738 26 q 711 0 738 0 l 638 0 q 611 26 611 0 l 611 199 z "},"द":{"ha":674,"x_min":-33,"x_max":707,"o":"m 285 642 l 439 642 q 453 658 453 642 l 453 738 q 439 754 453 754 l -7 754 q -33 781 -33 754 l -33 840 q -7 865 -33 865 l 681 865 q 707 840 707 865 l 707 781 q 681 754 707 754 l 593 754 q 578 738 578 754 l 578 586 q 563 544 578 558 q 522 529 547 529 l 301 529 q 197 418 197 529 l 197 317 q 224 236 197 261 q 307 211 250 211 l 385 211 q 467 294 467 211 l 467 353 q 493 379 467 379 l 564 379 q 590 353 590 379 l 590 26 q 564 0 590 0 l 493 0 q 467 26 467 0 l 467 143 l 461 143 q 363 99 438 99 l 289 99 q 126 157 181 99 q 71 319 71 215 l 71 424 q 125 586 71 531 q 285 642 179 642 z "},"ध":{"ha":764,"x_min":-33,"x_max":797,"o":"m 293 754 l 267 754 q 200 678 200 754 l 200 622 q 274 549 200 549 l 363 549 q 389 522 389 549 l 389 461 q 363 436 389 436 l 274 436 q 200 358 200 436 l 200 317 q 222 240 200 263 q 296 218 244 218 l 399 218 q 538 350 538 219 l 538 738 q 522 754 538 754 l 450 754 q 422 781 422 754 l 422 840 q 450 865 422 865 l 771 865 q 797 840 797 865 l 797 781 q 771 754 797 754 l 679 754 q 664 738 664 754 l 664 26 q 638 0 664 0 l 564 0 q 538 26 538 0 l 538 168 l 532 168 q 407 104 501 104 l 278 104 q 128 156 182 104 q 75 306 75 208 l 75 356 q 156 486 75 458 l 156 492 q 75 614 75 519 l 75 668 q 115 749 75 728 l 115 754 l -7 754 q -33 782 -33 754 l -33 840 q -7 865 -33 865 l 293 865 q 319 840 319 865 l 319 781 q 293 754 319 754 z "},"न":{"ha":672,"x_min":-33,"x_max":706,"o":"m 107 260 q 44 393 44 260 q 88 502 44 461 q 203 543 131 543 l 431 543 q 446 560 446 543 l 446 738 q 433 754 446 753 l -7 754 q -33 781 -33 754 l -33 840 q -7 865 -33 865 l 679 865 q 706 840 706 865 l 706 781 q 679 754 706 754 l 588 754 q 572 738 572 754 l 572 26 q 546 0 572 0 l 472 0 q 446 26 446 0 l 446 413 q 431 431 446 431 l 247 431 q 169 368 169 431 q 177 321 169 353 q 185 285 185 289 q 160 260 185 260 l 107 260 z "},"ऩ":{"ha":672,"x_min":-33,"x_max":706,"o":"m 289 42 l 289 -32 q 264 -58 289 -58 l 188 -58 q 163 -32 163 -58 l 163 42 q 188 67 163 67 l 264 67 q 289 42 289 67 m 107 260 q 44 393 44 260 q 88 502 44 461 q 203 543 131 543 l 431 543 q 446 560 446 543 l 446 738 q 433 754 446 753 l -7 754 q -33 781 -33 754 l -33 840 q -7 865 -33 865 l 679 865 q 706 840 706 865 l 706 781 q 679 754 706 754 l 588 754 q 572 738 572 754 l 572 26 q 546 0 572 0 l 472 0 q 446 26 446 0 l 446 413 q 431 431 446 431 l 247 431 q 169 368 169 431 q 177 321 169 353 q 185 285 185 289 q 160 260 185 260 l 107 260 z "},"प":{"ha":697,"x_min":-33,"x_max":731,"o":"m 318 339 l 356 339 q 442 369 414 339 q 471 450 471 399 l 471 738 q 456 754 471 754 l 228 754 q 213 738 213 754 l 213 447 q 318 339 213 339 m -7 865 l 704 865 q 731 840 731 865 l 731 781 q 704 754 731 754 l 613 754 q 597 738 597 754 l 597 26 q 571 0 597 0 l 497 0 q 471 26 471 0 l 471 283 l 465 283 q 338 225 432 225 l 297 225 q 144 281 201 225 q 86 435 86 338 l 86 738 q 74 754 86 753 l -7 754 q -33 782 -33 754 l -33 840 q -7 865 -33 865 z "},"फ":{"ha":1032,"x_min":-33,"x_max":1065,"o":"m 586 436 l 586 28 q 560 0 586 0 l 488 0 q 461 26 461 0 l 461 286 l 456 286 q 326 228 421 228 l 297 228 q 144 285 201 228 q 86 438 86 342 l 86 738 q 74 754 86 753 l -7 754 q -33 782 -33 754 l -33 840 q -7 865 -33 865 l 1038 865 q 1065 840 1065 865 l 1065 781 q 1038 754 1065 754 l 601 754 q 586 738 586 754 l 586 593 l 592 593 q 717 651 625 651 l 751 651 q 915 593 856 651 q 974 431 974 535 l 974 339 q 915 176 972 235 q 751 118 857 118 l 694 118 q 667 144 667 118 l 667 206 q 694 231 667 231 l 735 231 q 849 346 849 231 l 849 425 q 731 539 849 539 l 692 539 q 586 436 586 539 m 318 343 l 346 343 q 433 372 404 343 q 461 451 461 401 l 461 738 q 446 754 461 754 l 228 754 q 213 738 213 754 l 213 451 q 318 343 213 343 z "},"ब":{"ha":710,"x_min":-33,"x_max":743,"o":"m -7 865 l 715 865 q 743 840 743 865 l 743 781 q 715 754 743 754 l 625 754 q 610 738 610 754 l 610 28 q 583 0 610 0 l 508 0 q 483 28 483 0 l 483 165 l 478 165 q 346 107 444 107 l 289 107 q 126 165 185 107 q 67 328 67 224 l 67 433 q 126 596 68 538 q 289 654 183 654 l 375 654 q 401 628 401 654 l 401 571 q 375 546 401 546 l 301 546 q 240 533 265 546 l 481 306 q 483 333 483 325 l 483 738 q 468 754 483 754 l -7 754 q -33 781 -33 754 l -33 840 q -7 865 -33 865 m 300 214 l 364 214 q 444 238 414 214 l 193 476 q 188 431 188 458 l 188 329 q 300 214 188 214 z "},"भ":{"ha":699,"x_min":-33,"x_max":732,"o":"m 457 351 l 236 351 q 219 335 219 351 l 219 235 q 193 208 219 208 l 121 208 q 94 235 94 208 l 94 651 q 10 754 94 754 l -7 754 q -33 781 -33 754 l -33 839 q -7 865 -33 865 l 10 865 q 165 811 110 865 q 219 656 219 757 l 219 479 q 235 463 219 463 l 457 463 q 472 479 472 463 l 472 738 q 457 754 472 754 l 383 754 q 347 781 347 754 l 347 840 q 383 865 347 865 l 704 865 q 732 840 732 865 l 732 781 q 704 754 732 754 l 614 754 q 599 738 599 754 l 599 26 q 572 0 599 0 l 499 0 q 472 26 472 0 l 472 335 q 457 351 472 351 z "},"म":{"ha":693,"x_min":-33,"x_max":726,"o":"m 467 479 l 467 738 q 454 754 467 753 l 231 754 q 215 738 215 754 l 215 479 q 231 463 215 463 l 451 463 q 467 479 467 463 m 451 351 l 231 351 q 215 335 215 351 l 215 235 q 189 208 215 208 l 115 208 q 89 235 89 208 l 89 738 q 75 754 89 753 l -7 754 q -33 781 -33 754 l -33 840 q -7 865 -33 865 l 700 865 q 726 840 726 865 l 726 781 q 700 754 726 754 l 608 754 q 593 738 593 754 l 593 26 q 567 0 593 0 l 494 0 q 467 26 467 0 l 467 335 q 451 351 467 351 z "},"य":{"ha":799,"x_min":-33,"x_max":832,"o":"m 557 754 l 353 754 l 353 747 q 401 644 401 722 l 401 615 q 210 439 401 439 l 194 439 l 194 376 q 350 229 194 229 l 411 229 q 572 386 572 229 l 572 738 q 557 754 572 754 m 281 640 l 281 660 q 258 731 281 708 q 185 754 235 754 l -7 754 q -33 781 -33 754 l -33 840 q -7 865 -33 865 l 806 865 q 832 840 832 865 l 832 781 q 806 754 832 754 l 714 754 q 699 738 699 754 l 699 26 q 672 0 699 0 l 599 0 q 572 26 572 0 l 572 190 l 567 190 q 408 117 526 117 l 336 117 q 140 192 210 117 q 71 376 71 268 l 71 522 q 97 549 71 549 l 185 549 q 259 569 238 549 q 281 640 281 589 z "},"र":{"ha":469,"x_min":-33,"x_max":503,"o":"m 256 542 l 256 738 q 242 754 256 753 l -7 754 q -33 781 -33 754 l -33 840 q -7 865 -33 865 l 476 865 q 503 840 503 865 l 503 781 q 476 754 503 754 l 397 754 q 382 738 382 754 l 382 535 q 337 401 382 450 q 217 353 292 353 l 190 353 l 390 43 q 397 25 397 33 q 374 0 397 0 l 292 0 q 265 17 275 0 l 79 307 l 44 353 l 44 432 q 76 463 44 463 l 182 463 q 256 542 256 463 z "},"ऱ":{"ha":514,"x_min":-33,"x_max":547,"o":"m 143 46 l 143 -28 q 119 -54 143 -54 l 43 -54 q 18 -28 18 -54 l 18 46 q 43 71 18 71 l 119 71 q 143 46 143 71 m 299 542 l 299 738 q 286 754 299 753 l -7 754 q -33 781 -33 754 l -33 840 q -7 865 -33 865 l 519 865 q 547 840 547 865 l 547 781 q 519 754 547 754 l 440 754 q 425 738 425 754 l 425 535 q 381 401 425 450 q 260 353 336 353 l 233 353 l 433 43 q 440 25 440 33 q 417 0 440 0 l 335 0 q 308 17 322 0 l 122 307 l 88 353 l 88 432 q 121 463 88 463 l 226 463 q 299 542 299 463 z "},"ल":{"ha":907,"x_min":-33,"x_max":940,"o":"m 575 614 q 675 571 651 614 l 681 571 l 681 738 q 668 754 681 753 l -7 754 q -33 781 -33 754 l -33 840 q -7 865 -33 865 l 914 865 q 940 840 940 865 l 940 781 q 914 754 940 754 l 822 754 q 807 738 807 754 l 807 26 q 781 0 807 0 l 707 0 q 681 26 681 0 l 681 394 q 659 474 681 451 q 590 497 638 497 q 521 474 543 497 q 499 390 499 450 l 499 299 q 472 272 499 272 l 404 272 q 378 299 378 272 l 378 399 q 356 476 378 453 q 288 500 333 500 q 194 386 194 500 l 194 268 q 308 154 194 154 l 339 154 q 367 129 367 154 l 367 68 q 339 42 367 42 l 292 42 q 128 99 186 42 q 71 263 71 156 l 71 393 q 126 558 71 500 q 279 615 182 615 q 433 531 403 615 l 439 531 q 575 614 468 614 z "},"ळ":{"ha":928,"x_min":-33,"x_max":961,"o":"m -7 865 l 935 865 q 961 840 961 865 l 961 781 q 935 754 961 754 l 707 754 q 692 738 692 754 l 692 624 q 707 606 692 611 q 854 390 854 567 l 854 279 q 798 112 854 169 q 635 54 742 54 l 619 54 q 460 117 510 54 q 299 54 410 54 l 288 54 q 124 112 181 54 q 68 279 68 169 l 68 390 q 124 558 68 500 q 288 615 181 615 l 299 615 q 461 551 410 615 q 564 610 499 596 q 578 626 578 614 l 578 738 q 563 754 578 754 l -7 754 q -33 781 -33 754 l -33 840 q -7 865 -33 865 m 400 279 l 400 390 q 299 504 400 504 l 290 504 q 190 390 190 504 l 190 279 q 290 165 190 165 l 299 165 q 400 279 400 165 m 732 279 l 732 390 q 632 504 732 504 l 622 504 q 522 390 522 504 l 522 279 q 622 165 522 165 l 632 165 q 732 279 732 165 z "},"ऴ":{"ha":928,"x_min":-33,"x_max":961,"o":"m -7 865 l 935 865 q 961 840 961 865 l 961 781 q 935 754 961 754 l 707 754 q 692 738 692 754 l 692 624 q 707 606 692 611 q 854 390 854 567 l 854 279 q 798 112 854 169 q 635 54 742 54 l 619 54 q 460 117 510 54 q 299 54 410 54 l 288 54 q 124 112 181 54 q 68 279 68 169 l 68 390 q 124 558 68 500 q 288 615 181 615 l 299 615 q 461 551 410 615 q 564 610 499 596 q 578 626 578 614 l 578 738 q 563 754 578 754 l -7 754 q -33 781 -33 754 l -33 840 q -7 865 -33 865 m 400 279 l 400 390 q 299 504 400 504 l 290 504 q 190 390 190 504 l 190 279 q 290 165 190 165 l 299 165 q 400 279 400 165 m 732 279 l 732 390 q 632 504 732 504 l 622 504 q 522 390 522 504 l 522 279 q 622 165 522 165 l 632 165 q 732 279 732 165 m 247 0 l 324 0 q 347 -25 347 0 l 347 -99 q 324 -125 347 -125 l 247 -125 q 222 -99 222 -125 l 222 -25 q 247 0 222 0 z "},"व":{"ha":697,"x_min":-33,"x_max":731,"o":"m 597 738 l 597 28 q 571 0 597 0 l 497 0 q 471 28 471 0 l 471 168 l 465 168 q 335 110 433 110 l 289 110 q 126 168 185 110 q 67 331 67 226 l 67 428 q 126 590 68 532 q 289 647 183 647 l 364 647 q 390 621 390 647 l 390 561 q 364 535 390 535 l 308 535 q 194 421 194 535 l 194 336 q 307 222 194 222 l 353 222 q 442 256 413 222 q 471 342 471 289 l 471 738 q 456 754 471 754 l -7 754 q -33 781 -33 754 l -33 840 q -7 865 -33 865 l 703 865 q 731 840 731 865 l 731 781 q 703 754 731 754 l 613 754 q 597 738 597 754 z "},"श":{"ha":881,"x_min":75,"x_max":914,"o":"m 656 26 l 656 813 q 669 851 656 836 q 706 865 682 865 l 888 865 q 914 840 914 865 l 914 781 q 888 754 914 754 l 797 754 q 781 738 781 754 l 781 26 q 754 0 781 0 l 682 0 q 656 26 656 0 m 439 43 q 446 24 446 33 q 439 7 446 14 q 422 0 432 0 l 336 0 q 311 17 321 0 l 113 294 l 75 340 l 75 419 q 108 451 75 451 l 269 451 q 383 553 383 451 l 383 678 q 366 740 383 721 q 306 760 349 760 q 245 741 263 760 q 228 679 228 722 l 228 607 q 201 581 228 581 l 131 581 q 103 607 103 581 l 103 674 q 306 867 103 867 q 454 818 401 867 q 507 674 507 769 l 507 556 q 449 396 507 451 q 278 340 392 340 l 221 340 l 439 43 z "},"ष":{"ha":707,"x_min":-33,"x_max":740,"o":"m 481 738 q 465 754 481 754 l 210 754 l 481 458 l 481 738 m 318 321 l 365 321 q 464 368 436 321 l 213 644 l 213 429 q 318 321 213 321 m -7 865 l 714 865 q 740 840 740 865 l 740 781 q 714 754 740 754 l 622 754 q 607 738 607 754 l 607 26 q 581 0 607 0 l 507 0 q 481 26 481 0 l 481 268 l 475 268 q 347 208 443 208 l 297 208 q 144 265 201 208 q 86 419 86 322 l 86 738 q 74 754 86 753 l -7 754 q -33 782 -33 754 l -33 840 q -7 865 -33 865 z "},"स":{"ha":824,"x_min":-33,"x_max":857,"o":"m 338 461 l 582 461 q 597 478 597 461 l 597 738 q 582 754 597 754 l 386 754 q 371 738 371 754 l 371 571 q 338 467 371 494 l 338 461 m 386 24 q 361 0 386 0 l 279 0 q 253 17 263 0 l 85 296 l 44 351 l 44 431 q 76 461 44 461 l 172 461 q 244 539 244 461 l 244 738 q 229 754 244 754 l -7 754 q -33 782 -33 754 l -33 840 q -7 865 -33 865 l 829 865 q 857 840 857 865 l 857 781 q 829 754 857 754 l 739 754 q 724 738 724 754 l 724 26 q 696 0 724 0 l 624 0 q 597 26 597 0 l 597 332 q 582 349 597 349 l 190 349 l 378 46 q 386 24 386 29 z "},"ह":{"ha":653,"x_min":-33,"x_max":686,"o":"m -7 754 q -33 779 -33 754 l -33 840 q -7 865 -33 865 l 658 865 q 686 840 686 865 l 686 779 q 658 754 686 754 l 574 754 q 558 738 558 754 l 558 600 q 494 539 558 539 l 293 539 q 229 522 249 539 q 210 463 210 504 q 228 403 210 421 q 290 385 247 385 l 413 385 q 537 345 493 385 q 581 233 581 306 l 581 188 q 553 161 581 161 l 486 161 q 460 188 460 161 l 460 213 q 444 268 460 251 q 389 285 428 285 l 297 285 q 224 256 246 285 q 201 172 203 228 l 201 151 q 233 68 201 93 q 340 43 264 43 l 535 43 q 563 18 563 43 l 563 -36 q 535 -62 563 -62 l 328 -62 q 75 150 75 -62 l 75 176 q 158 333 75 297 l 158 339 q 83 469 83 369 q 131 608 83 568 q 272 647 179 647 l 417 647 q 433 664 433 647 l 433 738 q 419 754 433 753 l -7 754 z "},"़":{"ha":0,"x_min":-389,"x_max":-264,"o":"m -264 -44 l -264 -118 q -287 -144 -264 -144 l -364 -144 q -389 -118 -389 -144 l -389 -44 q -364 -19 -389 -19 l -287 -19 q -264 -44 -264 -19 z "},"ऽ":{"ha":749,"x_min":96,"x_max":649,"o":"m 649 279 l 649 208 q 594 56 649 111 q 440 0 539 0 l 335 0 q 101 144 196 0 q 96 165 96 153 q 113 189 96 176 l 144 214 q 168 225 157 225 q 186 216 179 225 q 217 179 193 207 q 250 144 240 151 q 338 115 290 115 l 419 115 q 499 142 476 115 q 522 221 522 168 l 522 272 q 486 342 522 317 q 403 382 454 361 q 195 510 242 449 q 149 672 149 571 q 194 819 149 774 q 356 865 239 865 l 569 865 q 597 840 597 865 l 597 781 q 569 754 597 754 l 379 754 q 299 735 322 754 q 276 663 276 715 q 317 580 276 611 q 465 499 358 549 q 610 408 572 450 q 649 279 649 367 z "},"ा":{"ha":326,"x_min":-33,"x_max":360,"o":"m 200 0 l 126 0 q 100 26 100 0 l 100 738 q 85 754 100 754 l -6 754 q -33 781 -33 754 l -33 840 q -6 865 -33 865 l 332 865 q 360 840 360 865 l 360 781 q 332 754 360 754 l 242 754 q 226 738 226 754 l 226 26 q 200 0 226 0 z "},"ि":{"ha":326,"x_min":-33,"x_max":918,"o":"m 332 1232 l 689 1232 q 918 1007 918 1232 l 918 981 q 892 953 918 953 l 817 953 q 793 981 793 953 l 793 1006 q 769 1092 793 1067 q 689 1117 744 1117 l 331 1117 q 250 1092 274 1117 q 226 1006 226 1067 l 226 882 q 242 865 226 865 l 332 865 q 360 840 360 865 l 360 781 q 332 754 360 754 l 242 754 q 226 738 226 754 l 226 26 q 200 0 226 0 l 126 0 q 100 26 100 0 l 100 738 q 85 754 100 754 l -6 754 q -33 781 -33 754 l -33 840 q -6 865 -33 865 l 85 865 q 100 882 100 865 l 100 1031 q 161 1181 100 1131 q 332 1232 222 1232 z "},"ी":{"ha":326,"x_min":-236,"x_max":360,"o":"m 242 865 l 332 865 q 360 840 360 865 l 360 781 q 332 754 360 754 l 242 754 q 226 738 226 754 l 226 26 q 200 0 226 0 l 126 0 q 100 26 100 0 l 100 738 q 85 754 100 754 l -6 754 q -33 781 -33 754 l -33 840 q -6 865 -33 865 l 85 865 q 100 882 100 865 l 100 1006 q 76 1092 100 1067 q -6 1117 51 1117 q -86 1092 -62 1117 q -110 1006 -110 1068 l -110 981 q -135 953 -110 953 l -208 953 q -236 981 -236 953 l -236 1007 q -178 1174 -236 1115 q -8 1232 -121 1232 q 165 1181 104 1232 q 226 1031 226 1131 l 226 882 q 242 865 226 865 z "},"ु":{"ha":0,"x_min":-494,"x_max":53,"o":"m -226 -51 l -226 0 q -199 28 -226 28 l -133 28 q 8 -15 -36 28 q 53 -154 53 -57 q 6 -301 53 -251 q -143 -351 -40 -351 l -199 -351 q -356 -306 -301 -351 q -482 -139 -411 -261 q -494 -104 -494 -117 q -481 -82 -494 -92 l -433 -56 q -410 -50 -424 -50 q -385 -72 -397 -50 q -356 -123 -372 -93 q -331 -166 -339 -153 q -308 -198 -322 -179 q -281 -224 -293 -217 q -199 -243 -243 -243 l -144 -243 q -80 -222 -94 -243 q -65 -157 -65 -200 q -77 -97 -65 -114 q -136 -79 -89 -79 l -199 -79 q -226 -51 -226 -79 z "},"ू":{"ha":0,"x_min":-379,"x_max":158,"o":"m -379 -156 q -189 39 -379 39 l -143 39 q -35 23 -79 39 q 42 -37 8 7 q 92 -115 75 -82 q 126 -190 108 -149 q 145 -236 143 -232 q 149 -247 147 -240 q 155 -260 151 -253 q 158 -279 158 -267 q 142 -297 158 -292 q 76 -319 88 -319 q 52 -295 64 -319 q 22 -228 40 -271 q -4 -169 4 -186 q -28 -126 -12 -151 q -57 -92 -43 -101 q -146 -68 -94 -68 l -189 -68 q -247 -90 -231 -68 q -262 -156 -262 -111 q -249 -218 -262 -200 q -196 -236 -236 -236 l -147 -236 q -118 -264 -118 -236 l -118 -311 q -147 -339 -118 -339 l -196 -339 q -379 -156 -379 -339 z "},"ृ":{"ha":0,"x_min":-382,"x_max":86,"o":"m -100 0 l -100 -51 q -128 -79 -100 -79 l -185 -79 q -247 -101 -232 -79 q -262 -175 -262 -124 q -241 -247 -262 -226 q -172 -268 -219 -268 l -142 -268 q -42 -231 -94 -268 q 31 -187 18 -187 q 50 -201 43 -187 l 78 -243 q 86 -263 86 -253 q 63 -292 86 -274 q -139 -376 -36 -376 l -179 -376 q -382 -169 -382 -376 q -333 -19 -382 -65 q -190 28 -283 28 l -128 28 q -100 0 -100 28 z "},"ॅ":{"ha":0,"x_min":-382,"x_max":76,"o":"m -87 964 l -217 964 q -340 1009 -297 964 q -382 1139 -382 1054 l -382 1149 q -350 1186 -382 1186 l -297 1186 q -268 1151 -268 1186 l -268 1139 q -251 1085 -268 1101 q -196 1068 -235 1068 l -108 1068 q -53 1085 -69 1068 q -37 1139 -37 1101 l -37 1151 q -6 1186 -37 1186 l 44 1186 q 76 1149 76 1186 l 76 1143 q -87 964 76 964 z "},"ॆ":{"ha":0,"x_min":-519,"x_max":-76,"o":"m -242 865 q -226 882 -226 865 q -242 910 -226 899 q -397 992 -254 918 q -519 1165 -519 1051 l -519 1203 q -492 1229 -519 1229 l -422 1229 q -396 1203 -396 1229 l -396 1175 q -377 1117 -396 1136 q -318 1078 -358 1097 l -239 1039 q -133 973 -165 1004 q -100 882 -100 942 q -85 865 -100 865 l -76 865 l -76 796 l -251 796 l -251 865 l -242 865 z "},"े":{"ha":0,"x_min":-475,"x_max":-92,"o":"m -99 865 l -92 865 l -92 813 l -172 813 q -392 1072 -292 924 l -469 1188 q -475 1208 -475 1197 q -454 1229 -475 1229 l -369 1229 q -333 1208 -344 1229 l -135 889 q -99 865 -119 865 z "},"ै":{"ha":0,"x_min":-497,"x_max":-76,"o":"m -76 832 l -196 832 q -411 1072 -314 936 l -492 1188 q -497 1208 -497 1197 q -475 1229 -497 1229 l -407 1229 q -358 1207 -372 1229 l -172 889 l -167 890 q -221 1174 -221 1011 l -221 1203 q -194 1229 -221 1229 l -126 1229 q -100 1203 -100 1229 l -100 882 q -86 865 -100 865 l -76 865 l -76 832 z "},"ॉ":{"ha":326,"x_min":-65,"x_max":393,"o":"m 200 0 l 126 0 q 100 26 100 0 l 100 738 q 85 754 100 754 l -6 754 q -33 781 -33 754 l -33 840 q -6 865 -33 865 l 332 865 q 360 840 360 865 l 360 781 q 332 754 360 754 l 242 754 q 226 738 226 754 l 226 26 q 200 0 226 0 m 229 964 l 99 964 q -24 1009 18 964 q -65 1139 -65 1054 l -65 1149 q -35 1186 -65 1186 l 19 1186 q 49 1151 49 1186 l 49 1139 q 65 1085 49 1101 q 121 1068 82 1068 l 207 1068 q 263 1085 247 1068 q 279 1139 279 1101 l 279 1151 q 310 1186 279 1186 l 361 1186 q 393 1149 393 1186 l 393 1139 q 229 964 393 964 z "},"ॊ":{"ha":326,"x_min":-193,"x_max":360,"o":"m 242 865 l 332 865 q 360 840 360 865 l 360 781 q 332 754 360 754 l 242 754 q 226 738 226 754 l 226 26 q 200 0 226 0 l 126 0 q 100 26 100 0 l 100 738 q 85 754 100 754 l -6 754 q -33 781 -33 754 l -33 840 q -6 865 -33 865 l 85 865 q 100 882 100 865 q 85 910 100 899 q -71 992 72 918 q -193 1165 -193 1051 l -193 1203 q -165 1229 -193 1229 l -96 1229 q -69 1203 -69 1229 l -69 1175 q -51 1117 -69 1136 q 8 1078 -32 1097 l 88 1039 q 194 973 161 1004 q 226 882 226 942 q 242 865 226 865 z "},"ो":{"ha":326,"x_min":-144,"x_max":360,"o":"m 233 865 l 332 865 q 360 840 360 865 l 360 781 q 332 754 360 754 l 242 754 q 226 738 226 754 l 226 26 q 200 0 226 0 l 126 0 q 100 26 100 0 l 100 738 q 85 754 100 754 l -6 754 q -33 781 -33 754 l -33 840 q -6 865 -33 865 l 101 865 l 101 871 q -61 1072 1 979 l -137 1188 q -144 1208 -144 1196 q -124 1229 -144 1229 l -39 1229 q -1 1208 -15 1229 l 197 889 q 233 865 211 865 z "},"ौ":{"ha":326,"x_min":-171,"x_max":360,"o":"m 240 865 l 332 865 q 360 840 360 865 l 360 781 q 332 754 360 754 l 242 754 q 226 738 226 754 l 226 26 q 200 0 226 0 l 126 0 q 100 26 100 0 l 100 738 q 85 754 100 754 l -6 754 q -33 781 -33 754 l -33 840 q -6 865 -33 865 l 92 865 l 92 871 q -85 1072 4 944 l -165 1188 q -171 1208 -171 1197 q -149 1229 -171 1229 l -81 1229 q -32 1207 -46 1229 l 154 889 l 160 890 q 106 1174 106 1011 l 106 1203 q 132 1229 106 1229 l 200 1229 q 226 1203 226 1229 l 226 882 q 240 865 226 865 z "},"्":{"ha":0,"x_min":-221,"x_max":40,"o":"m -200 -72 l -132 -72 q -93 -96 -110 -72 l 33 -281 q 40 -299 40 -290 q 17 -324 40 -324 l -64 -324 q -94 -304 -81 -324 l -217 -106 q -221 -93 -221 -100 q -200 -72 -221 -72 z "},"ॐ":{"ha":1194,"x_min":82,"x_max":1110,"o":"m 754 638 l 893 638 q 1051 576 993 638 q 1110 410 1110 515 l 1110 193 q 1063 63 1110 110 q 932 17 1015 17 l 889 17 q 759 63 806 17 q 713 193 713 110 l 713 285 q 697 301 713 301 l 588 301 l 588 244 q 530 77 588 138 q 364 17 472 17 l 310 17 q 142 77 203 17 q 82 244 82 138 l 82 286 q 110 318 82 318 l 182 318 q 207 286 207 318 l 207 244 q 324 129 207 129 l 353 129 q 464 251 464 129 l 464 281 q 438 373 464 343 q 353 403 413 403 l 293 403 q 267 429 267 403 l 267 488 q 293 515 267 515 l 357 515 q 464 617 464 515 l 464 649 q 439 728 464 703 q 354 753 414 753 l 242 753 q 214 779 214 753 l 214 840 q 242 865 214 865 l 372 865 q 588 650 588 865 l 588 607 q 504 461 588 497 l 504 456 q 561 413 542 440 l 740 413 q 831 325 831 413 l 831 206 q 906 129 831 133 l 917 129 q 992 206 992 133 l 992 401 q 958 495 992 464 q 865 526 925 526 l 754 526 q 728 553 728 526 l 728 613 q 754 638 728 638 m 897 753 l 757 753 q 728 779 728 753 l 728 838 q 757 865 728 865 l 882 865 q 1008 915 965 865 q 1034 932 1022 932 q 1055 925 1046 932 q 1075 908 1064 918 q 1097 888 1086 897 q 1108 869 1108 878 q 1100 849 1108 860 q 897 753 1033 753 m 832 981 l 754 981 q 729 1006 729 981 l 729 1081 q 754 1106 729 1106 l 832 1106 q 856 1081 856 1106 l 856 1006 q 832 981 856 981 z "},"॑":{"ha":0,"x_min":-226,"x_max":-100,"o":"m -226 963 l -226 1182 q -200 1207 -226 1207 l -126 1207 q -100 1182 -100 1207 l -100 963 q -126 936 -100 936 l -200 936 q -226 963 -226 936 z "},"॒":{"ha":0,"x_min":-615,"x_max":-97,"o":"m -97 -133 q -121 -158 -97 -158 l -593 -158 q -615 -133 -615 -158 l -615 -94 q -593 -72 -615 -72 l -121 -72 q -97 -94 -97 -72 l -97 -133 z "},"॓":{"ha":0,"x_min":-379,"x_max":-107,"o":"m -281 1207 q -244 1186 -256 1207 l -114 978 q -107 957 -107 969 q -128 936 -107 936 l -203 936 q -239 957 -228 936 l -372 1167 q -379 1186 -379 1174 q -358 1207 -379 1207 l -281 1207 z "}}}
